<?xml version="1.0" encoding="utf-8"?>
<!-- Generator: Adobe Illustrator 23.0.5, SVG Export Plug-In . SVG Version: 6.00 Build 0)  -->
<svg version="1.1" id="Слой_1" xmlns="http://www.w3.org/2000/svg" xmlns:xlink="http://www.w3.org/1999/xlink" x="0px" y="0px"
	 viewBox="0 0 974 745" style="enable-background:new 0 0 974 745;" xml:space="preserve">
<style type="text/css">
	.st0{fill:#DCEFFE;}
	.st1{fill:#FFF3E1;}
	.st2{opacity:0.3;fill:#FCA286;enable-background:new    ;}
	.st3{fill:#FFC550;}
	.st4{fill:#F25F46;}
	.st5{fill:#F7882D;}
	.st6{fill:#D1D9FE;}
	.st7{fill:#FFDEA9;}
	.st8{fill:#FFFFFF;}
	.st9{fill:#E2EBF4;}
	.st10{fill:#E7EAFE;}
	.st11{fill:#DD7A7D;}
	.st12{fill:#D2DCF7;}
	.st13{fill:#D6DDEA;}
	.st14{fill:#D84835;}
	.st15{fill:#FFAF84;}
	.st16{fill:#293549;}
	.st17{fill:#ED8C62;}
	.st18{fill:#457BF4;}
	.st19{fill:#B6D0FF;}
	.st20{fill:#3972D8;}
	.st21{fill:#F78834;}
	.st22{fill:#687C99;}
	.st23{fill:#CC5605;}
	.st24{fill:#F7F7F7;}
	.st25{fill:#FCD592;}
	.st26{fill:#F4B038;}
	.st27{fill:#E24530;}
	.st28{fill:#5252FF;}
	.st29{fill:#EFA21B;}
	.st30{opacity:0.7;fill:#FFDEA9;enable-background:new    ;}
	.st31{fill:#E2E2E2;}
	.st32{fill:#F78879;}
	.st33{fill:#EFA46C;}
	.st34{opacity:0.4;fill:#BFE2EF;enable-background:new    ;}
	.st35{opacity:0.3;fill:#FFFFFF;enable-background:new    ;}
</style>
<title>Artboard 1</title>
<g>
	<g>
		<path class="st0" d="M404,585c-43.4,21.9-66.1,51-115,69c-37.8,13.9-124.6,34.8-198-15C4.8,580.5-23.3,448,22,390
			c22.1-28.4,62.9-26.2,79-61c14.1-30.5-5.2-61.6,0-94c2.3-14.1,18.3-52.1,51-83c32.3-30.5,78.6-57.3,92-64
			c38.4-19.1,77.2-42.9,103-50c63-17.4,122.8-5.7,206,0c31.1,2.1,63.4,3.2,84,1c52.6-5.7,89.3-24.3,138-33c72.9-13.1,127,1.7,144,15
			c12.8,10,36.7,43.4,47,92c7.7,36.2,19.9,126.7-28,172c-49.9,47.2-117.2,7.3-170,57c-30.4,28.6-25.6,60.8-55,100
			c-14.5,19.4-34.1,38.7-61,57c-47,32.1-90.9,39.4-129,48C476.4,557.5,427.2,573.3,404,585z"/>
		<path class="st1" d="M123.4,555.6c0,90.6,66.5,135.2,153.1,135.2s165-63.7,165-154.3s-97.1-174-180.3-150.1
			C169.5,412.9,123.4,465,123.4,555.6z"/>
		<path class="st2" d="M389.8,147.4c-12.4,0-18.5-13.7-24.4-26.9c-5.9-13.3-11.6-25.8-22.8-25.8s-16.8,12.5-22.8,25.8
			c-5.9,13.2-12,26.9-24.4,26.9s-18.5-13.7-24.4-26.9c-5.9-13.3-11.6-25.8-22.8-25.8s-16.8,12.5-22.8,25.8
			c-5.9,13.2-12,26.9-24.4,26.9s-18.5-13.7-24.4-26.9c-5.9-13.3-11.6-25.8-22.8-25.8c-0.5,0-0.9-0.4-0.9-0.9c0-0.5,0.4-0.9,0.9-0.9
			c12.4,0,18.5,13.7,24.4,26.9c5.9,13.3,11.6,25.8,22.8,25.8s16.8-12.5,22.8-25.8c5.9-13.2,12-26.9,24.4-26.9s18.5,13.7,24.4,26.9
			c5.9,13.3,11.6,25.8,22.8,25.8s16.8-12.5,22.8-25.8c5.9-13.2,12-26.9,24.4-26.9s18.5,13.7,24.4,26.9c5.9,13.3,11.6,25.8,22.8,25.8
			c0.5,0,0.9,0.4,0.9,0.9S390.3,147.4,389.8,147.4L389.8,147.4z"/>
		<g>
			<path class="st3" d="M68.8,462.5c-19.1-47.8,4.2-102.1,52.1-121.2c4.8-1.9,9.7-3.4,14.7-4.5l9.9,45.4
				c-21.5,4.7-36.8,23.7-36.8,45.8c0,5.9,1.1,11.8,3.3,17.3L68.8,462.5z"/>
			<path class="st4" d="M217.2,500.2c-17.5,17.5-41.2,27.4-66,27.3c-4.2,0-8.5-0.3-12.7-0.9c-20.2-2.7-39-12-53.4-26.5
				c-0.7-0.7-1.4-1.5-2.1-2.2l33.9-31.7c17.7,18.9,47.3,19.9,66.2,2.2c18.9-17.7,19.9-47.3,2.2-66.2c-3.9-4.1-8.4-7.5-13.5-10
				l20.6-41.7c9.2,4.5,17.5,10.5,24.7,17.7C253.6,404.7,253.6,463.7,217.2,500.2z"/>
			<path class="st5" d="M192.4,350.5l-20.6,41.7c-6.4-3.2-13.5-4.9-20.7-4.8c-3.4,0-6.7,0.4-10,1.1l-9.9-45.4c2.4-0.5,4.8-1,7.3-1.3
				c4.2-0.6,8.5-0.9,12.7-0.9c8.9,0,17.7,1.3,26.3,3.8C182.7,346.2,187.7,348.1,192.4,350.5z"/>
			<path class="st6" d="M83.1,506.6c-8-8.5-14.3-18.4-18.6-29.2l43.2-17.2c2.1,5.4,5.3,10.4,9.3,14.7L83.1,506.6z"/>
		</g>
		<g>
			<path class="st7" d="M668.7,347.3c-130.7-29.2-266.2-29.2-396.9,0c-7.5,1.7-15.1-2.8-17-10.3c-13.7-57.1-27.4-114.3-41.1-171.4
				c-1.8-7.5,4.2-15.3,13.6-17.4c160-35.8,326-35.8,486,0c9.3,2.1,15.4,10,13.6,17.4c-13.7,57.1-27.4,114.3-41.1,171.4
				C683.8,344.5,676.2,349.1,668.7,347.3"/>
			<path class="st8" d="M266.9,326.4c-11.7-52.4-23.5-104.8-35.2-157.2c-0.9-4.2,2.4-8.5,7.6-9.6c152.2-32.7,309.6-32.7,461.8,0
				c5.1,1.1,8.5,5.4,7.6,9.6C697,221.6,685.3,274,673.5,326.4c-1,4.2-5.2,6.8-9.5,5.9c-127.8-27.5-259.9-27.5-387.7,0
				C272.2,333.2,268,330.6,266.9,326.4"/>
			<path class="st4" d="M512.9,173.2c-1.7,42.3-3.4,84.7-5.1,127c-1.1,0-2.2-0.1-3.3-0.1c1.6-42.4,3.1-84.7,4.7-127
				C510.4,173.1,511.7,173.1,512.9,173.2"/>
			<path class="st9" d="M282.6,261.7c3.5,18.2,7,36.5,10.6,54.7c-1.1,0.2-2.1,0.4-3.2,0.6c-3.6-18.2-7.2-36.4-10.7-54.6
				C280.3,262.2,281.4,261.9,282.6,261.7z"/>
			<path class="st9" d="M359.4,263c1.6,14.2,3.2,28.4,4.9,42.5c-1.1,0.1-2.2,0.2-3.2,0.4c-1.7-14.2-3.3-28.3-5-42.5
				C357.2,263.2,358.3,263.1,359.4,263"/>
			<path class="st9" d="M432.7,210.5c1.1,29.9,2.2,59.7,3.3,89.6c-1.1,0-2.2,0.1-3.3,0.1c-1.2-29.8-2.4-59.7-3.6-89.5
				C430.3,210.6,431.5,210.6,432.7,210.5z"/>
			<path class="st9" d="M591.4,204.1c-4,33.9-8,67.9-12,101.8c-1.1-0.1-2.2-0.3-3.2-0.4l11.6-101.8
				C589,203.8,590.2,203.9,591.4,204.1z"/>
			<path class="st9" d="M663.9,249.2L650.6,317c-1.1-0.2-2.1-0.4-3.2-0.6c4.4-22.6,8.7-45.3,13.1-67.9
				C661.6,248.7,662.8,248.9,663.9,249.2"/>
			<path class="st10" d="M657,284.5c-0.1,0.3-0.1,0.6-0.2,0.9C656.9,285.2,656.9,284.9,657,284.5L657,284.5 M273.6,207.2
				c-2,0-4,0.2-6,0.6c0.2,1,0.4,2.1,0.6,3.1c1.7-0.3,3.4-0.5,5.2-0.5c16.1,0,27.7,15.3,39.2,31.4c12.1,16.9,23.9,34.5,41.7,34.5
				c1.1,0,2.2-0.1,3.2-0.2c-0.1-1-0.2-2.1-0.4-3.1c-0.9,0.1-1.9,0.2-2.8,0.2c-15.9,0-26.7-16.1-38.8-33.1
				C304.1,223.9,291.6,207.2,273.6,207.2 M587.9,194.9c-19.3,0-31,18.3-41.6,36.1c-11,18.3-20.6,35.6-37.2,36.1
				c0,1.1-0.1,2.1-0.1,3.2c18.7-0.3,29.4-19.3,40.5-37.7c10.7-17.7,21.4-34.5,38.6-34.5c1.1,0,2.1,0.1,3.2,0.2
				c19,2.3,26.1,22.1,32.7,43c6.4,19.8,12.2,40.1,29.2,45.6c0.2-1,0.4-2.1,0.6-3.1c-14.8-5.1-20.1-23.6-26.4-43.2
				c-6.6-21-14.3-42.8-35.8-45.4C590.3,194.9,589.1,194.9,587.9,194.9 M430.4,188.8c-0.4,0-0.8,0-1.2,0
				c-21.6,0.9-30.9,22.1-39.1,42.5c-7.7,19.1-14.4,37.2-29.6,41.1c0.1,1.1,0.2,2.1,0.4,3.2c17.3-4.1,24.7-23.9,32.6-43.2
				c8.2-20.3,16.8-39.6,35.9-40.4c0.4,0,0.7,0,1.1,0c18.4,0,28.2,18.2,37.8,37.4c9.6,19.1,18.8,38.9,37.4,40.7
				c0-1.1,0.1-2.1,0.1-3.2c-16.5-1.8-24.8-19.8-34.3-38.8C461.9,208.8,451.2,188.8,430.4,188.8"/>
			<path class="st11" d="M505.7,267c0,1.1-0.1,2.1-0.1,3.2c0.6,0.1,1.1,0.1,1.7,0.1c0.4,0,0.8,0,1.2,0c0.2,0,0.3,0,0.5,0
				c0-1.1,0.1-2.1,0.1-3.2c-0.2,0-0.4,0-0.6,0c-0.3,0-0.7,0-1,0C506.9,267.1,506.3,267,505.7,267"/>
			<path class="st12" d="M360.5,272.4c-1.1,0.3-2.2,0.5-3.2,0.6c0,0-0.1,0-0.1,0c0.1,1,0.2,2.1,0.4,3.1l0.1,0
				c1.1-0.1,2.2-0.3,3.2-0.6C360.8,274.5,360.6,273.4,360.5,272.4"/>
			<path class="st12" d="M653.7,283.7c-0.2,1-0.4,2.1-0.6,3.1c1.1,0.3,2.2,0.6,3.3,0.8c0.1-0.7,0.3-1.4,0.4-2.2
				c0.1-0.3,0.1-0.6,0.2-0.9C655.9,284.3,654.8,284,653.7,283.7"/>
			<path class="st3" d="M271,171.4c0.6,2.6-1,5.1-3.6,5.7c-2.6,0.6-5.1-1-5.7-3.6c-0.6-2.6,1-5.1,3.6-5.7c0.1,0,0.1,0,0.2,0
				C267.9,167.2,270.4,168.9,271,171.4z"/>
			<path class="st3" d="M288.5,168.2c0.5,2.6-1.1,5.1-3.7,5.6c-2.6,0.5-5.1-1.1-5.6-3.7c-0.5-2.6,1.1-5.1,3.7-5.6c0.1,0,0.1,0,0.2,0
				C285.6,164.1,288,165.7,288.5,168.2z"/>
			<path class="st3" d="M306.1,165.4c0.5,2.6-1.2,5.1-3.8,5.6c-2.6,0.5-5.1-1.2-5.6-3.8c-0.5-2.6,1.2-5.1,3.8-5.6c0.1,0,0.1,0,0.2,0
				C303.3,161.2,305.7,162.8,306.1,165.4z"/>
		</g>
		<g>
			<g>
				<g>
					<polygon class="st13" points="267.8,722.7 269.6,696.2 281.8,697.6 277.3,724.6 					"/>
					<path class="st14" d="M278.3,718.2c0.8,0.1,1.5,0.4,2.1,0.9c4.2,3.5,9.3,7.4,13.1,8.8c6.3,2.4,10,6.2,0.2,6.2
						s-12.8-0.3-15.8-0.4c-4.4-0.1-2.4,0.4-13.4,0.4c-5.4,0-2.9-10.1,0.1-15c0.9-1.5,1.2-2.7,3-2.5L278.3,718.2z"/>
				</g>
				<g>
					<polygon class="st13" points="299.5,722.7 305.1,696.9 317.4,698.2 309,724.6 					"/>
					<path class="st4" d="M310.8,718.2c0.8,0.1,1.5,0.4,2.1,0.9c4.2,3.5,16.9,9.7,23.4,10.6c7,1,7.3,4.5-2.5,4.5s-17-0.9-21.4-0.8
						s-6.1,0.8-16.8,0.8c-8.3,0-2.9-10.5,0.1-15.5c1-1.5,2.7-2.3,4.5-2L310.8,718.2z"/>
				</g>
				<path class="st15" d="M427.5,255.7c-3,2.2-6.2,4.3-9.5,6c-2.1,0.3-4.1,1.1-5.8,2.3c-2.2,1.5-12.8,8.9-15.6,18.4
					c-1.4,3-2.8,5.9-4.3,8.9c-0.3,0.6-0.6,1.3-0.9,1.9c-0.3,0.6-0.6,1.2-0.9,1.7c-1.5,2.8-2.9,5.5-4.4,8.1
					c-5.5,9.9-10.6,17.5-12.9,19c-8.5,4.3-34.3,1.4-49.8-2c-4.7-1-9.4,2-10.4,6.8c-1,4.7,2,9.3,6.6,10.4c4.7,1,22,4.6,38.3,4.6
					c8.7,0,17.2-1,23.2-4.1c6.3-3.2,12.3-16.1,16.8-27.9c1-2.6,1.9-5.2,2.8-7.5c0.6-1.8,1.2-3.5,1.8-5c0-0.1,0.1-0.3,0.1-0.4
					c0.9-2.8,1.7-5,2.2-6.5c1.1-3.1,1.8-4.3,2.8-6.6c1-2.3,10.5-2.3,14.4-5c4.1-2.7,3.6-9.6,1.9-14.1c-0.1-0.3-0.3-0.6-0.5-0.8
					c0.7-0.5,1.5-1,2.2-1.5C431.2,258.6,435.8,249.3,427.5,255.7z"/>
				<path class="st15" d="M327,274.4c0-18.2-13.5-32.7-31.7-32.7c-18.2,0-32.9,14.7-32.9,32.9c0,12.6,6.7,26.6,17.2,32.1
					c-0.4,8.1,0.4,17,5.5,24.9c5.3,8.5,6.4,10.2,6.5,10.3c2.9,4.9,9.3,6.5,14.2,3.6s6.5-9.3,3.6-14.2c0,0-0.8-1.4-6.7-10.8
					c-1.5-2.3-2.4-4.8-2.3-10.6C321.1,314,327,290.8,327,274.4z"/>
				<path class="st16" d="M270.6,513.6c0,0-9-22.7-3.2-54.2h73.7c1.2,15.4,1.3,30.8,0.3,46.2L270.6,513.6z"/>
				<path class="st16" d="M283.6,487.2h-0.3c-8,0-17.5,0-14.7,17.6c0.1,0.7,3.4,71.7,1,101.5c-2.2,28.1-4.3,106.1-4.3,107h16.4
					c0.1-0.8,15.1-76.7,17.3-104.6c2.5-30.7,4.4-100.5,4.5-103.4C303.6,497.2,291.7,487.3,283.6,487.2z"/>
				<path class="st16" d="M341.5,502.3c-0.6-8.1-8.6-12.5-16.6-11.9c-8.1,0.6-24.4,7-23.9,15.1c0,0.6,14.4,62.1,14.9,89.9
					c0.5,24.6-1.4,45.1-17.9,118.1l16.1,1.1c3.6-9.6,32-85.2,31.3-119.8C344.8,566.3,341.6,504.8,341.5,502.3z"/>
				<path class="st15" d="M273,328.7c0,0-12,57.2-14.2,67.8c-0.7,3.9-3.8,7-7.7,7.8c-0.8,0.2-1.7,0.3-2.6,0.3
					c-3.5,0-7-5.3-17.5-20.9c-0.3-0.5-0.7-1-1-1.5c-1.2-1.8-2.5-3.7-3.9-5.8c-0.3-0.5-0.7-1.1-1.1-1.6c-2.4-3.5-5.2-7.5-8.2-11.9
					c-3,1.1-12.1,6-15.6,6c-4.8,0-10.8-0.5-8.9-4.9c2-4.7,6.7-7.9,11.3-9.2c2.4-0.7,6.9-1.9,8.7-3c0.1,0,0.3-0.1,0.4-0.2
					c0.3-0.1,0.5-0.3,0.8-0.3c0.3-0.1,0.5-0.2,0.8-0.3c0.3-0.1,0.6-0.1,0.8-0.2c0.3,0,0.6-0.1,0.9-0.1c0.3,0,0.5,0,0.8,0
					c0.3,0,0.6,0,0.9,0.1c0.3,0,0.5,0.1,0.8,0.1c0.3,0.1,0.6,0.1,0.9,0.2c0.3,0.1,0.5,0.2,0.8,0.3c0.3,0.1,0.5,0.2,0.8,0.4
					c0.2,0.1,0.5,0.3,0.7,0.4c0.2,0.2,0.5,0.3,0.7,0.5c0.2,0.2,0.4,0.4,0.6,0.6c0.2,0.2,0.4,0.4,0.6,0.7c0.1,0.1,0.2,0.2,0.3,0.3
					c3.4,4.7,7.1,9.6,10.8,14.2c0.4,0.5,0.8,1,1.2,1.5c1.5,1.9,3,3.7,4.4,5.4c0.4,0.5,0.8,0.9,1.2,1.4c1,1.2,2,2.4,3,3.4
					c0.6-2.7,1.2-5.7,1.8-8.8c0.1-0.4,0.2-0.9,0.3-1.3c4.2-20,9.5-45.2,9.5-45.2L273,328.7z"/>
				<path class="st17" d="M241.3,377l-10.3,6.8c-0.3-0.5-0.7-1-1-1.5c-1.2-1.8-2.5-3.7-3.9-5.8c-0.3-0.5-0.7-1.1-1.1-1.6l9.5-6.3
					c0.4,0.5,0.8,1,1.2,1.5c1.5,1.9,3,3.7,4.4,5.4C240.5,376.1,240.9,376.5,241.3,377z"/>
				<path class="st18" d="M388.3,295.7c-10.6,20.3-15.3,24.5-16,25.1c-7.9,3.7-26.6,2.2-41.6-0.9c-2.6-0.8-5.3-1.4-8-1.8h-61
					c-3.4,0-6.3,2.3-7.1,5.6h0c0,0-6.8,32.6-11.2,53.4c-1-1.2-2.2-2.6-3.5-4.2l-16.1,12.9c12.3,15,18.6,20.3,24.9,20.4h0.1
					c1,0,2-0.1,2.9-0.3c1.1-0.3,2.2-0.7,3.2-1.3c2.8-1.7,4.7-4.5,5.3-7.7c0.5-2.2,1.4-6.6,2.5-12.1c3.4,28.4,8.5,34.2,4.7,74.6h73.7
					c0,0-2.8-75.1-8-115.4c8.9,1.2,18,1.4,27,0.6c8.9-0.9,15.4-2.4,21.7-5.6c3-1.5,6.7-3.3,21.8-32.4L388.3,295.7z"/>
				<path class="st19" d="M239.8,372.9l-16.1,12.9c-0.8-1-1.7-2.1-2.6-3.2l16.1-12.8C238.2,370.9,239.1,371.9,239.8,372.9z"/>
				<path class="st17" d="M402.5,296.8c0,0.1-0.1,0.3-0.1,0.4c-0.5,1.6-1.1,3.2-1.8,5l-10.1-7.3c0.3-0.6,0.6-1.1,0.9-1.7
					c0.3-0.6,0.6-1.3,0.9-1.9L402.5,296.8z"/>
				<path class="st19" d="M405.3,303.4c-0.6,1.1-1.1,2.2-1.7,3.3l-15.3-11c0.5-1,1.1-2.2,1.7-3.3L405.3,303.4z"/>
				<path class="st20" d="M262.8,384.8c-1.2,5.4-2.1,9.7-2.6,12c-0.6,3.2-2.6,6-5.3,7.7l3.7-51.7C260,362.6,261.5,373.6,262.8,384.8
					z"/>
				<path class="st21" d="M328.2,236.5c0,0-0.6,5-12.2-0.2c-21.8-9.8-43.9-4.6-50,0c-6,4.5-6.8,9.2-4.9,13c-4.8,4.3-8,10.3-8,14.7
					c-0.1,18.7,11.7,37.8,24.6,37.8c20.5,0,29.5-25,28.4-39.3c-0.1-1.3-0.2-2.6-0.3-3.9c0.7,0.1,1.3,0.2,2,0.4
					C331.7,263.4,328.2,236.5,328.2,236.5z"/>
				<path class="st15" d="M294.7,275.9c0,3.3,1.5,6.5,4,8.6c1.9,1.5,4.7,1.2,6.3-0.7c0.6-0.8,1-1.8,1-2.8v-10.2c0-2.5-2-4.5-4.4-4.5
					c-1,0-2,0.3-2.8,1C296.2,269.5,294.7,272.6,294.7,275.9z"/>
				<g>
					<path class="st22" d="M311,712l-1.5-0.5c0.3-0.8,23-73.9,25.7-85.6c1.9-8.1,5-23.5,4.5-35.3c-0.4-10-5.9-90.7-5.9-91.5
						c1-9.7,1.6-41.4,1.6-41.7l1.6,0c0,0.3-0.5,32-1.6,41.7c0.1,0.7,5.5,81.4,5.9,91.4c0.5,12.1-2.7,27.6-4.6,35.7
						C334,638.1,311.2,711.2,311,712z"/>
					<rect x="265" y="466" class="st22" width="24.7" height="1.6"/>
				</g>
			</g>
		</g>
		<g>
			<g>
				<g>
					<g>
						<path class="st23" d="M538.5,475.7h87.8c2.8,0,4.5-2.3,3.7-5.1l-14.7-52.1c-0.9-2.9-3.5-5-6.6-5.1h-87.8
							c-2.8,0-4.5,2.3-3.7,5.1l14.7,52.1C532.8,473.5,535.4,475.6,538.5,475.7z"/>
						<path class="st21" d="M540.4,475.7h87.8c2.8,0,4.5-2.3,3.7-5.1l-14.7-52.1c-0.9-2.9-3.5-5-6.6-5.1h-87.8
							c-2.8,0-4.5,2.3-3.7,5.1l14.7,52.1C534.7,473.5,537.4,475.6,540.4,475.7z"/>
					</g>
					<path class="st24" d="M540.2,463.2l-9.6-34.2c-0.9-3.1,0.9-6.3,4-7.2c0.5-0.1,1-0.2,1.6-0.2h69.2c2.6,0,4.9,1.7,5.6,4.2
						l9.6,34.2c0.9,3.1-0.9,6.3-4,7.2c-0.5,0.1-1,0.2-1.6,0.2h-69.2C543.2,467.4,540.9,465.7,540.2,463.2z"/>
				</g>
				<g>
					<path class="st23" d="M534.7,476.7c0.4,1,1.4,1.7,2.5,1.7H630c1.1,0,2.1-0.7,2.5-1.7c0.1-0.4,0-0.8-0.4-0.9c-0.1,0-0.2,0-0.3,0
						h-96.4c-0.4,0-0.7,0.3-0.7,0.7C534.7,476.5,534.7,476.6,534.7,476.7z"/>
					<path class="st25" d="M558.8,476.7c0.4,1,1.4,1.7,2.5,1.7H654c1.1,0,2.1-0.7,2.5-1.7c0.1-0.4,0-0.8-0.4-0.9c-0.1,0-0.2,0-0.3,0
						h-96.4c-0.4,0-0.7,0.3-0.7,0.7C558.8,476.5,558.8,476.6,558.8,476.7z"/>
					<path class="st1" d="M598.9,475.7v0.4c0,0.5,0.4,0.9,0.9,0.9h15.8c0.5,0,0.9-0.4,0.9-0.9v-0.4H598.9z"/>
				</g>
			</g>
			<g>
				<path class="st26" d="M681,487c-1.2-8-8.7-13.6-16.7-12.4c0,0,0,0,0,0c-8.6,1.3-84.8,13.8-96.2,63.3
					c-7,30.2,13.6,82.5,29.7,124.4l14-4.1c-11.7-35.7-18.7-97.3-15-113.7c5.9-25.5,55.1-38.3,71.8-40.8
					C676.7,502.5,682.2,495.1,681,487z"/>
				<path class="st15" d="M687.1,267.3c-0.2-0.1-0.3-0.2-0.5-0.3c-3.4-14.5-16.4-29.1-32-29.1c-15.3,0-28.2,14.3-31.8,28.5
					c-1,0-2,0.3-2.7,1c-4.7,4-5.3,11.1-1.3,15.9c0.4,0.5,0.9,0.9,1.3,1.3c1,0.8,2.3,1.2,3.5,0.9c3,8.8,12.3,22.8,26.2,23.8
					c0.1,5.5-0.9,8.8-2.4,11.2c-5.9,9.4-6.7,10.8-6.7,10.8c-2.8,5-1.1,11.3,3.8,14.1c4.8,2.8,11,1.2,13.9-3.5
					c0.1-0.2,1.2-1.9,6.5-10.3c5-8,5.9-17.6,5.5-25.7c7.3-3.9,12.6-12.7,15.3-20.6c0.5-0.2,1-0.4,1.5-0.8c4.7-4,5.3-11.1,1.3-15.9
					C688,268.2,687.5,267.7,687.1,267.3L687.1,267.3z"/>
				<path class="st3" d="M679.2,507.4c0,0,9-16.5,3.2-48h-73.7c0,0-1,24,0.6,48H679.2z"/>
				<path class="st3" d="M624,478.6c-13.2,0-25.1-0.1-35.6-0.2c-54.4-0.4-70.8-0.5-78.5,13.4c-2.7,4.9-4.4,12.9,2.3,23.5
					c17.2,26.8,76.5,68.8,82.9,74l10.9-13.7c-14.2-11.5-45-46.9-62.4-67.4c10.8-0.6,27.4-0.4,44.5-0.3c10.6,0.1,22.5,0.2,35.8,0.2
					c8.1,0,14.7-6.6,14.7-14.7S632.1,478.6,624,478.6L624,478.6z"/>
				<path class="st15" d="M733.8,390c0-6.8-7.1-20.4-16.1-34.7c-7.3-11.5-15.7-23.4-22.1-32.2c-2.8-3.9-8.3-4.8-12.2-1.9
					c-3.9,2.8-4.8,8.3-1.9,12.2c7.7,10.5,15.7,22.2,22,32.4c6.7,10.5,11.6,19.4,12.6,23.2c-3.3,6.4-22.7,26-39.6,41.2
					c-0.2,0.2-0.5,0.5-0.7,0.8c-0.1,0.1-0.3,0.3-0.4,0.4c-0.3,0.3-0.5,0.7-0.7,1.1c-0.1,0.1-0.2,0.2-0.2,0.4
					c-0.2,0.4-0.3,0.8-0.5,1.2c0,0.1-0.1,0.2-0.1,0.3c-0.1,0.4-0.2,0.8-0.2,1.3c0,0.1-0.1,0.3-0.1,0.4c0,0.4,0,0.8,0,1.2
					c0,0.2,0,0.3,0,0.5c0.1,0.4,0.1,0.7,0.2,1.1c0,0.2,0.1,0.4,0.1,0.6c0.1,0.3,0.3,0.7,0.4,1c0.1,0.2,0.2,0.4,0.3,0.6
					c0.2,0.3,0.4,0.6,0.6,0.9c0.1,0.1,0.2,0.3,0.3,0.5c0,0,0.1,0.1,0.1,0.1s0,0,0,0.1s0,0,0,0c1.5,1.7,7.3,8.1,14.4,10.5
					c0.9,0.3,1.9,0.5,2.9,0.5c3.6,0,5.4-5.5,6.7-9.1c1.6-4.6-4.8-8.7-9.3-10.3c-0.1,0-0.2-0.1-0.3-0.2
					C715.3,414.7,733.8,400.1,733.8,390z"/>
				<path class="st17" d="M717.7,355.3l-9.7,7.1l-4.6,3.4c-6.4-10.2-14.4-21.9-22-32.4c-2.9-3.9-2-9.4,1.9-12.2
					c3.9-2.9,9.4-2,12.2,1.9C702.1,331.9,710.4,343.8,717.7,355.3z"/>
				<path class="st4" d="M718.2,352l-10.5,6.5l-9,5.6l-1.5-2.4l-4.5-7.3c-3.2-5.2-6.1-9.8-8.3-13.1c-2.1-3.3-3.5-5.4-3.5-5.4
					c-3.5-5.3-2-12.4,3.3-15.8c1.3-0.9,2.8-1.5,4.4-1.7c0.9-0.2,1.7-0.2,2.6-0.1c3.6,0.2,6.9,2.1,8.9,5.2c0.2,0.3,5.5,8.4,12.1,19
					l4.5,7.3L718.2,352z"/>
				<path class="st27" d="M707.7,358.5l-9,5.6l-1.5-2.4l-4.5-7.3c-3.2-5.2-6.1-9.8-8.3-13.1c-2.1-3.3-3.5-5.4-3.5-5.4
					c-3.5-5.3-2-12.4,3.3-15.8c1.3-0.9,2.8-1.5,4.4-1.7c0.9-0.2,1.7-0.2,2.6-0.1c1.9,1.7,3.3,3.9,4.2,6.2c0.2,0.5,5,13.3,10.8,29.7
					L707.7,358.5z"/>
				<path class="st4" d="M695.3,326.6c-5.1,29.4-15.1,103.1-12.9,132.8h-73.7c0,0,0.8-19.8,2.3-44.7c1.9-33,5.1-74.8,9-90.6
					c0.1-0.2,0.1-0.4,0.2-0.6c0.8-3.2,3.7-5.4,7-5.4h61c4,0,7.3,3.2,7.3,7.2C695.4,325.8,695.4,326.2,695.3,326.6z"/>
				<path class="st28" d="M672.1,246.4c-7,9-48.1,14.6-48.1-5.7c-0.1-2.4,1-4.8,2.9-6.3c0,0,0.3,3.1,1.8,3.9
					c4.4-2.5,9.2-4.4,14.1-5.6c0,0-1.4,3.1,3.9,2.4C661.7,233.1,683.7,231.4,672.1,246.4z"/>
				<path class="st27" d="M638.5,339c0,0.1-0.4,2.8-1.1,7.3c-0.6,4.5-1.5,10.6-2.4,17.5l-1.3,9.7L611,414.7c1.9-33,5.1-74.8,9-90.6
					c0.9-0.7,1.9-1.2,2.9-1.5c2-0.6,4.1-0.6,6,0c4.2,1.3,7.6,5,9,9.4C638.6,334.3,638.8,336.6,638.5,339z"/>
				<path class="st28" d="M643.5,240.2c-7.5,2-14,15.2-14.7,22.9c-1.3,14.4,9.6,36.9,32,36.9c26.7,0,29.3-28.5,28-35.6
					s-5.7-23.1-17.2-24.6C664.7,239,651.5,238.1,643.5,240.2z"/>
				<path class="st15" d="M631.9,321.7C631.9,321.7,631.9,321.7,631.9,321.7c-0.9-0.5-1.8-0.8-2.7-1c-4-0.9-8.1,0.4-10.9,3.4
					c0,0-0.1,0.1-0.1,0.1c-0.3,0.7-0.6,1.4-0.8,2.2c-0.3,1.4-4,18.1-7.8,36.7c-4.1,19.2-8.4,40.4-9.7,49
					c-2.6,17.9-30.7,32.4-41.3,36.4c-0.2,0.1-0.3,0.2-0.5,0.2c-0.7,0.3-1.3,0.6-1.8,1.1c-0.2,0.1-0.3,0.2-0.5,0.4
					c0,0-0.1,0.1-0.1,0.1c0,0,0,0-0.1,0.1c-2.3,2.1-11.1,11-10,21.8c0.5,4.5,0.5,5.7,4.8,7c2.2,0.6,4.4,0.8,6.7,0.6
					c4.8,0,7.6-1.4,7.1-6.2c-0.1-1.2-2.4-12.7-0.4-14.9c25-10.6,49.1-15.2,53.4-44c1.1-7.8,5-26.9,8.8-45.1
					c4.2-20.2,8.4-39,8.4-39.4C635.3,327.1,634.3,323.9,631.9,321.7z"/>
				<path class="st17" d="M634.6,330.1c-0.1,0.4-4.2,19.2-8.4,39.4l-16.5-6.5c3.9-18.6,7.5-35.3,7.8-36.7c0.2-0.7,0.4-1.5,0.8-2.2
					c0-0.1,0.1-0.1,0.1-0.1c2.8-3,6.9-4.2,10.9-3.4c0.9,0.2,1.8,0.5,2.6,0.9c0,0,0,0,0.1,0C634.3,323.9,635.3,327.1,634.6,330.1z"/>
				<path class="st4" d="M608.7,360.3l22.5,4.5l0.6-2.8l1.7-8.4c1.2-5.9,2.3-11.3,3.1-15.2s1.4-6.3,1.4-6.3c0.5-2,0.4-4-0.3-6
					c-1.2-3.9-4.4-6.8-8.4-7.7c-2-0.4-4-0.4-6,0.3c-3.9,1.2-6.8,4.4-7.7,8.4c-0.1,0.4-2.2,9.8-4.6,22l-1.7,8.4L608.7,360.3z"/>
				<g>
					<rect x="659.7" y="467.7" class="st29" width="24.7" height="1.6"/>
					<path class="st29" d="M593.5,583.3c-26.4-19.4-57.8-49.7-71.4-68.9c-4.6-6.5-5.8-12.1-3.4-16.7c3.5-6.8,14.8-10.6,31.7-10.6
						c5.7,0,15.5,0,25.6,0.1c10.8,0.1,22.1,0.1,29.2,0.1c13.4,0,13.4-6.3,13.4-8.7v-20h1.6v20c0,6.8-5.1,10.3-15,10.3
						c-7.1,0-18.3-0.1-29.2-0.1c-10.1,0-19.9-0.1-25.6-0.1c-16,0-27.1,3.5-30.3,9.7c-2,4-0.9,9,3.3,15c13.5,19.1,44.7,49.2,71,68.5
						L593.5,583.3z"/>
				</g>
				<path class="st16" d="M592,582.4c-0.7,0.4-1.2,1-1.5,1.7c-2.2,5-10.9,16.1-16.3,19.8c-5.8,4-4.6,7.2,4.2,2.9s14.9-8.3,18.9-10.1
					s5.8-2,15.5-6.7c7.4-3.6-2.1-10.7-6.9-13.8c-1.5-0.9-3.5-0.9-4.9,0.1L592,582.4z"/>
				<path class="st16" d="M598.2,658.7c-0.5,0.6-0.7,1.4-0.8,2.2c-0.2,5.4-3,17.7-9.5,21.8c-5.9,3.8-4.1,6.7,5,2.9
					c8.1-3.4,12.5-12.3,15.5-15.4s4.6-4,11.8-12c5.5-6.1-5.9-9.2-11.5-10.3c-1.8-0.3-3.5,0.5-4.5,2L598.2,658.7z"/>
			</g>
			<g>
				<rect x="606.1" y="506.6" class="st18" width="78.3" height="227.6"/>
				<rect x="714.5" y="680.3" class="st30" width="78.3" height="53.9"/>
				<rect x="497.7" y="640.2" class="st30" width="78.3" height="94"/>
				<rect x="389.7" y="582.2" class="st30" width="78.3" height="152"/>
				<path class="st31" d="M226.8,744.1h581.2c2.7,0,5-2.2,5-5l0,0c0-2.7-2.2-5-5-5c0,0,0,0,0,0H226.8c-2.7,0-5,2.2-5,5c0,0,0,0,0,0
					l0,0C221.9,741.9,224.1,744.1,226.8,744.1z"/>
			</g>
		</g>
		<g>
			<g>
				<rect x="405.1" y="400.6" class="st7" width="42.6" height="13.2"/>
				<rect x="396.1" y="381.1" class="st9" width="4.6" height="115"/>
				<rect x="405.1" y="419.6" class="st7" width="26" height="13.2"/>
				<rect x="437.3" y="419.6" class="st7" width="35.8" height="13.2"/>
				<rect x="405.1" y="438.6" class="st7" width="16.9" height="13.2"/>
				<rect x="405.1" y="476.5" class="st7" width="18.2" height="13.2"/>
				<rect x="434.6" y="476.5" class="st7" width="43.6" height="13.2"/>
			</g>
			<g>
				<rect x="96.7" y="206.1" class="st7" width="78.3" height="13.2"/>
				<rect x="87.8" y="206.1" class="st9" width="4.6" height="115"/>
				<rect x="96.7" y="225.1" class="st7" width="89.6" height="13.2"/>
				<rect x="96.7" y="244.1" class="st7" width="59" height="13.2"/>
				<rect x="96.7" y="282.1" class="st7" width="11.3" height="13.2"/>
				<rect x="115" y="282.1" class="st7" width="26.9" height="13.2"/>
			</g>
			<g>
				
					<rect x="692.7" y="188.9" transform="matrix(0.7072 -0.707 0.707 0.7072 64.4857 551.041)" class="st32" width="9.6" height="17.5"/>
				<path class="st33" d="M744.2,244.3L744.2,244.3c-3.3,3.3-8.7,3.3-12,0c-0.1-0.1-0.2-0.2-0.3-0.3l-35.7-38.8l8.8-8.8l38.8,35.7
					c3.5,3.2,3.7,8.5,0.5,12C744.4,244.2,744.3,244.2,744.2,244.3z"/>
				<path class="st34" d="M703.9,161.2c0,23.7-19.2,42.8-42.8,42.8c-9.8,0-19.3-3.4-26.9-9.5c-2.6-2.1-5-4.5-7-7.1
					c-1.3-1.6-2.4-3.3-3.4-5.1c-3.1-5.4-5-11.5-5.4-17.8c-0.1-1.1-0.1-2.2-0.1-3.4c0-23.7,19.2-42.9,42.9-42.9
					c1.1,0,2.3,0.1,3.4,0.1c6.2,0.5,12.3,2.3,17.7,5.4c1.8,1,3.5,2.2,5.1,3.4c2.6,2,5,4.4,7.1,7
					C700.5,141.9,703.9,151.4,703.9,161.2z"/>
				<path class="st35" d="M682.1,123.9l-58.4,58.4c-3.1-5.4-5-11.5-5.4-17.8l46.1-46.1C670.6,118.9,676.7,120.8,682.1,123.9z"/>
				<path class="st35" d="M694.4,134.3l-60.2,60.2c-2.6-2.1-5-4.5-7-7.1l60.1-60.1C689.9,129.3,692.3,131.7,694.4,134.3z"/>
				<path class="st25" d="M661,208.8c-26.3,0-47.6-21.3-47.6-47.6c0-26.3,21.3-47.6,47.6-47.6c12.6,0,24.7,5,33.7,13.9l0,0
					c18.6,18.6,18.6,48.7,0,67.3C685.7,203.7,673.6,208.8,661,208.8L661,208.8z M661,123.1c-21,0-38.1,17.1-38.1,38.1
					c0,21,17.1,38.1,38.1,38.1c21,0,38.1-17.1,38.1-38.1c0-10.1-4-19.8-11.2-26.9l0,0C680.8,127,671.1,123,661,123.1z"/>
			</g>
		</g>
	</g>
</g>
</svg>
