<svg xmlns="http://www.w3.org/2000/svg" viewBox="0 0 206 140.03"><defs><style>.cls-1{isolation:isolate;}.cls-2{fill:#e1eff2;}.cls-3{fill:#c5e0e4;}</style></defs><title>calendar-mock-blue-left</title><g id="Rounded_Rectangle_14" data-name="Rounded Rectangle 14" class="cls-1"><g id="Rounded_Rectangle_14-2" data-name="Rounded Rectangle 14"><path class="cls-2" d="M186,0H0v120a20,20,0,0,0,20,20H186a20,20,0,0,0,20-20V20A20,20,0,0,0,186,0Z" transform="translate(0 -0.03)"/></g></g><g id="Ellipse_7" data-name="Ellipse 7" class="cls-1"><g id="Ellipse_7-2" data-name="Ellipse 7"><ellipse class="cls-3" cx="55" cy="39.5" rx="27" ry="21.5"/></g></g><g id="Rounded_Rectangle_15" data-name="Rounded Rectangle 15" class="cls-1"><g id="Rounded_Rectangle_15-2" data-name="Rounded Rectangle 15"><path class="cls-3" d="M129.5,73h-97a3.5,3.5,0,0,0,0,7h97a3.5,3.5,0,0,0,0-7Z" transform="translate(0 -0.03)"/></g></g><g id="Rounded_Rectangle_15_copy" data-name="Rounded Rectangle 15 copy" class="cls-1"><g id="Rounded_Rectangle_15_copy-2" data-name="Rounded Rectangle 15 copy"><path class="cls-3" d="M159.5,93.06H32.5a3.5,3.5,0,0,0,0,7h127a3.5,3.5,0,0,0,0-7Z" transform="translate(0 -0.03)"/></g></g><g id="Rounded_Rectangle_15_copy_2" data-name="Rounded Rectangle 15 copy 2" class="cls-1"><g id="Rounded_Rectangle_15_copy_2-2" data-name="Rounded Rectangle 15 copy 2"><path class="cls-3" d="M179.5,113.06H32.5a3.5,3.5,0,0,0,0,7h147a3.5,3.5,0,0,0,0-7Z" transform="translate(0 -0.03)"/></g></g></svg>