<svg id="Группа_1" data-name="Группа 1" xmlns="http://www.w3.org/2000/svg" viewBox="0 0 206 140.03"><defs><style>.cls-1{fill:#2e3192;}.cls-2{opacity:0.25;}.cls-3{fill:#fff;}</style></defs><title>calendar-mock-orange</title><g id="Rounded_Rectangle_14_copy_2" data-name="Rounded Rectangle 14 copy 2"><path class="cls-1" d="M186,0H0v120a20,20,0,0,0,20,20H186a20,20,0,0,0,20-20V20A20,20,0,0,0,186,0Z" transform="translate(0 -0.03)"/></g><g id="Ellipse_7_copy_2" data-name="Ellipse 7 copy 2" class="cls-2"><ellipse class="cls-3" cx="55" cy="39.52" rx="27" ry="21.52"/></g><g id="Rounded_Rectangle_15_copy_4" data-name="Rounded Rectangle 15 copy 4" class="cls-2"><path class="cls-3" d="M129.5,73.06h-97a3.5,3.5,0,0,0,0,7h97a3.5,3.5,0,0,0,0-7Z" transform="translate(0 -0.03)"/></g><g id="Rounded_Rectangle_15_copy_4-2" data-name="Rounded Rectangle 15 copy 4" class="cls-2"><path class="cls-3" d="M159.5,93.06H32.5a3.5,3.5,0,0,0,0,7h127a3.5,3.5,0,0,0,0-7Z" transform="translate(0 -0.03)"/></g><g id="Rounded_Rectangle_15_copy_4-3" data-name="Rounded Rectangle 15 copy 4" class="cls-2"><path class="cls-3" d="M179.5,113.06H32.5a3.5,3.5,0,0,0,0,7h147a3.5,3.5,0,0,0,0-7Z" transform="translate(0 -0.03)"/></g></svg>