<svg xmlns="http://www.w3.org/2000/svg" viewBox="0 0 206 140"><defs><style>.cls-1{isolation:isolate;}.cls-2{fill:#e1eff2;}.cls-3{fill:#c5e0e4;}</style></defs><title>calendar-mock-blue-right</title><g id="Rounded_Rectangle_14_copy" data-name="Rounded Rectangle 14 copy" class="cls-1"><g id="Rounded_Rectangle_14_copy-2" data-name="Rounded Rectangle 14 copy"><path class="cls-2" d="M20,.06a20,20,0,0,0-20,20v100a20,20,0,0,0,20,20H186a20,20,0,0,0,20-20V.06Z" transform="translate(0 -0.06)"/></g></g><g id="Ellipse_7_copy" data-name="Ellipse 7 copy" class="cls-1"><g id="Ellipse_7_copy-2" data-name="Ellipse 7 copy"><ellipse class="cls-3" cx="151" cy="39.5" rx="27" ry="21.5"/></g></g><g id="Rounded_Rectangle_15_copy_3" data-name="Rounded Rectangle 15 copy 3" class="cls-1"><g id="Rounded_Rectangle_15_copy_3-2" data-name="Rounded Rectangle 15 copy 3"><path class="cls-3" d="M173.5,73.06h-97a3.5,3.5,0,0,0,0,7h97a3.5,3.5,0,0,0,0-7Z" transform="translate(0 -0.06)"/></g></g><g id="Rounded_Rectangle_15_copy_3-3" data-name="Rounded Rectangle 15 copy 3" class="cls-1"><g id="Rounded_Rectangle_15_copy_3-4" data-name="Rounded Rectangle 15 copy 3"><path class="cls-3" d="M173.5,93.06H46.5a3.5,3.5,0,0,0,0,7h127a3.5,3.5,0,0,0,0-7Z" transform="translate(0 -0.06)"/></g></g><g id="Rounded_Rectangle_15_copy_3-5" data-name="Rounded Rectangle 15 copy 3" class="cls-1"><g id="Rounded_Rectangle_15_copy_3-6" data-name="Rounded Rectangle 15 copy 3"><path class="cls-3" d="M173.5,113.06H26.5a3.5,3.5,0,0,0,0,7h147a3.5,3.5,0,0,0,0-7Z" transform="translate(0 -0.06)"/></g></g></svg>