<?xml version="1.0" encoding="utf-8"?>
<!-- Generator: Adobe Illustrator 25.4.1, SVG Export Plug-In . SVG Version: 6.00 Build 0)  -->
<svg version="1.1" id="Layer_1" xmlns="http://www.w3.org/2000/svg" xmlns:xlink="http://www.w3.org/1999/xlink" x="0px" y="0px"
	 viewBox="0 0 851.16 630.97" style="enable-background:new 0 0 851.16 630.97;" xml:space="preserve">
<style type="text/css">
	.st0{fill:none;stroke:#C2D4E1;stroke-width:2;stroke-linecap:round;stroke-linejoin:round;stroke-dasharray:4,8;}
	.st1{fill:#FFFFFF;}
	.st2{fill:none;stroke:#2E3192;}
	.st3{fill:none;stroke:#D7D7D7;}
	.st4{fill:#FF5A5F;}
	.st5{clip-path:url(#SVGID_00000077288313788305183950000014820846249917404835_);}
	.st6{clip-path:url(#SVGID_00000002375887163380456770000006566575139060900528_);}
	.st7{fill:#273B7D;}
	.st8{fill:#499FDD;}
	.st9{clip-path:url(#SVGID_00000124851103835778780780000016390601351844347831_);}
	.st10{clip-path:url(#SVGID_00000176022850899134109110000001244184314672328323_);}
	.st11{clip-path:url(#SVGID_00000132060330231468230740000017922509574955669911_);}
	.st12{clip-path:url(#SVGID_00000080886625265319691390000016831669722986714542_);}
	.st13{clip-path:url(#SVGID_00000152234283775502473490000018433014037219243455_);}
	.st14{fill:#072F54;}
	.st15{fill:#FBC108;}
	.st16{fill:#FF7346;}
	.st17{display:none;}
	.st18{display:inline;fill-rule:evenodd;clip-rule:evenodd;fill:#2e3192;}
	.st19{display:inline;fill-rule:evenodd;clip-rule:evenodd;fill:#FA4B57;}
	.st20{fill:#FF00FF;}
	.st21{fill:#2E3192;}
	.st22{fill:#00FFFF;}
</style>
<g>
	<path class="st0" d="M439.93,215.99c0,0,3.97-37.92,53.03-35s52.03-106,52.03-106"/>
	<path class="st0" d="M481.96,326.98c0,0,42.52,37.05,96.05,29"/>
	<path class="st0" d="M412.92,359.98c0,0,11.62,49.1-28.02,60s-55.71,81.26-36.02,149.99"/>
	<path class="st0" d="M343.88,290.98c0,0-30.09,85.01-67.04,57"/>
	<circle class="st1" cx="417.92" cy="287.98" r="74.05"/>
	<circle class="st2" cx="417.92" cy="287.98" r="74.05"/>
	<path class="st1" d="M416.91,0h261.16c5.52,0,10,4.48,10,10v57c0,5.52-4.48,10-10,10H416.91c-5.52,0-10-4.48-10-10V10
		C406.91,4.48,411.38,0,416.91,0z"/>
	<path class="st3" d="M416.91,0h261.16c5.52,0,10,4.48,10,10v57c0,5.52-4.48,10-10,10H416.91c-5.52,0-10-4.48-10-10V10
		C406.91,4.48,411.38,0,416.91,0z"/>
	<path class="st1" d="M580,315.97h261.16c5.52,0,10,4.48,10,10v57c0,5.52-4.48,10-10,10H580c-5.52,0-10-4.48-10-10v-57
		C570,320.45,574.48,315.97,580,315.97z"/>
	<path class="st3" d="M580,315.97h261.16c5.52,0,10,4.48,10,10v57c0,5.52-4.48,10-10,10H580c-5.52,0-10-4.48-10-10v-57
		C570,320.45,574.48,315.97,580,315.97z"/>
	<path class="st1" d="M247,553.97h261.16c5.52,0,10,4.48,10,10v57c0,5.52-4.48,10-10,10H247c-5.52,0-10-4.48-10-10v-57
		C237,558.45,241.48,553.97,247,553.97z"/>
	<path class="st3" d="M247,553.97h261.16c5.52,0,10,4.48,10,10v57c0,5.52-4.48,10-10,10H247c-5.52,0-10-4.48-10-10v-57
		C237,558.45,241.48,553.97,247,553.97z"/>
	<path class="st1" d="M10,297.97h261.16c5.52,0,10,4.48,10,10v57c0,5.52-4.48,10-10,10H10c-5.52,0-10-4.48-10-10v-57
		C0,302.45,4.48,297.97,10,297.97z"/>
	<path class="st3" d="M10,297.97h261.16c5.52,0,10,4.48,10,10v57c0,5.52-4.48,10-10,10H10c-5.52,0-10-4.48-10-10v-57
		C0,302.45,4.48,297.97,10,297.97z"/>
</g>
<path class="st4" d="M145.21,324.19c0,1.75-1.42,3.17-3.16,3.17s-3.17-1.42-3.17-3.16c0-1.75,1.42-3.17,3.16-3.17c0,0,0,0,0,0
	c1.74,0,3.16,1.41,3.16,3.15C145.21,324.18,145.21,324.19,145.21,324.19z M132.16,330.57v0.78c-1.21-1.31-2.94-2.02-4.72-1.95
	c-5.32,0.11-9.55,4.51-9.44,9.84c0.11,5.17,4.27,9.34,9.44,9.44c1.8,0.09,3.53-0.65,4.72-2v0.83c-0.01,0.37,0.28,0.67,0.65,0.68
	c0.01,0,0.02,0,0.03,0h3.94v-18.3h-3.94C132.47,329.9,132.17,330.2,132.16,330.57z M132.16,342.3c-0.92,1.26-2.38,2.01-3.94,2
	c-3.12,0-5.5-1.95-5.5-5.26s2.39-5.26,5.5-5.26c1.56,0.01,3.01,0.75,3.94,2V342.3z M139.71,329.89h4.67v18.31h-4.67V329.89z
	 M209.53,329.4c-1.78-0.08-3.51,0.64-4.72,1.95v-10.27h-4.68v27.13h3.94c0.37-0.01,0.67-0.31,0.68-0.68v-0.83l0,0
	c1.2,1.34,2.93,2.07,4.72,2c5.32-0.12,9.55-4.53,9.43-9.86C218.8,333.7,214.67,329.55,209.53,329.4L209.53,329.4z M208.75,344.25
	c-1.56,0.02-3.04-0.73-3.94-2v-6.52c0.96-1.21,2.4-1.94,3.94-2c3.12,0,5.5,1.95,5.5,5.26S211.87,344.25,208.75,344.25L208.75,344.25
	z M197.7,337.34v10.91h-4.67v-10.37c0-3.02-0.97-4.24-3.6-4.24c-1.46,0.04-2.84,0.69-3.8,1.8v12.76h-4.68v-18.31h3.7
	c0.37,0.01,0.67,0.31,0.68,0.68v0.78c1.32-1.31,3.11-2.01,4.97-1.95c1.86-0.06,3.68,0.56,5.11,1.75
	C197.07,332.52,197.7,334.27,197.7,337.34z M169.61,329.4c-1.78-0.08-3.51,0.64-4.72,1.95v-10.27h-4.67v27.13h3.94
	c0.37-0.01,0.67-0.31,0.68-0.68v-0.83l0,0c1.2,1.34,2.93,2.07,4.72,2c5.32-0.12,9.55-4.53,9.43-9.86
	C178.87,333.7,174.75,329.55,169.61,329.4L169.61,329.4z M168.83,344.25c-1.56,0.02-3.04-0.73-3.94-2v-6.52
	c0.96-1.21,2.4-1.94,3.94-2c3.12,0,5.5,1.95,5.5,5.26S171.94,344.25,168.83,344.25L168.83,344.25z M156.17,329.4
	c0.72-0.02,1.44,0.06,2.14,0.24v4.33c0,0-3.9-1.31-6.33,1.46v12.81h-4.67v-18.36h3.94c0.37,0.01,0.67,0.31,0.68,0.68v0.78
	C153.05,330.19,154.56,329.49,156.17,329.4z M107.62,346.54c-0.24-0.58-0.49-1.22-0.73-1.75c-0.39-0.88-0.78-1.7-1.12-2.48
	l-0.05-0.05c-3.36-7.3-6.96-14.7-10.76-22.01l-0.15-0.29c-0.39-0.73-0.78-1.51-1.17-2.29c-0.48-0.96-1.07-1.86-1.75-2.68
	c-1.49-1.9-3.77-3.02-6.18-3.02c-2.41,0.01-4.69,1.08-6.23,2.92c-0.67,0.84-1.25,1.73-1.75,2.68c-0.39,0.78-0.78,1.56-1.17,2.29
	l-0.15,0.29c-3.75,7.3-7.4,14.7-10.76,22.01l-0.05,0.1c-0.34,0.78-0.73,1.61-1.12,2.48c-0.24,0.53-0.49,1.12-0.73,1.75
	c-0.62,1.68-0.82,3.48-0.58,5.26c0.53,3.62,2.94,6.7,6.33,8.08c1.25,0.52,2.59,0.79,3.94,0.78c0.42-0.01,0.85-0.04,1.27-0.1
	c1.72-0.22,3.37-0.78,4.87-1.66c2.27-1.35,4.31-3.06,6.04-5.06c1.74,1.99,3.78,3.7,6.04,5.06c1.5,0.87,3.15,1.44,4.87,1.66
	c0.42,0.06,0.84,0.09,1.27,0.1c1.35,0.02,2.7-0.25,3.94-0.78c3.39-1.38,5.8-4.46,6.33-8.08
	C108.42,350.01,108.27,348.2,107.62,346.54L107.62,346.54z M85.66,349.07c-2.63-3.31-4.33-6.43-4.92-9.06
	c-0.24-0.97-0.29-1.98-0.15-2.97c0.1-0.73,0.36-1.43,0.78-2.04c0.99-1.37,2.59-2.17,4.29-2.14c1.7-0.06,3.32,0.74,4.28,2.14
	c0.42,0.61,0.68,1.31,0.78,2.05c0.14,0.99,0.09,2-0.15,2.97C90,342.6,88.29,345.71,85.66,349.07L85.66,349.07z M105.09,351.36
	c-0.36,2.55-2.04,4.73-4.43,5.7c-1.17,0.48-2.45,0.64-3.7,0.49c-1.31-0.16-2.57-0.59-3.7-1.27c-2.09-1.27-3.97-2.86-5.55-4.72
	c3.21-3.94,5.16-7.55,5.89-10.76c0.32-1.36,0.4-2.76,0.24-4.14c-0.18-1.19-0.63-2.32-1.31-3.31c-1.57-2.22-4.15-3.51-6.87-3.46
	c-2.71-0.04-5.28,1.25-6.86,3.46c-0.68,0.99-1.13,2.12-1.32,3.31c-0.21,1.38-0.12,2.79,0.24,4.14c0.73,3.21,2.73,6.86,5.89,10.81
	c-1.57,1.87-3.45,3.47-5.55,4.72c-1.13,0.67-2.39,1.1-3.7,1.27c-1.25,0.14-2.52-0.03-3.7-0.49c-2.39-0.97-4.08-3.15-4.43-5.7
	c-0.16-1.28-0.01-2.59,0.44-3.8c0.15-0.49,0.39-0.97,0.63-1.56c0.34-0.78,0.73-1.61,1.12-2.43l0.05-0.1
	c3.36-7.26,6.96-14.66,10.71-21.86l0.15-0.29c0.39-0.73,0.78-1.51,1.17-2.24c0.37-0.77,0.83-1.49,1.36-2.14
	c1.83-2.15,5.06-2.41,7.21-0.58c0.21,0.18,0.41,0.37,0.58,0.58c0.54,0.66,1,1.38,1.36,2.14c0.39,0.73,0.78,1.51,1.17,2.24l0.15,0.29
	c3.7,7.26,7.3,14.66,10.66,21.91v0.05c0.39,0.78,0.73,1.66,1.12,2.43c0.24,0.58,0.49,1.07,0.63,1.56
	C105.16,348.81,105.27,350.1,105.09,351.36z"/>
<g>
	<defs>
		<rect id="SVGID_1_" x="449.66" y="21.46" width="197" height="33.43"/>
	</defs>
	<clipPath id="SVGID_00000066494822082464009050000016610876199731012791_">
		<use xlink:href="#SVGID_1_"  style="overflow:visible;"/>
	</clipPath>
	<g style="clip-path:url(#SVGID_00000066494822082464009050000016610876199731012791_);">
		<g>
			<defs>
				<rect id="SVGID_00000054978554545061844640000014415937872654229404_" x="449.66" y="21.46" width="197" height="33.43"/>
			</defs>
			<clipPath id="SVGID_00000100351026955246943640000016267634551466604705_">
				<use xlink:href="#SVGID_00000054978554545061844640000014415937872654229404_"  style="overflow:visible;"/>
			</clipPath>
			<g style="clip-path:url(#SVGID_00000100351026955246943640000016267634551466604705_);">
				<g>
					<path class="st7" d="M526.91,25.12c0-1.65,1.35-2.99,3-2.99c1.65,0,2.99,1.35,2.99,3c0,1.65-1.35,2.99-3,2.99
						C528.24,28.11,526.91,26.77,526.91,25.12"/>
					<path class="st8" d="M574.14,45.08c0-1.65,1.35-2.99,3-2.99c1.65,0,2.99,1.35,2.99,3c0,1.65-1.35,2.99-3,2.99
						C575.48,48.07,574.14,46.73,574.14,45.08"/>
					<path class="st7" d="M477.78,43.78c-2.58,0-4.37-2.05-4.37-4.97s1.79-4.97,4.37-4.97c2.59,0,4.4,2.05,4.4,4.97
						C482.19,41.78,480.41,43.78,477.78,43.78z M477.78,29.47c-5.01-0.19-9.22,3.71-9.41,8.72c-0.01,0.21-0.01,0.42,0,0.63
						c0,5.21,4.22,9.43,9.43,9.43s9.43-4.22,9.43-9.43c0.14-5.02-3.81-9.2-8.82-9.35C478.2,29.46,477.99,29.46,477.78,29.47"/>
					<path class="st7" d="M521.11,39.28c-0.19-0.36-0.43-0.7-0.71-1l-0.16-0.17l0.17-0.17c0.28-0.29,0.53-0.61,0.75-0.94l4.81-7.16
						h-5.84l-3.62,5.6c-0.31,0.35-0.77,0.51-1.24,0.45h-0.83V25.3c0-2.12-1.32-2.4-2.74-2.4h-2.44v24.98h5.18v-7.49h0.49
						c0.59,0,0.99,0.07,1.18,0.39l2.86,5.39c0.52,1.21,1.79,1.92,3.09,1.71h3.97l-2.96-4.89L521.11,39.28"/>
					<path class="st7" d="M546.25,29.43c-1.98-0.05-3.88,0.73-5.26,2.16l-0.31,0.32l-0.11-0.43c-0.35-1.11-1.46-1.81-2.61-1.64
						h-2.32l0.02,18.04h5.14v-8.32c-0.01-0.73,0.1-1.46,0.32-2.16c0.49-1.89,2.21-3.19,4.16-3.16c1.61,0,2.23,0.85,2.23,3.04v7.86
						c0,1.87,0.86,2.74,2.73,2.74h2.45l-0.01-11.47C552.68,31.84,550.46,29.43,546.25,29.43"/>
					<path class="st7" d="M529.97,29.84h-2.44l0.02,13.95l0,0v4.09h2.6c0.03,0,0.06,0,0.09,0h1.21h1.21v-0.01h0.01l0.01-15.29
						C532.67,30.73,531.79,29.84,529.97,29.84"/>
					<path class="st7" d="M497.98,43.78c-2.58,0-4.37-2.05-4.37-4.97s1.8-4.97,4.37-4.97s4.4,2.05,4.4,4.97
						C502.38,41.78,500.61,43.78,497.98,43.78z M497.98,29.47c-5.01-0.19-9.22,3.71-9.42,8.71c-0.01,0.21-0.01,0.42,0,0.63
						c0,5.21,4.23,9.43,9.44,9.43c5.21,0,9.42-4.22,9.43-9.43c0.14-5.02-3.81-9.2-8.84-9.35C498.39,29.46,498.19,29.46,497.98,29.47
						"/>
				</g>
			</g>
		</g>
		<g>
			<defs>
				<rect id="SVGID_00000160879523127959421840000003687080888277719990_" x="449.66" y="21.46" width="197" height="33.43"/>
			</defs>
			<clipPath id="SVGID_00000009581636562091994350000000179997509883158167_">
				<use xlink:href="#SVGID_00000160879523127959421840000003687080888277719990_"  style="overflow:visible;"/>
			</clipPath>
			<g style="clip-path:url(#SVGID_00000009581636562091994350000000179997509883158167_);">
				<g>
					<defs>
						<rect id="SVGID_00000008831857682655312580000001367978292396010373_" x="449.66" y="22.11" width="196.96" height="32.72"/>
					</defs>
					<clipPath id="SVGID_00000025426301357799025680000001395714018991751572_">
						<use xlink:href="#SVGID_00000008831857682655312580000001367978292396010373_"  style="overflow:visible;"/>
					</clipPath>
					<g style="clip-path:url(#SVGID_00000025426301357799025680000001395714018991751572_);">
						<g>
							<defs>
								<rect id="SVGID_00000056419914008787330930000005760620718759233972_" x="449.66" y="21.46" width="197" height="33.43"/>
							</defs>
							<clipPath id="SVGID_00000013900193282051646660000006670420091639033773_">
								<use xlink:href="#SVGID_00000056419914008787330930000005760620718759233972_"  style="overflow:visible;"/>
							</clipPath>
							<g style="clip-path:url(#SVGID_00000013900193282051646660000006670420091639033773_);">
								<g>
									<path class="st8" d="M608.21,43.78c-2.58,0-4.37-2.05-4.37-4.97s1.8-4.97,4.37-4.97s4.4,2.05,4.4,4.97
										C612.61,41.78,610.84,43.78,608.21,43.78z M608.21,29.47c-5.01-0.19-9.22,3.71-9.41,8.72c-0.01,0.21-0.01,0.42,0,0.63
										c0.05,5.21,4.32,9.39,9.53,9.34c5.13-0.05,9.28-4.2,9.34-9.34c0.14-5.02-3.81-9.2-8.83-9.35
										C608.62,29.46,608.41,29.46,608.21,29.47"/>
									<path class="st7" d="M563.52,42.99c-2.81,0-3.81-2.45-3.81-4.75c0-1.01,0.26-4.31,3.54-4.31c1.63,0,3.81,0.47,3.81,4.48
										C567.06,42.19,565.14,42.99,563.52,42.99z M569.73,29.79c-0.85-0.07-1.67,0.36-2.1,1.1l-0.14,0.28l-0.24-0.21
										c-1.33-1.09-3.02-1.65-4.74-1.57c-4.81,0-8.04,3.61-8.04,8.99s3.35,9.12,8.14,9.12c1.41,0.07,2.8-0.34,3.96-1.16l0.4-0.3
										v0.5c0,2.41-1.56,3.74-4.38,3.74c-1.18-0.01-2.35-0.23-3.46-0.64c-0.76-0.38-1.67-0.07-2.05,0.69
										c-0.06,0.11-0.1,0.23-0.12,0.35l-0.41,1.01l-0.58,1.47l0.36,0.19c1.95,0.99,4.1,1.52,6.29,1.53c4.38,0,9.49-2.24,9.49-8.55
										l0.02-16.55L569.73,29.79"/>
								</g>
							</g>
						</g>
					</g>
				</g>
				<g>
					<defs>
						<rect id="SVGID_00000139996445285921776860000013197892432533691305_" x="449.66" y="21.46" width="197" height="33.43"/>
					</defs>
					<clipPath id="SVGID_00000047772209665156565240000003379690044460553657_">
						<use xlink:href="#SVGID_00000139996445285921776860000013197892432533691305_"  style="overflow:visible;"/>
					</clipPath>
					<g style="clip-path:url(#SVGID_00000047772209665156565240000003379690044460553657_);">
						<g>
							<defs>
								<rect id="SVGID_00000182491753240827179310000003808924766823459457_" x="449.66" y="21.46" width="197" height="33.43"/>
							</defs>
							<clipPath id="SVGID_00000148624403902776684110000009578031620873172610_">
								<use xlink:href="#SVGID_00000182491753240827179310000003808924766823459457_"  style="overflow:visible;"/>
							</clipPath>
							<g style="clip-path:url(#SVGID_00000148624403902776684110000009578031620873172610_);">
								<g>
									<path class="st7" d="M458.63,43.57h-4.19v-5c0-1.07,0.41-1.63,1.33-1.75h2.86c1.72-0.13,3.23,1.16,3.36,2.89
										c0.01,0.16,0.01,0.32,0,0.48c0.16,1.71-1.1,3.23-2.81,3.4C458.99,43.6,458.81,43.6,458.63,43.57L458.63,43.57z
										 M454.45,30.07v-1.32c0-1.15,0.49-1.7,1.56-1.77h2.14c1.48-0.14,2.8,0.96,2.94,2.44c0.02,0.17,0.02,0.33,0,0.5
										c0.14,1.53-0.99,2.89-2.52,3.03c-0.11,0.01-0.23,0.01-0.34,0.01h-3.77L454.45,30.07L454.45,30.07z M463.98,35.07
										l-0.76-0.43l0.66-0.56c1.35-1.19,2.11-2.91,2.06-4.71c0-3.93-3.05-6.46-7.76-6.46h-5.99c-1.4,0.05-2.52,1.19-2.53,2.59
										v22.28h2.47h0.01h6.15c5.24,0,8.62-2.85,8.62-7.27C467,38.3,465.87,36.21,463.98,35.07"/>
									<path class="st8" d="M640.63,29.48c-2.15,0.01-4.18,0.99-5.52,2.68l-0.37,0.47l-0.29-0.53c-0.97-1.75-2.87-2.77-4.87-2.62
										c-1.81,0.02-3.52,0.79-4.74,2.13l-0.49,0.53l-0.19-0.69c-0.35-1.06-1.41-1.71-2.51-1.55h-2.16l-0.02,17.97h4.91v-7.93
										c0-0.71,0.09-1.41,0.26-2.1c0.47-1.92,1.76-3.98,3.92-3.77c1.34,0.13,1.99,1.16,1.99,3.15v10.65h4.95v-7.93
										c-0.02-0.73,0.07-1.46,0.28-2.17c0.4-1.83,1.74-3.71,3.83-3.71c1.51,0,2.07,0.86,2.07,3.16v8.03
										c0,1.82,0.81,2.63,2.62,2.63h2.31V36.39C646.61,31.81,644.59,29.48,640.63,29.48"/>
									<path class="st8" d="M595.94,41.63c-1.31,1.33-3.05,2.12-4.91,2.25c-2.65,0.17-4.93-1.84-5.1-4.48
										c-0.01-0.18-0.01-0.36,0-0.54c-0.19-2.62,1.78-4.89,4.4-5.08c0.14-0.01,0.29-0.01,0.43-0.01c0.92,0,1.97,0.33,2.14,0.89
										l0.02,0.09c0.22,0.79,0.93,1.33,1.75,1.33h2.69v-2.35c0-3.1-3.95-4.23-6.6-4.23c-5.68,0-9.8,3.95-9.8,9.4
										s4.08,9.39,9.69,9.39c2.86,0.03,5.6-1.15,7.55-3.24l0.14-0.17l-2.13-3.53L595.94,41.63"/>
								</g>
							</g>
						</g>
					</g>
				</g>
			</g>
		</g>
	</g>
</g>
<g>
	<path class="st14" d="M373.99,608.7h-5.9c-0.02,0-0.04-0.01-0.06-0.02l-5.08-6.21l-5.09,6.21c-0.01,0.02-0.03,0.03-0.05,0.02h-4.73
		c-0.03,0-0.06-0.02-0.07-0.04c-0.01-0.02-0.01-0.05,0.01-0.07l7.49-9.2l-7.4-9.11c-0.02-0.03-0.02-0.06-0.01-0.09
		c0.02-0.02,0.04-0.04,0.07-0.04h5.9c0.02,0,0.04,0.02,0.05,0.04l4.46,5.53l4.54-5.53c0.01-0.02,0.03-0.03,0.05-0.03h4.81
		c0.03,0,0.05,0.02,0.07,0.04c0.01,0.03,0.01,0.06-0.01,0.09l-7.03,8.44l8.03,9.87c0.02,0.02,0.03,0.05,0.01,0.07
		C374.04,608.68,374.02,608.7,373.99,608.7"/>
	<path class="st14" d="M405.93,593.41c-2.61,0-4.4,1.59-4.91,4.34h8.89v-0.18c0.07-2.23-1.67-4.09-3.9-4.16
		C405.98,593.41,405.96,593.41,405.93,593.41 M414.5,600.58c-0.01,0.02-0.04,0.03-0.06,0.03h-13.51c0.28,3.15,2.32,4.94,5.63,4.94
		c2.04,0,4.2-0.7,7.25-2.32c0.04-0.02,0.08-0.01,0.1,0.03c0.01,0.01,0.01,0.03,0.01,0.04l-0.01,4.16c0,0.03-0.02,0.05-0.04,0.06
		c-2.5,1.16-5.19,1.84-7.94,2.01c-5.57,0-10.07-4.52-10.07-10.09c0-5.56,4.51-10.06,10.07-10.07c5.31,0,8.72,3.58,8.72,8.49
		C414.64,598.67,414.51,600.52,414.5,600.58"/>
	<path class="st14" d="M441.93,586.3c-1.64,0.01-2.99-1.32-3-2.96c0-1.66,1.34-3.01,3-3.01s3.01,1.34,3.01,3c0,0,0,0.01,0,0.01
		C444.93,584.99,443.59,586.31,441.93,586.3 M439.51,608.7c-0.04,0-0.07-0.03-0.08-0.07c0,0,0-0.01,0-0.01v-18.41
		c0-0.04,0.02-0.07,0.06-0.07h4.88c0.04,0.01,0.06,0.04,0.06,0.07v18.41c0,0.04-0.03,0.07-0.06,0.08c0,0,0,0-0.01,0L439.51,608.7z"
		/>
	<path class="st14" d="M382.91,605.92c-0.95-0.01-1.9-0.14-2.82-0.4l0.01-11.81c1.07-0.36,2.19-0.55,3.31-0.57
		c3.38,0,5.65,2.5,5.65,6.2C389.07,603.35,386.65,605.93,382.91,605.92 M384.24,589.39c-1.44,0.01-2.87,0.27-4.23,0.75h-4.86
		c-0.04,0-0.07,0.04-0.07,0.07c0,0,0,0,0,0v30.18c1.8-0.24,3.52-0.91,5.01-1.97v-9.18c1.04,0.17,2.09,0.26,3.14,0.28
		c6.65,0,10.95-3.98,10.95-10.16c0.26-5.26-3.8-9.74-9.07-10C384.83,589.37,384.53,589.37,384.24,589.39"/>
	<path class="st14" d="M430.63,604.4c-1.27,0.73-2.69,1.13-4.15,1.18c-3.01,0-4.82-2.13-4.82-5.69c0-4.12,2.3-6.79,5.87-6.79
		c1.08,0.03,2.14,0.29,3.1,0.77L430.63,604.4z M430.63,580.4v9.64c-1.28-0.38-2.61-0.58-3.95-0.59c-5.48-0.13-10.03,4.22-10.15,9.7
		c0,0.15,0,0.3,0,0.45c0,5.77,3.85,9.95,9.15,9.95c1.95-0.03,3.87-0.54,5.58-1.5v1.66c1.58-0.3,3.07-0.93,4.38-1.86v-29.43
		C433.83,578.64,432.11,579.32,430.63,580.4"/>
	<path class="st14" d="M461.33,604.36c-1.15,0.75-2.48,1.18-3.86,1.26c-3.22,0-5.16-2.12-5.16-5.7c0-4.06,2.27-6.79,5.66-6.79
		c1.19,0.08,2.34,0.45,3.35,1.06V604.36z M466.35,589.91c0-0.11-0.1-0.2-0.21-0.2h-3.94c-0.12,0-0.21,0.1-0.21,0.21v0.67h-0.1
		c-1.53-0.73-3.2-1.13-4.9-1.17c-5.45,0-9.73,4.52-9.73,10.32c0,5.86,3.83,9.79,9.52,9.79c2.02,0.17,4-0.66,5.31-2.21v2.37
		c1.54-0.32,2.99-0.96,4.27-1.87L466.35,589.91z"/>
	<path class="st14" d="M339.58,604.09l12.25-0.01c-0.22,1.64-0.8,3.21-1.71,4.6h-12.74c-1.55-0.01-2.84-1.19-2.99-2.73
		c-0.01-0.02-0.01-0.04-0.02-0.07v-24.15c0-0.02,0.01-0.04,0.02-0.06c0.15-1.55,1.44-2.73,2.99-2.74c0.05,0,0.1,0,0.14,0h14.28
		c-0.22,1.65-0.8,3.24-1.71,4.64h-10.51v6.58h10.4c0.04,0,0.07,0.03,0.07,0.07c0,0,0,0,0,0.01v4.56c0,0.04-0.03,0.07-0.07,0.07h0
		h-10.4L339.58,604.09L339.58,604.09z"/>
	<path class="st14" d="M324.25,609.07c-1.16,0.09-2.18-0.78-2.27-1.94s0.78-2.18,1.94-2.27c1.16-0.09,2.18,0.78,2.27,1.94
		c0,0.06,0.01,0.11,0.01,0.17c0.08,1.08-0.73,2.02-1.81,2.09C324.33,609.07,324.29,609.07,324.25,609.07 M324.25,604.63
		c-1.29-0.03-2.36,1-2.39,2.29c-0.03,1.29,1,2.36,2.29,2.39c1.29,0.03,2.36-1,2.39-2.29c0-0.02,0-0.03,0-0.05
		c0.04-1.25-0.94-2.3-2.19-2.34C324.31,604.63,324.28,604.63,324.25,604.63"/>
	<path class="st14" d="M323.7,606.78v-0.85h0.58c0.29,0,0.64,0.04,0.64,0.4c0,0.42-0.32,0.46-0.68,0.46L323.7,606.78z
		 M325.34,606.38c0-0.56-0.34-0.79-1.01-0.79h-1.05v2.77h0.46v-1.18h0.42l0.72,1.18h0.52l-0.78-1.22c0.39,0.01,0.72-0.3,0.73-0.69
		C325.34,606.42,325.34,606.4,325.34,606.38"/>
	<path class="st14" d="M470.37,593.2c-1.16,0.09-2.18-0.78-2.27-1.94s0.78-2.18,1.94-2.27c1.16-0.09,2.18,0.78,2.27,1.94
		c0,0.06,0.01,0.11,0.01,0.17c0.08,1.08-0.74,2.02-1.82,2.1C470.46,593.2,470.41,593.2,470.37,593.2 M470.37,588.76
		c-1.25-0.02-2.28,0.98-2.3,2.23c0,0.04,0,0.07,0,0.11c0.03,1.27,1.07,2.27,2.34,2.24c1.27-0.03,2.27-1.07,2.24-2.34
		C472.63,589.75,471.62,588.76,470.37,588.76"/>
	<path class="st14" d="M469.82,590.9v-0.85h0.58c0.29,0,0.63,0.04,0.63,0.4c0,0.42-0.32,0.46-0.68,0.46L469.82,590.9z M471.46,590.5
		c0-0.56-0.34-0.8-1.01-0.8h-1.05v2.77h0.45v-1.18h0.43l0.72,1.18h0.51l-0.77-1.22c0.39,0.01,0.72-0.3,0.73-0.69
		C471.46,590.54,471.46,590.52,471.46,590.5"/>
	<path class="st14" d="M308.45,583.55l-0.89-2.51l-7.53-10.07l1.35-0.34l12.99,11.23l7.64-2.19c0.89-0.2,1.79-0.3,2.7-0.28
		c-5.13-11.04-18.24-15.84-29.29-10.7c-8.88,4.12-13.97,13.61-12.51,23.28l18.31-6.36L308.45,583.55z"/>
	<path class="st14" d="M325.51,581.38c-0.82,0.55-1.7,0.99-2.64,1.32l-7.66,2.19l-5.11,16.41l-1.33,0.43l1.08-12.53l-0.6-2.6
		l-7.18,2.05l-18.97,4.47c2.43,11.93,14.07,19.63,26.01,17.2s19.63-14.07,17.2-26.01C326.12,583.32,325.85,582.34,325.51,581.38"/>
	<path class="st15" d="M309.26,586.6l0.61,2.6l-1.08,12.53l1.33-0.43l5.11-16.4l7.66-2.19c0.93-0.33,1.81-0.77,2.64-1.32
		c-0.23-0.67-0.51-1.34-0.8-1.98c-0.91-0.02-1.81,0.07-2.7,0.28l-7.64,2.19l-12.99-11.24l-1.35,0.34l7.53,10.07l0.89,2.51
		l-7.24,2.07l-18.31,6.36c0.06,0.38,0.12,0.76,0.2,1.13l18.97-4.47L309.26,586.6z"/>
</g>
<g>
	<path class="st16" d="M742.51,357.52h-6.03v-9.35c0-0.19-0.15-0.34-0.34-0.34l0,0h-3.85c-0.19,0-0.34,0.15-0.34,0.34c0,0,0,0,0,0
		v12.88c0,0.19,0.15,0.34,0.34,0.34h10.23c0.19,0,0.34-0.15,0.34-0.34v-3.19C742.85,357.67,742.7,357.52,742.51,357.52
		C742.51,357.52,742.51,357.52,742.51,357.52z M786.18,352.96c0,0.83-0.66,1.32-1.74,1.32h-1.96v-2.65h1.98
		c1.05,0,1.73,0.43,1.73,1.3L786.18,352.96L786.18,352.96z M788.24,357.1c-0.11-0.16-0.07-0.37,0.09-0.48c0,0,0,0,0,0l0.02-0.02
		c1.48-0.76,2.39-2.31,2.34-3.97v-0.04c0.06-1.2-0.39-2.37-1.24-3.22c-0.95-0.95-2.48-1.55-4.89-1.55h-6.29
		c-0.19,0-0.34,0.15-0.34,0.34c0,0,0,0,0,0l0,0v12.88c0,0.19,0.15,0.34,0.34,0.34h3.85c0.19,0,0.34-0.15,0.34-0.34v-3.53h0.97
		l2.46,3.72c0.06,0.1,0.17,0.16,0.29,0.15h4.34c0.19,0,0.34-0.16,0.34-0.35c0-0.07-0.02-0.14-0.06-0.19L788.24,357.1L788.24,357.1z
		 M772.22,354.65c0.09,1.58-1.12,2.93-2.69,3.02c-0.04,0-0.08,0-0.12,0c-1.6-0.03-2.88-1.34-2.85-2.95c0-0.04,0-0.08,0-0.11v-0.04
		c-0.09-1.58,1.12-2.93,2.7-3.02c0.04,0,0.08,0,0.11,0c1.6,0.03,2.88,1.34,2.85,2.95c0,0.04,0,0.08,0,0.12V354.65z M769.41,347.53
		c-3.97-0.13-7.29,2.97-7.42,6.94c0,0.04,0,0.09,0,0.13v0.04c0.21,4.09,3.7,7.23,7.79,7.02c3.81-0.2,6.84-3.25,7.02-7.06v-0.04
		c-0.04-3.93-3.27-7.08-7.2-7.04C769.54,347.53,769.48,347.53,769.41,347.53z M730.38,357.67h-6.87v-1.47h6.29
		c0.19,0,0.34-0.15,0.34-0.34c0,0,0,0,0,0v-2.59c0-0.19-0.15-0.34-0.34-0.34h-6.29v-1.38h6.77c0.19,0,0.34-0.15,0.34-0.34v-3.03
		c0-0.19-0.15-0.34-0.34-0.34h-10.89c-0.19,0-0.34,0.15-0.34,0.34l0,0v12.88c0,0.19,0.15,0.34,0.34,0.34h10.98
		c0.19,0,0.34-0.15,0.34-0.34v-3.03C730.72,357.83,730.57,357.67,730.38,357.67L730.38,357.67z M802.76,357.52h-6.03v-9.35
		c0-0.19-0.15-0.34-0.34-0.34l0,0h-3.85c-0.19,0-0.34,0.15-0.34,0.34c0,0,0,0,0,0l0,0v12.88c0,0.19,0.15,0.34,0.34,0.34h10.23
		c0.19,0,0.34-0.15,0.34-0.34v-3.19C803.1,357.67,802.95,357.52,802.76,357.52C802.76,357.52,802.76,357.52,802.76,357.52
		L802.76,357.52L802.76,357.52z M762.12,347.83h-3.94c-0.15,0-0.29,0.1-0.33,0.25l-1.54,5.22c-0.05,0.18-0.25,0.29-0.43,0.23
		c-0.11-0.03-0.19-0.11-0.23-0.22l-1.77-5.28c-0.05-0.14-0.18-0.24-0.33-0.23h-3.42c-0.15,0-0.28,0.09-0.33,0.23l-1.77,5.28
		c-0.06,0.18-0.25,0.28-0.43,0.22c-0.11-0.04-0.19-0.12-0.22-0.23l-1.54-5.22c-0.04-0.15-0.18-0.25-0.33-0.25h-4.02
		c-0.19,0-0.34,0.15-0.34,0.34c0,0.04,0.01,0.07,0.02,0.11l4.22,12.98c0.05,0.14,0.18,0.24,0.33,0.24h3.46
		c0.15,0,0.28-0.09,0.32-0.23l1.98-5.6c0.06-0.18,0.26-0.27,0.44-0.21c0.1,0.03,0.18,0.11,0.21,0.21l1.98,5.6
		c0.05,0.14,0.18,0.23,0.33,0.23h3.46c0.15,0,0.28-0.1,0.33-0.24l4.22-12.98c0.06-0.18-0.04-0.37-0.22-0.43
		C762.19,347.83,762.15,347.83,762.12,347.83z M674.84,347.83h-3.85c-0.19,0-0.34,0.15-0.34,0.34c0,0,0,0,0,0l0,0v4.44h-4.15v-4.44
		c0-0.19-0.15-0.34-0.34-0.34c0,0,0,0,0,0h-3.85c-0.19,0-0.34,0.15-0.34,0.34c0,0,0,0,0,0l0,0v12.88c0,0.19,0.15,0.34,0.34,0.34
		h3.85c0.19,0,0.34-0.15,0.34-0.34v-4.52h4.15v4.52c0,0.19,0.15,0.34,0.34,0.34h3.85c0.19,0,0.34-0.15,0.34-0.34v-12.88
		C675.19,347.98,675.03,347.83,674.84,347.83L674.84,347.83z M812.89,354.63c0,1.96-1.34,2.81-3.41,2.81h-0.76v-5.66h0.76
		c2.08,0,3.41,0.85,3.41,2.81V354.63z M809.38,347.83h-4.85c-0.19,0-0.34,0.15-0.34,0.34c0,0,0,0,0,0l0,0v12.88
		c0,0.19,0.15,0.34,0.34,0.34h4.7c5.49,0,8.24-2.85,8.24-6.86v-0.04C817.47,350.48,814.78,347.83,809.38,347.83L809.38,347.83z
		 M698.6,352.63c-1.43-0.27-1.8-0.5-1.8-0.87v-0.04c0-0.33,0.31-0.56,0.99-0.56c1.35,0.02,2.67,0.42,3.81,1.15
		c0.15,0.1,0.36,0.06,0.46-0.09l1.82-2.52c0.11-0.16,0.07-0.37-0.08-0.48l0,0c-1.72-1.17-3.77-1.75-5.85-1.65
		c-3.74,0-5.76,2-5.76,4.57v0.04c0,2.87,2.67,3.74,5.72,4.36c1.45,0.29,1.88,0.5,1.88,0.89v0.04c0,0.37-0.35,0.58-1.16,0.58
		c-1.61,0.01-3.18-0.48-4.5-1.41c-0.15-0.1-0.34-0.07-0.46,0.06l-2,2.38c-0.12,0.15-0.1,0.36,0.04,0.49h0.01
		c1.93,1.42,4.29,2.14,6.69,2.06c3.65,0,5.99-1.74,5.99-4.59v-0.04C704.4,354.27,702.07,353.27,698.6,352.63L698.6,352.63z
		 M717.29,347.83h-11.84c-0.19,0-0.34,0.15-0.34,0.34c0,0,0,0,0,0l0,0v3.15c0,0.19,0.15,0.34,0.34,0.34h3.65v9.39
		c0,0.19,0.15,0.34,0.34,0.34h3.85c0.19,0,0.34-0.15,0.34-0.34v-9.39h3.65c0.19,0,0.34-0.15,0.34-0.34l0,0v-3.15
		C717.64,347.98,717.48,347.83,717.29,347.83C717.29,347.83,717.29,347.83,717.29,347.83L717.29,347.83L717.29,347.83z
		 M686.66,354.65c0.09,1.58-1.11,2.93-2.69,3.02c-0.04,0-0.08,0-0.12,0c-1.6-0.03-2.88-1.34-2.85-2.95c0-0.04,0-0.08,0-0.12v-0.04
		c-0.09-1.58,1.12-2.93,2.7-3.02c0.04,0,0.08,0,0.12,0c1.6,0.03,2.88,1.34,2.85,2.95c0,0.04,0,0.08,0,0.12V354.65z M683.85,347.53
		c-3.97-0.13-7.29,2.97-7.42,6.94c0,0.04,0,0.09,0,0.13v0.04c0.21,4.09,3.69,7.24,7.78,7.03c3.82-0.19,6.86-3.25,7.03-7.07v-0.04
		c-0.04-3.93-3.27-7.08-7.2-7.04C683.97,347.53,683.91,347.53,683.85,347.53L683.85,347.53z"/>
	<path class="st16" d="M652.39,371.47c0,3.59-2.91,6.5-6.5,6.5l0,0h-33.73c-3.59,0-6.5-2.91-6.5-6.5l0,0v-33.72
		c0-3.59,2.91-6.5,6.5-6.5h33.73c3.59,0,6.5,2.91,6.5,6.5V371.47L652.39,371.47z"/>
	<path class="st1" d="M644.32,338.68h-9.35c-0.35,0-0.63,0.28-0.63,0.63v8.35h1.04c0.15,0.01,0.27,0.13,0.27,0.28
		c0,0.06-0.02,0.12-0.06,0.17l-5.99,6.1c-0.19,0.23-0.19,0.57,0,0.8l5.99,6.1c0.04,0.05,0.06,0.11,0.06,0.17
		c0,0.15-0.12,0.27-0.27,0.28h-1.04v8.36c0,0.35,0.28,0.63,0.63,0.63l0,0h9.35c0.35,0,0.63-0.28,0.63-0.63V339.3
		C644.95,338.96,644.67,338.68,644.32,338.68L644.32,338.68z M622.5,348.15L622.5,348.15c-0.11-0.11-0.11-0.29,0-0.4
		c0.05-0.05,0.11-0.08,0.18-0.08h1.03v-8.35c0-0.35-0.28-0.63-0.63-0.63h-9.37c-0.35,0-0.63,0.28-0.63,0.63v30.61
		c0,0.35,0.28,0.63,0.63,0.63h9.37c0.35,0,0.63-0.28,0.63-0.63v-8.36h-1.03c-0.16-0.01-0.28-0.14-0.27-0.3
		c0-0.07,0.03-0.14,0.08-0.18l0,0l5.96-6.07c0.19-0.23,0.19-0.56,0-0.79L622.5,348.15z"/>
</g>
<g class="st17">
	<path class="st18" d="M384.25,260.59l15.43,15.43l-15.43,15.43l-15.43-15.43L384.25,260.59z"/>
	<path class="st19" d="M419.16,260.59l15.43,15.43l-15.43,15.43l-15.43-15.43L419.16,260.59z"/>
	<polygon class="st19" points="454.49,290.9 434.46,310.92 434.58,310.92 419.16,326.35 413.81,321 413.7,321.11 398.98,306.28 
		398.39,305.69 383.66,290.85 398.98,275.42 413.7,290.26 414.29,290.85 419.08,295.68 439.17,275.58 	"/>
	<path class="st18" d="M454.06,260.59l15.43,15.43l-15.43,15.43l-15.43-15.43L454.06,260.59z"/>
</g>
<path class="st20" d="M397.88,278.03l27.92-18.41l-11.36-13.11l-29.79,25.16c-0.67,16-1.33,32-2,48.01
	c5.08-0.22,10.15-0.44,15.23-0.66C397.88,305.35,397.88,291.69,397.88,278.03z"/>
<path class="st21" d="M420.86,301.11c4.02-7.11,6.18-12.73,6.49-16.88c-3.44,1.41-6.88,4.59-10.33,9.53
	c-0.26,0.22-0.43,0.63-0.5,1.22c-0.07,0.6-0.19,1-0.36,1.22c-0.44,0.57-1.08,0.86-1.92,0.86c-1.46,0-3.22-0.71-5.3-2.12
	c-0.88-0.48-1.77-0.97-2.65-1.46c-1.06-0.57-1.61-1.08-1.65-1.52c-0.09-1.01,1.01-2.98,3.31-5.89c2.47-3.09,5.21-5.71,8.21-7.88
	c3.57-2.65,6.75-3.97,9.53-3.97c1.06,0,2.06,0.34,3.01,1.03c0.95,0.68,1.86,1.38,2.75,2.09c3.57,2.47,5.85,4.81,6.82,7.02
	c0.18,0.44,0.26,1.02,0.26,1.72c0,3.09-1.63,8.12-4.9,15.09c-3.08,6.55-6.38,12.25-9.89,17.09l0.14,0c1.35-0.44,3.19-1.08,5.51-1.93
	c0.26-0.13,0.73-0.44,1.39-0.93c0.44-0.31,0.86-0.44,1.26-0.4c0.92,0.11,2.16,1.07,3.72,2.85l5.82-0.2l-1.32-41.71l-14.46-16.68
	l-27.92,18.41v41.45l11.41-0.38c0.19-0.27,0.38-0.55,0.58-0.83C414.59,311.22,418.25,305.61,420.86,301.11z"/>
<path class="st1" d="M432.04,315.68c-0.4-0.04-0.82,0.09-1.26,0.4c-0.66,0.49-1.13,0.79-1.39,0.93c-2.33,0.85-4.16,1.49-5.51,1.93
	l11.88-0.4C434.2,316.74,432.96,315.79,432.04,315.68z"/>
<path class="st22" d="M404.01,327.25c0-0.31,1.88-3.14,5.64-8.5c-3.92,0.09-7.84,0.17-11.77,0.26c-0.03,3.53-0.07,7.05-0.1,10.58
	h7.86c-0.08-0.05-0.16-0.1-0.24-0.16C404.52,328.82,404.05,328.09,404.01,327.25z"/>
<path class="st22" d="M440.09,324.2c0.13,1.28-0.68,2.18-2.45,2.71c-0.57-0.09-1.41-0.07-2.52,0.07c-0.79,0-3.29,0.64-7.48,1.92
	c-0.83,0.23-1.61,0.46-2.37,0.69h32.76l-1.32-50.31l-22.51-25.16c-2.84,1.77-5.68,3.54-8.52,5.31c4.85,5.52,9.71,11.03,14.56,16.55
	c0.44,13.9,0.88,27.8,1.32,41.71c-1.94,0.07-3.87,0.14-5.81,0.2c0.41,0.44,0.85,0.94,1.31,1.51C439,321.77,440,323.37,440.09,324.2z
	"/>
</svg>
