<svg xmlns="http://www.w3.org/2000/svg" viewBox="0 0 20 15.99"><defs><style>.cls-1{isolation:isolate;}.cls-2{fill:#747b83;}</style></defs><title>twitter</title><g id="twitter" class="cls-1"><g id="twitter-2" data-name="twitter"><path class="cls-2" d="M20,1.9a8.34,8.34,0,0,1-2.36.64A4.09,4.09,0,0,0,19.46.3a7.94,7.94,0,0,1-2.61,1,4.15,4.15,0,0,0-5.8-.17A4,4,0,0,0,9.86,5,11.77,11.77,0,0,1,1.4.75,4,4,0,0,0,2.67,6.14,4.05,4.05,0,0,1,.81,5.63v0a4.05,4.05,0,0,0,3.29,4,4,4,0,0,1-1.85.07,4.11,4.11,0,0,0,3.83,2.81A8.32,8.32,0,0,1,1,14.25a8.06,8.06,0,0,1-1-.06A11.75,11.75,0,0,0,6.3,16h0A11.49,11.49,0,0,0,18,4.51c0-.17,0-.34,0-.52A8.31,8.31,0,0,0,20,1.9Z" transform="translate(-0.01 -0.01)"/></g></g></svg>