<svg xmlns="http://www.w3.org/2000/svg" viewBox="0 0 22 22"><defs><style>.cls-1{isolation:isolate;}.cls-2{fill-rule:evenodd;}</style></defs><title>info</title><g id="Shape_1" data-name="Shape 1" class="cls-1"><g id="Shape_1-2" data-name="Shape 1"><path class="cls-2" d="M11,0A11,11,0,1,0,22,11,11,11,0,0,0,11,0Zm0,20.65A9.65,9.65,0,1,1,20.65,11,9.66,9.66,0,0,1,11,20.65Zm.18-15.17a1.14,1.14,0,1,0,1.13,1.13A1.14,1.14,0,0,0,11.18,5.48Zm-.3,4.11a.68.68,0,0,0-.68.68V16a.68.68,0,1,0,1.35,0V10.27A.68.68,0,0,0,10.88,9.59Z" transform="translate(0 0)"/></g></g></svg>