<svg xmlns="http://www.w3.org/2000/svg" viewBox="0 0 31 31">
  <defs>
    <style>
      .a {
        fill: #00bee8;
      }
    </style>
  </defs>
  <title>Forma 2</title>
  <path class="a" d="M30.561,13.448a.977.977,0,0,0-.964-.739A3.312,3.312,0,0,1,27.33,6.944a.834.834,0,0,0,.091-1.131,14.819,14.819,0,0,0-2.376-2.4A.833.833,0,0,0,23.9,3.5a3.457,3.457,0,0,1-3.741.84,3.332,3.332,0,0,1-2.026-3.257A.831.831,0,0,0,17.4.212,14.862,14.862,0,0,0,14.027.2a.835.835,0,0,0-.743.858,3.337,3.337,0,0,1-2.054,3.2,3.465,3.465,0,0,1-3.713-.845.836.836,0,0,0-1.132-.095,14.926,14.926,0,0,0-2.426,2.4.834.834,0,0,0,.09,1.14A3.324,3.324,0,0,1,4.887,10.6a3.468,3.468,0,0,1-3.264,2.028.815.815,0,0,0-.866.736A15.075,15.075,0,0,0,.75,16.781a.994.994,0,0,0,.984.738A3.29,3.29,0,0,1,4.82,19.573a3.336,3.336,0,0,1-.839,3.711.834.834,0,0,0-.091,1.13,14.964,14.964,0,0,0,2.373,2.4.835.835,0,0,0,1.142-.091,3.451,3.451,0,0,1,3.739-.841,3.328,3.328,0,0,1,2.03,3.256.832.832,0,0,0,.736.876,14.871,14.871,0,0,0,3.374.009.835.835,0,0,0,.743-.859,3.333,3.333,0,0,1,2.052-3.2,3.462,3.462,0,0,1,3.715.845.839.839,0,0,0,1.132.1,14.973,14.973,0,0,0,2.427-2.4.833.833,0,0,0-.09-1.14,3.324,3.324,0,0,1-.84-3.743,3.358,3.358,0,0,1,3.068-2.034l.186.008a.835.835,0,0,0,.878-.736A15.009,15.009,0,0,0,30.561,13.448ZM15.68,20.15a5,5,0,1,1,5-5A5,5,0,0,1,15.68,20.15Z"/>
</svg>
