<svg xmlns="http://www.w3.org/2000/svg" viewBox="0 0 15 15"><defs><style>.cls-1{isolation:isolate;}.cls-2{fill:#747b83;}</style></defs><title>github</title><g id="github" class="cls-1"><g id="github-2" data-name="github"><path class="cls-2" d="M7.5,0A7.6,7.6,0,0,0,0,7.69,7.68,7.68,0,0,0,5.13,15a.38.38,0,0,0,.51-.37c0-.19,0-.79,0-1.44-2.09.47-2.53-.9-2.53-.9a2,2,0,0,0-.83-1.13c-.68-.48,0-.47,0-.47a1.58,1.58,0,0,1,1.15.8,1.58,1.58,0,0,0,2.18.64,1.68,1.68,0,0,1,.48-1c-1.67-.2-3.42-.85-3.42-3.8a3,3,0,0,1,.78-2.07,2.78,2.78,0,0,1,.07-2S4.19,3,5.62,4A6.93,6.93,0,0,1,9.38,4c1.43-1,2.06-.79,2.06-.79a2.78,2.78,0,0,1,.07,2,3,3,0,0,1,.77,2.07c0,3-1.75,3.6-3.42,3.79a1.87,1.87,0,0,1,.51,1.43c0,1,0,1.85,0,2.11s.13.44.51.36A7.66,7.66,0,0,0,15,7.69,7.6,7.6,0,0,0,7.5,0Z" transform="translate(0 0)"/></g></g></svg>