<svg xmlns="http://www.w3.org/2000/svg" viewBox="0 0 21 31">
  <defs>
    <style>
      .a {
        fill: #f69436;
      }
    </style>
  </defs>
  <title>Forma 11</title>
  <path class="a" d="M20.906,11.825a1.074,1.074,0,0,0-.982-.669H11.832L15.16,1.937A1.175,1.175,0,0,0,15.04.9a1.062,1.062,0,0,0-.885-.489h-8a1.079,1.079,0,0,0-1.006.729L.07,15.2a1.174,1.174,0,0,0,.12,1.035,1.064,1.064,0,0,0,.885.487l8.98-.057L5.311,29.891a.4.4,0,0,0,.154.469.359.359,0,0,0,.468-.072l14.791-17.25A1.17,1.17,0,0,0,20.906,11.825Z"/>
</svg>
