<svg xmlns="http://www.w3.org/2000/svg" viewBox="0 0 15 15"><defs><style>.cls-1{isolation:isolate;}.cls-2{fill:#747b83;}</style></defs><title>facebook</title><g id="Forma_1" data-name="Forma 1" class="cls-1"><g id="Forma_1-2" data-name="Forma 1"><path class="cls-2" d="M13.12,0H1.87A1.87,1.87,0,0,0,0,1.87V13.12A1.88,1.88,0,0,0,1.87,15H7.5V9.84H5.62V7.5H7.5V5.62a2.81,2.81,0,0,1,2.81-2.81h1.88V5.16h-.94c-.52,0-.94,0-.94.46V7.5h2.35l-.94,2.34H10.31V15h2.81A1.88,1.88,0,0,0,15,13.12V1.87A1.88,1.88,0,0,0,13.12,0Z" transform="translate(0 0)"/></g></g></svg>