<svg id="Layer_1" data-name="Layer 1" xmlns="http://www.w3.org/2000/svg" xmlns:xlink="http://www.w3.org/1999/xlink" viewBox="0 0 784.5 654.86"><defs><style>.cls-1{fill:#e8f3f9;}.cls-1,.cls-10,.cls-18,.cls-2,.cls-3,.cls-5,.cls-6{isolation:isolate;}.cls-2{fill:#cee9f4;}.cls-12,.cls-3{fill:#6c63ff;}.cls-3,.cls-5,.cls-6,.cls-9{opacity:0.1;}.cls-4{fill:#a8a8a8;}.cls-13,.cls-5{fill:#fff;}.cls-7{fill:#464353;}.cls-8{fill:url(#linear-gradient);}.cls-10{opacity:0.06;}.cls-11{fill:#fbbebe;}.cls-14{fill:#fed253;}.cls-15{fill:url(#linear-gradient-2);}.cls-16{fill:#d6d8e1;}.cls-17{fill:#f86d70;}.cls-18{opacity:0.2;}.cls-19{fill:none;stroke:#cee9f4;stroke-linecap:round;stroke-linejoin:round;stroke-width:0.9px;}</style><linearGradient id="linear-gradient" x1="-564.72" y1="866.91" x2="-563.72" y2="866.91" gradientTransform="matrix(248.41, 0, 0, -357.32, 140281.86, 310096.29)" gradientUnits="userSpaceOnUse"><stop offset="0" stop-color="gray" stop-opacity="0.25"/><stop offset="0.54" stop-color="gray" stop-opacity="0.12"/><stop offset="1" stop-color="gray" stop-opacity="0.1"/></linearGradient><linearGradient id="linear-gradient-2" x1="-551.91" y1="866.02" x2="-550.91" y2="866.02" gradientTransform="matrix(190.13, 0, 0, -143.36, 107236.28, 124408.06)" xlink:href="#linear-gradient"/></defs><title>404</title><g id="undraw_warning_cyit" data-name="undraw warning cyit"><path id="Path_83" data-name="Path 83" class="cls-1" d="M417.62,0C620.24,0,784.5,146.6,784.5,327.43c0,115.55-67.07,217.13-168.37,275.41-57.22,32.92-125.37,52-198.51,52C215,654.86,50.74,508.27,50.74,327.43S215,0,417.62,0Z"/><ellipse id="Ellipse_2" data-name="Ellipse 2" class="cls-2" cx="135.28" cy="494.92" rx="135.28" ry="20.97"/><ellipse id="Ellipse_3" data-name="Ellipse 3" class="cls-3" cx="200.3" cy="604.91" rx="52.62" ry="10.87"/><ellipse id="Ellipse_4" data-name="Ellipse 4" class="cls-2" cx="559.82" cy="563.09" rx="52.62" ry="10.87"/><ellipse id="Ellipse_5" data-name="Ellipse 5" class="cls-2" cx="381.28" cy="550.34" rx="85.56" ry="14.49"/><path id="Path_1" data-name="Path 1" class="cls-4" d="M37,429.81a49.65,49.65,0,0,0,2.59,49.85c1.57,2.36,3,4.06,4.17,4.51,5.55,2.18,16.65,7.53,16.65,7.53l26.74-10.5s4.34-23,8.45-42.69h0c2.8-13.44,5.51-25.38,6.61-27.47,2.77-5.15,0-61.23,0-61.23S75.46,348,68.11,368.63l-3.22,6.29Z"/><path id="Path_2" data-name="Path 2" class="cls-5" d="M72.49,436c16.26,18.63,23.12,2.51,23.12,2.51h0c2.8-13.45,5.5-25.38,6.61-27.47,2.77-5.15,0-61.23,0-61.23S75.48,348,68.13,368.64l-3.22,6.29C62.85,391.42,60.81,422.6,72.49,436Z"/><path id="Path_3" data-name="Path 3" class="cls-4" d="M76.06,487.94,170.44,477l16.84-110.8-12.73-28.78a116.45,116.45,0,0,0-22-33.22c-6.41-6.76-14.15-13.25-22.3-16.52a31.67,31.67,0,0,0-3.4-1.16A8.83,8.83,0,0,0,119,288c-11.64,8.25-15.8,43.33-17.14,60.21A186.81,186.81,0,0,1,99,368.84Z"/><path id="Path_4" data-name="Path 4" class="cls-5" d="M138.89,365l-19.66,48.37c10.3-7.54,25.57-48.57,25.57-48.57l13.68,46.78-10.9-49.3A154.23,154.23,0,0,0,149,330c-.86-12.38-12.48-32.25-18.79-42.25a34.1,34.1,0,0,0-3.4-1.17,8.83,8.83,0,0,0-7.87,1.39c5,9.95,17.34,34.83,21.12,42.22C144.81,339.47,138.89,365,138.89,365Z"/><path id="Path_5" data-name="Path 5" class="cls-4" d="M155,491.7h51.21a15.53,15.53,0,0,0,15.53-15.53c0-.26,0-.52,0-.79-1.13-21.95-4-61.11-10.83-86-3.69-13.41-8-20.45-11.9-23.92a11.6,11.6,0,0,0-6.78-3.18,8.82,8.82,0,0,0-5.5,1.34c-9.51,9.11-20.62,57.08-20.62,57.08Z"/><path id="Path_6" data-name="Path 6" class="cls-5" d="M202.22,449.16c2.11,5.85,2.94,12.59,0,19.15L190.81,474s-30.67-13-26.95-39.64c0,0,1-5.51,11.57-5.08A29.93,29.93,0,0,1,202.22,449.16Z"/><path id="Path_7" data-name="Path 7" class="cls-5" d="M190,379.12c-.35-9.35,4.72-12.59,8.91-13.62a11.55,11.55,0,0,0-6.77-3.18,18,18,0,0,0-5.91,9.44l-10.7,52.13S190.63,394.78,190,379.12Z"/><path id="Path_8" data-name="Path 8" class="cls-4" d="M141.47,420.35,166.83,455l4.4,28.63-16.3,8-23.49,5.2a22.54,22.54,0,0,1-6.9.44l-64.11-5.63,8.73-20.23L99.28,429.2Z"/><path id="Path_9" data-name="Path 9" class="cls-5" d="M131.65,408.44s17.3,1.19,10.81,30.92-73.34,32.11-73.34,32.11,14.2-25.17,36.05-43.2c2.46-2,4.82-4.13,7.08-6.38C117.28,416.86,126.89,408,131.65,408.44Z"/><path id="Path_10" data-name="Path 10" class="cls-6" d="M147.22,430.85s23.45,21.34,21.24,54.18"/><path id="Path_11" data-name="Path 11" class="cls-6" d="M186.66,363.66s-24.6,32.71-27.36,83.06"/><path id="Path_12" data-name="Path 12" class="cls-6" d="M102.23,349.79s11.91,54.07-17.82,94.83"/><path id="Path_13" data-name="Path 13" class="cls-7" d="M319.1,550.05H447.41a7.19,7.19,0,0,0,6.29-10.6L389.58,420.31a7.18,7.18,0,0,0-12.65,0L312.78,539.45a7.19,7.19,0,0,0,6.32,10.6Zm72.32-21.77H375.09V512h16.33Zm0-27.2H375.09V468.43h16.33Z"/><path id="Path_14" data-name="Path 14" class="cls-6" d="M319.1,550.05H447.41a7.19,7.19,0,0,0,6.29-10.6L389.58,420.31a7.18,7.18,0,0,0-12.65,0L312.78,539.45a7.19,7.19,0,0,0,6.32,10.6Zm72.32-21.77H375.09V512h16.33Zm0-27.2H375.09V468.43h16.33Z"/><path id="Path_15" data-name="Path 15" class="cls-7" d="M319.1,554H447.41a7.18,7.18,0,0,0,6.29-10.59L389.58,424.25a7.18,7.18,0,0,0-12.65,0L312.78,543.38A7.19,7.19,0,0,0,319.1,554Zm72.32-21.77H375.09V515.89h16.33Zm0-27.2H375.09V472.36h16.33Z"/><path id="Path_16" data-name="Path 16" class="cls-8" d="M248.62,489.82a8.41,8.41,0,0,0-1.81-.88c-2.11-.79-4.36-1-6.47-1.75a9.24,9.24,0,0,1-3.25-1.92c-.15-.16-.3-.31-.44-.48.78-.5,1.5-1,2.28-1.45a27,27,0,0,0-9.49-9.44c1.27-1.87,4.12-1.72,5.79-3.22a5.47,5.47,0,0,0,1.57-3.09c.63-3.09-.14-6.29-.92-9.34a114.74,114.74,0,0,0-5.42-17.57,68.06,68.06,0,0,1-2.94-7.13c-2-6.78-.62-14.16-2.16-21.09-.5-2.22-1.3-4.52-.74-6.72.86-3.41,4.67-5.43,5.51-8.85,3-12.15,3.56-24.76,5.27-37.16a47.36,47.36,0,0,0,.64-7.13c0-2.51-.45-5-.63-7.5-.49-7,.92-14,1.53-21.06a22,22,0,0,1,2.85,7,28.19,28.19,0,0,1,.17,7,32.91,32.91,0,0,1-.5,4.64c-.39,1.83-1.06,3.57-1.51,5.4a16.65,16.65,0,0,0,.75,10.83c1.07,2.35,3.42,4.54,5.86,3.83,1.69-.48,2.72-2.17,3.47-3.76,2.36-5,3.67-10.8,2.08-16.12-1-3.54-3.34-6.74-3.55-10.44a26.14,26.14,0,0,1,.35-4.41c1-8.54-1.14-17.12-1.62-25.71-.12-2.27.08-5.1-.43-7.51a8.33,8.33,0,0,0-.22-.86,2.44,2.44,0,0,1,.57.26,5.17,5.17,0,0,0-.11-4.4,10.16,10.16,0,0,1-.74-1.38c-.3-.79-.25-1.7-.62-2.45a10,10,0,0,0-.78-1.14c-1-1.47-1.07-3.38-1.09-5.16q-.19-14-.79-27.9c-.21-4.72-.48-9.55-2.13-14a21,21,0,0,0-7.39-9.81,19.06,19.06,0,0,0-1.66-1,5.83,5.83,0,0,0,.47-2.13q0-.34,0-.69l-.05-.39h0a16.3,16.3,0,0,0-1.57-4.72,13.19,13.19,0,0,1-1.5-5.16,8,8,0,0,1,.05-1h0c.27-2.26,1.45-4.38,1.87-6.65a11.7,11.7,0,0,0,.17-2.13v-.75a21.4,21.4,0,0,0-2.52-7.94c-.4-.79-.79-1.57-1.23-2.36-.2-1.47-.43-2.94-.66-4.4-.13-.85-.26-1.7-.44-2.54-.09-.42-.19-.83-.31-1.23,1.22-1.15.51-2.83-.27-4.39-1.5-2.95-1.18-6.49-1.82-9.74a29.83,29.83,0,0,0-2.31-6.55,14.88,14.88,0,0,0-2.51-4.12,16.07,16.07,0,0,0-3.25-2.36,10.57,10.57,0,0,0-3.23-1.45c-.71-.14-1.44-.13-2.15-.3a6.71,6.71,0,0,1-1.32-.48,8.94,8.94,0,0,0-2.82-1,6.39,6.39,0,0,0-2.73.52,9.87,9.87,0,0,1-2.92.78h-1.11a2.47,2.47,0,0,0-1.5.37,5.79,5.79,0,0,0-.65.66,8.88,8.88,0,0,1-1.9,1.3,18.67,18.67,0,0,0-9.17,16,8.05,8.05,0,0,1-.22,2.59c-.23.66-.68,1.24-.87,1.91a5.44,5.44,0,0,0-.09,1.8c.07.92.16,1.83.26,2.75h0a5.8,5.8,0,0,0-1.14,2.54h0a3.85,3.85,0,0,0-.08.49v.06h0c-.08,1.64.73,3.15,1.21,4.72a16.76,16.76,0,0,1-.24,9.26,35.73,35.73,0,0,0-1.57,6.29h0v.14a7.5,7.5,0,0,0,.36,3.15c.26.71.64,1.38.88,2.1.83,2.57-.38,5.26-2,7.5h0c-.25.36-.51.7-.79,1h0l0,0,1.64,1.16c-.48.25-1,.53-1.45.79a14.92,14.92,0,0,0-5.33,2,21.6,21.6,0,0,0-4.33,2.88,18.29,18.29,0,0,0-3.41,4.72,56.66,56.66,0,0,0-2.89,6.1,18.69,18.69,0,0,0-1.48,5.29c-.68,1.44-1.24,3-1.86,4.38l-.93,2.15-27.07-66.28-4.2,1.74.33.79-.88.37,1.19,2.89-.51.36-.22.18-.44.34-.22.18-.45.38-.16.14-.56.51h0c-.6.55-1.17,1.12-1.73,1.7l-1.44,1.48-.27.29-.48.49-.27.28-.68.68-.05.05-.43.4-.26.26c-.11.11-.23.21-.35.31l-.33.31-.53.46-.16.14-.73.58a20.81,20.81,0,0,1-3.15,2c-4.3,2.23-8.85,4.09-13,6.47a37.76,37.76,0,0,0-6.47,4.53c-2.78,2.47-5.13,5.51-8.34,7.29l-.36.19c-5.69,2.93-12.4,1.17-18.87,1-1,0-1.92,0-2.87.06-5.25.41-10.06,2.54-14.7,5.14-3.28,1.83-6.47,3.89-9.68,5.75-2,1.18-4.06,2.45-6.11,3.76-5.19,3.3-10.44,6.75-15.88,9.25-5,2.31-10.22,3.78-15.73,3.5H4a13.67,13.67,0,0,1-1.57-.14c-.51,4.13,2.79,7.46,5,11.09a11.38,11.38,0,0,1,1.87,5.25,9.91,9.91,0,0,1-.16,2.11c-.44,2.55-1.62,5-1.3,7.62A8.77,8.77,0,0,0,9.53,278c1.4,2,3.35,3.78,4.67,5.86,2,3.15,2.51,7,3.3,10.68a22.36,22.36,0,0,0,2.59,7.4c1.7,2.74,4.29,4.72,6.73,6.82.45.39.89.79,1.31,1.18s.62.58.91.89c2.86,2.92,5,7.42,3.26,11.07l-.18.35a2.34,2.34,0,0,0,.43.26c2.19,1.07,5-.64,6.75-2.46.89-.89,1.73-1.83,2.55-2.79,2.19-2.44,4.2-5.08,6.29-7.62q.84-1,1.71-2a29.12,29.12,0,0,1,7.77-6.29,28.56,28.56,0,0,1,4.77-1.94c2.44-.78,5-1.36,7.4-2.14a59.85,59.85,0,0,0,9.75-4.09,150.63,150.63,0,0,0,15.72-9.75l.78-.52a26.36,26.36,0,0,0,4.68-3.73c.26-.28.5-.56.73-.85,1.23-1.57,2-3.44,3.14-5.07A16.29,16.29,0,0,1,109,269c4.85-3.26,11.29-4.51,17.06-6.29h.06a66.24,66.24,0,0,0,26.87-16l4.31,10.56c-.44,1.24-.87,2.51-1.26,3.78-1,3.14-1.75,6.38-3.63,9a6.82,6.82,0,0,0-1.37,2.43,7.5,7.5,0,0,1-.32,2c-.27.54-.83.89-1,1.44-.33.79.1,1.8-.34,2.54a3.74,3.74,0,0,1-.75.79,5.2,5.2,0,0,0-1.42,4,13.78,13.78,0,0,1-.36,4.34c.33-.19.67-.37,1-.53a5.31,5.31,0,0,0-.09.79,8.64,8.64,0,0,0,.28,2.21,17.18,17.18,0,0,0,2.3,4.59,31,31,0,0,0,2.46,3.54,32,32,0,0,0,5.21,4.66l7.92,6.12-.78,3.31c-1.73,6.94-3.48,14-3.57,21.12a92.75,92.75,0,0,0,.64,10.13l.69,6.91c.55,5.56,1.1,11.12,1.7,16.68a43.34,43.34,0,0,0,2,10.4c1.87,5-.2,10.73.6,16.07.63,4.17,1.87,8.49.62,12.53-.5,1.57-1.38,3.08-2,4.64-1.61,3.87-1.77,8.17-1.91,12.36a52.67,52.67,0,0,0,.4,11c.68,3.76,2.17,7.45,1.88,11.26-.41,5.42-4.37,10.05-4.85,15.47-.38,4.32,1.49,8.5,3.52,12.33,1.48,2.82-.59,6.47-1.38,9.58-1.57,6.1,1,12.46,4.22,17.87a.91.91,0,0,0,.4.42c.37.13.7-.23.94-.53a5.15,5.15,0,0,1,.47-.56c0,.24.05.49.06.72,0,.51,0,1,0,1.57a15.84,15.84,0,0,0,1.07,5.82c.13.36.28.72.44,1.06a4.7,4.7,0,0,0,.79,1.26,4.76,4.76,0,0,0,3.15,1.33c2.61.28,5.23-.26,7.86-.49s5.55-.14,8.32-.2a1.2,1.2,0,0,0,.62-.14,1.05,1.05,0,0,0,.36-.56,6.26,6.26,0,0,0,.13-3.1,22.59,22.59,0,0,0-.59-2.46c-.37-1.3-.71-2.6-1-3.94-.06-.24-.12-.48-.17-.73l.12.06q2.55-5.71,5.09-11.42c.86-1.93,1.73-4,1.31-6.08a17.91,17.91,0,0,0-1.92-4.08c-1.57-3.2-1.64-6.92-1.66-10.5l-.09-20.22a44.48,44.48,0,0,0,7.86-17.17,55.61,55.61,0,0,1,.47,26.74,23.51,23.51,0,0,0-.75,4.07c-.31,5.61,4.06,10.36,5.22,15.85a3.51,3.51,0,0,1,.09,1.29,4.73,4.73,0,0,1-.65,1.49c-2.09,3.83-1.86,8.46-1.57,12.82l.92.15a2.46,2.46,0,0,0,1,.95h0a4.76,4.76,0,0,0,1.22.5,28.43,28.43,0,0,0,4.59.7c2.22.22,4.44.44,6.67.59.88.05,1.76.1,2.64.12a18.42,18.42,0,0,1,7.63,1.4c5.73,1.92,12.15,3,17.7.62a7.94,7.94,0,0,0,3.23-2.29,3.81,3.81,0,0,0-.21-5.38,4.33,4.33,0,0,0-.74-.53Zm-76.06-224.2c.83,1.66,1.66,3.31,2.35,5,1.37,3.34,2.19,7.08,1.33,10.56-.26,1-1.9,1.8-1.89,2.86,0,.08-.09.16-.13.24l-5.13-12.58a44.24,44.24,0,0,1,3.46-6.11Zm-5.64,26.74a21.78,21.78,0,0,1-2.79-4.81c-.09-.21-.2-.41-.29-.63a2,2,0,0,0,.75-.55c.78-1,.36-2.44.48-3.72a8,8,0,0,1,1.25-3.14l4.82,11.8c-.49,1.28-.94,2.57-1.37,3.87a26.26,26.26,0,0,1-2.85-2.83Z"/><path id="Path_17" data-name="Path 17" class="cls-7" d="M183.89,186.18c-.09,1.64.73,3.14,1.21,4.72a16.65,16.65,0,0,1-.23,9.23c-.88,3.15-2.36,6.47-1.23,9.55.26.72.65,1.38.89,2.11,1,3-.84,6.13-2.82,8.58l7.78,5.45a9,9,0,0,0,3.93,1.88c1.46.17,3.15-.61,3.45-2,.1-.49,0-1,.09-1.49a4,4,0,0,1,2.18-3,7,7,0,0,1,3.77-.7c4.77.26,8.83,3.4,13.17,5.41a53.2,53.2,0,0,0,8.86,2.94c1.73.45,3.64.86,5.2,0a4.93,4.93,0,0,0,2.15-4.65,15.15,15.15,0,0,0-1.65-5.12,13,13,0,0,1-1.52-5.15c0-2.64,1.45-5,1.94-7.65.68-3.68-.71-7.44-2.41-10.79s-3.76-6.57-4.59-10.22a14.93,14.93,0,0,0-.85-3.23,7.44,7.44,0,0,0-1.58-2.11c-2.91-2.89-7.07-4.26-11.15-4.55a49.78,49.78,0,0,0-12.23,1.07,26.27,26.27,0,0,0-4.54,1.07,29.43,29.43,0,0,0-6,3.23C185.9,182,184,183.84,183.89,186.18Z"/><g id="Group_1" data-name="Group 1" class="cls-9"><path id="Path_18" data-name="Path 18" d="M229.1,212.26a3.39,3.39,0,0,0,0,.71c.25-2.3,1.46-4.47,1.89-6.78a10.93,10.93,0,0,0,.15-2.8,8.27,8.27,0,0,1-.15,1.23C230.54,207.22,229.06,209.62,229.1,212.26Z"/><path id="Path_19" data-name="Path 19" d="M185.63,194a14.2,14.2,0,0,0-.53-4.72,26.27,26.27,0,0,1-1.14-3.66c0,.16-.06.32-.07.49-.09,1.64.73,3.14,1.21,4.72A13.65,13.65,0,0,1,185.63,194Z"/><path id="Path_20" data-name="Path 20" d="M232.22,223.72a4.51,4.51,0,0,1-2.11,3.47c-1.57.85-3.47.45-5.19,0a52.93,52.93,0,0,1-8.86-2.95c-4.35-2-8.4-5.15-13.18-5.4a7.13,7.13,0,0,0-3.77.7,4,4,0,0,0-2.17,3c-.06.5,0,1-.1,1.49a3.09,3.09,0,0,1-3.44,2,9,9,0,0,1-3.94-1.88l-7-4.91q-.39.54-.78,1l7.77,5.46a9,9,0,0,0,3.94,1.88c1.45.17,3.14-.6,3.44-2,.1-.48,0-1,.1-1.49a4.05,4.05,0,0,1,2.17-3,7.23,7.23,0,0,1,3.77-.7c4.78.26,8.83,3.4,13.18,5.4a52,52,0,0,0,8.86,2.95c1.72.45,3.63.86,5.19,0a5,5,0,0,0,2.16-4.65C232.26,224,232.23,223.85,232.22,223.72Z"/><path id="Path_21" data-name="Path 21" d="M184.53,211.75a7.82,7.82,0,0,1,.21,1,5.75,5.75,0,0,0-.21-2.54c-.24-.72-.63-1.38-.89-2.11a6.92,6.92,0,0,1-.37-1.62,7.41,7.41,0,0,0,.37,3.2C183.9,210.36,184.29,211,184.53,211.75Z"/></g><path id="Path_22" data-name="Path 22" class="cls-7" d="M193.76,510.18a1,1,0,0,1-.36.56,1.23,1.23,0,0,1-.62.14c-2.8.06-5.6,0-8.39.2s-5.3.78-7.93.49a4.08,4.08,0,0,1-3.94-2.59c-.16-.34-.31-.69-.44-1.05a15.68,15.68,0,0,1-1.07-5.82v-1.58a12.47,12.47,0,0,0-.23-1.72,2.59,2.59,0,0,1,.08-2c1.12-2,3.81-2.44,5.89-2.6a48.72,48.72,0,0,1,14.35,1.06c.37,1.81.79,3.6,1.23,5.4.33,1.31.67,2.62,1,3.93a21,21,0,0,1,.6,2.46A6.31,6.31,0,0,1,193.76,510.18Z"/><path id="Path_23" data-name="Path 23" class="cls-10" d="M193.76,510.18a1,1,0,0,1-.36.56,1.23,1.23,0,0,1-.62.14c-2.8.06-5.6,0-8.4.2-2.64.23-5.29.78-7.92.49a4.08,4.08,0,0,1-3.94-2.59c-.16-.34-.31-.69-.44-1.05h1c3.31,0,6.63-.12,9.94-.12a24.91,24.91,0,0,0,3-.17c1-.11,1.8-.28,2.71-.39a36.83,36.83,0,0,1,4.07-.16h1.12A6.35,6.35,0,0,1,193.76,510.18Z"/><path id="Path_24" data-name="Path 24" class="cls-7" d="M251.68,495.57a7.94,7.94,0,0,1-3.25,2.29c-5.6,2.36-12.08,1.3-17.86-.62a18.76,18.76,0,0,0-7.69-1.4c-.89,0-1.77-.07-2.66-.12-2.25-.15-4.49-.37-6.73-.59a30.15,30.15,0,0,1-4.62-.7,5.12,5.12,0,0,1-1.24-.5h0a1.89,1.89,0,0,1-1.13-1.69c.06-1,1.1-1.57,2-2,8.1-3.5,16.89-5,25.62-6.24a10.07,10.07,0,0,0,2.57-.79c1-.39,1.09.26,1.57,1a6.94,6.94,0,0,0,.79.93,9.47,9.47,0,0,0,3.27,1.92c2.13.78,4.4,1,6.52,1.74a8.81,8.81,0,0,1,1.83.88,3.8,3.8,0,0,1,1.52,5.15,4.08,4.08,0,0,1-.56.77Z"/><path id="Path_25" data-name="Path 25" class="cls-10" d="M251.68,495.57a7.94,7.94,0,0,1-3.25,2.29c-5.6,2.36-12.08,1.3-17.86-.62a18.76,18.76,0,0,0-7.69-1.4c-.89,0-1.77-.07-2.66-.12.72-.69,1.46-1.36,2.21-2a6.45,6.45,0,0,1,1.87-1.23,5.41,5.41,0,0,1,2.65-.18c4.5.62,8.54,3.77,13.08,3.5a16.26,16.26,0,0,0,6-1.95,10.43,10.43,0,0,0,3.93-2.8,4.68,4.68,0,0,0,.73-1.4,3.78,3.78,0,0,1,1.51,5.14,3.85,3.85,0,0,1-.55.77Z"/><path id="Path_26" data-name="Path 26" class="cls-11" d="M250.1,358.89c-.78,1.57-1.79,3.28-3.49,3.77-2.47.71-4.84-1.51-5.92-3.84A16.56,16.56,0,0,1,239.9,348c.45-1.82,1.14-3.56,1.52-5.39a31.48,31.48,0,0,0,.5-4.65,28.61,28.61,0,0,0-.16-7c-1.27-6.76-7.08-11.8-9-18.44a34.37,34.37,0,0,1-.87-10.28,10.3,10.3,0,0,1,.27-2.6,4.19,4.19,0,0,1,.23-.68c1.3-2.88,5.15-3.27,7.82-5,1.48-.92,4.84-3.88,6.08-1.18a9.14,9.14,0,0,1,.6,1.88c.51,2.41.31,5.23.43,7.5.48,8.59,2.62,17.17,1.63,25.7a27.09,27.09,0,0,0-.34,4.4c.21,3.7,2.52,6.9,3.58,10.44C253.81,348.11,252.49,353.9,250.1,358.89Z"/><path id="Path_27" data-name="Path 27" class="cls-6" d="M246.91,294.75a2.68,2.68,0,0,0-1.81,0l-5.32,1.57a32.75,32.75,0,0,0-5.44,2,12.35,12.35,0,0,0-2.16,1.34,4.12,4.12,0,0,1,.24-.67c1.3-2.88,5.14-3.27,7.81-5,1.48-.92,4.84-3.88,6.08-1.18a8.48,8.48,0,0,1,.6,1.91Z"/><path id="Path_28" data-name="Path 28" class="cls-7" d="M247.26,294.15a2.45,2.45,0,0,0-2.16-.17l-5.32,1.57a32.75,32.75,0,0,0-5.44,2,12.64,12.64,0,0,0-2.59,1.68c-2.48-4.32-3.14-9.44-3.6-14.39-.25-2.89-.44-5.78-.55-8.65a38.89,38.89,0,0,1,.13-6.2c.3-2.36,1-4.67,1.41-7a32.16,32.16,0,0,0,.48-4.15,40.33,40.33,0,0,0-.41-9.12,56.69,56.69,0,0,0-2.19-9.44c-.5-1.4-1.11-2.76-1.66-4.15l-.19-.49a58.57,58.57,0,0,1-2.43-7.79c-.25-1.09-.26-2.23-1.1-3a15.58,15.58,0,0,1,2.36-.09h.47a17.53,17.53,0,0,1,9,3.15,21,21,0,0,1,7.46,9.86c1.66,4.43,1.94,9.24,2.15,14q.63,13.93.78,27.89c0,1.78.08,3.68,1.1,5.15a12.23,12.23,0,0,1,.79,1.14c.37.79.32,1.66.61,2.46a11.46,11.46,0,0,0,.75,1.38A5.08,5.08,0,0,1,247.26,294.15Z"/><path id="Path_29" data-name="Path 29" class="cls-11" d="M194.91,201.84l-2.36-.79,1.63.13a3.28,3.28,0,0,1,.73.66Z"/><path id="Path_30" data-name="Path 30" class="cls-11" d="M227.12,230.22c-.16.54-.32,1.07-.49,1.58a30.41,30.41,0,0,1-1.46,3.78,17.49,17.49,0,0,1-3.72,5.4,5,5,0,0,1-1.85,1.22,5.67,5.67,0,0,1-1.83.18c-2.1,0-4.19,0-6.29-.1a22.08,22.08,0,0,1-4.86-.48,17.44,17.44,0,0,1-5-2.23,29.46,29.46,0,0,1-12.77-15.73,2.62,2.62,0,0,1,.13-2.49,3.06,3.06,0,0,1,2-.68h.09a12.69,12.69,0,0,0,4.79-1.64,4.9,4.9,0,0,0,2.19-2.24,6,6,0,0,0-.07-3.47l-1.75-7.93a8.21,8.21,0,0,0-1.39-3.53c.51.18,1,.34,1.57.49,4.87,1.31,10.18.51,14.95,2.24,1.82.67,3.65,1.87,4.2,3.74.92,3.15-2.16,6.41-1.28,9.56.59,2.14,2.77,3.37,4.72,4.37l1.32.67,3.64,1.85.5.25.08,0a5,5,0,0,1,2.76,2.54A4.75,4.75,0,0,1,227.12,230.22Z"/><path id="Path_31" data-name="Path 31" class="cls-6" d="M236.71,248.69a17.24,17.24,0,0,1-1.45,5.82,23.86,23.86,0,0,0-2.48,10.22c-.6,10.62-4.64,23.26,1.14,32.18q.22.33.42.66a12.68,12.68,0,0,0-2.59,1.69c-2.48-4.32-3.14-9.44-3.6-14.39-.25-2.89-.44-5.79-.55-8.66a38.92,38.92,0,0,1,.13-6.2c.3-2.36,1-4.66,1.41-7a32.31,32.31,0,0,0,.48-4.16,40.27,40.27,0,0,0-.41-9.11A56.69,56.69,0,0,0,227,240.3c-.5-1.41-1.11-2.77-1.66-4.15l-.19-.49a17.49,17.49,0,0,1-3.72,5.4,5,5,0,0,1-1.85,1.23,5.93,5.93,0,0,1-1.83.17c-2.1,0-4.19,0-6.29-.1a22.08,22.08,0,0,1-4.86-.48,17,17,0,0,1-5-2.23,29.39,29.39,0,0,1-12.78-15.73,2.58,2.58,0,0,1,.14-2.48,3,3,0,0,1,2-.69h.1l7.07,8.76a13.93,13.93,0,0,1,2.05,3.05,1.74,1.74,0,0,0,.63.94,1.6,1.6,0,0,0,.78.14h22.15a5.76,5.76,0,0,0-1-3.31c-.2,0-.48.06-.05-.06a22.41,22.41,0,0,0-2.44-7.29,4,4,0,0,0-.24-.46,8.32,8.32,0,0,1-1.17-2.55,3.23,3.23,0,0,1,4.25,1.67,3.5,3.5,0,0,1,.23.76c.36.79.72,1.63,1,2.46,0,.08.08.18.11.26a17.74,17.74,0,0,1,1.31,5.1c0,.65.2,1.47.74,1.68a.6.6,0,0,0,.27.06,3,3,0,0,1,3.21.79,7.05,7.05,0,0,1,1.58,3.1,16.7,16.7,0,0,0,1.11,3.33c1,1.94-.53,2.8,1.3,4a6.38,6.38,0,0,1,2.16,1.94,6,6,0,0,1,.47,3.58Z"/><path id="Path_32" data-name="Path 32" class="cls-6" d="M191,495.31c.37,1.81.79,3.6,1.23,5.4l0,.11c-3.59-1.58-7.27-3.22-11.2-3.57-3.64-.31-7.6.67-10.08,3.32a12.45,12.45,0,0,0-.22-1.72,2.59,2.59,0,0,1,.08-2c1.11-2,3.81-2.45,5.89-2.6A48.74,48.74,0,0,1,191,495.31Z"/><path id="Path_33" data-name="Path 33" class="cls-6" d="M222,231.77c.37,0,.23,0,.05.06S221.58,231.9,222,231.77Z"/><path id="Path_34" data-name="Path 34" class="cls-6" d="M239.1,485.11a69.24,69.24,0,0,0-9.85,7.62,10.25,10.25,0,0,1-3.1,2.28,9,9,0,0,1-3.75.38,128.22,128.22,0,0,1-14.77-1.46h0a1.91,1.91,0,0,1-1.13-1.69c.06-1,1.1-1.57,2-2,8.1-3.5,16.89-5,25.62-6.23a10.48,10.48,0,0,0,2.57-.79c1-.39,1.09.25,1.57,1A6.57,6.57,0,0,0,239.1,485.11Z"/><path id="Path_35" data-name="Path 35" class="cls-12" d="M181.39,222.65c1.16,1,2.48,1.86,3.65,2.86,3.15,2.67,5.13,6.39,7.08,10a6.53,6.53,0,0,1-3.61.24,25.9,25.9,0,0,0,.31,10.52,9.77,9.77,0,0,0-3.52,4.36,29.66,29.66,0,0,0-1.15,5.51q-1.69,12.27-3.41,24.55a3.83,3.83,0,0,1-.78,2.21,4.18,4.18,0,0,0-.6.59,3.27,3.27,0,0,0-.28,1.69c-.05.58-.42,1.26-1,1.18a1.23,1.23,0,0,1-.7-.45,16.34,16.34,0,0,1-1.57-1.95c-4.64,8.9-6.88,18.5-9.33,28.23-1.75,6.94-3.51,13.95-3.59,21.11a90.17,90.17,0,0,0,.63,10.13l.69,6.91c.56,5.55,1.12,11.11,1.73,16.66a41.87,41.87,0,0,0,2.05,10.4c1.89,5-.2,10.73.6,16.06.63,4.18,1.88,8.49.62,12.52-.5,1.61-1.38,3.08-2,4.64-1.62,3.87-1.79,8.17-1.93,12.37a51.35,51.35,0,0,0,.41,11c.67,3.76,2.19,7.45,1.9,11.26-.42,5.42-4.41,10-4.9,15.46-.39,4.32,1.51,8.49,3.54,12.32,1.5,2.82-.59,6.47-1.38,9.58-1.57,6.08,1.05,12.45,4.26,17.86a.86.86,0,0,0,.4.42c.37.14.7-.23.95-.53,2.41-3.1,6.69-4.27,10.62-3.93s7.6,1.95,11.2,3.56l5.1-11.37c.86-1.92,1.74-4,1.31-6.08a17.75,17.75,0,0,0-1.94-4.08c-1.57-3.19-1.65-6.91-1.66-10.49L195,447.8a44.23,44.23,0,0,0,8-17.17,55.12,55.12,0,0,1,.47,26.74,24.59,24.59,0,0,0-.79,4.07c-.3,5.61,4.09,10.35,5.27,15.85a3.49,3.49,0,0,1,.09,1.29,4.83,4.83,0,0,1-.65,1.49c-2.11,3.82-1.88,8.45-1.58,12.81a128.06,128.06,0,0,0,16.68,1.79,9.5,9.5,0,0,0,3.75-.39,10.42,10.42,0,0,0,3.11-2.28,68.13,68.13,0,0,1,11.7-8.85,27.35,27.35,0,0,0-9.56-9.44c1.27-1.86,4.15-1.71,5.84-3.21a5.53,5.53,0,0,0,1.57-3.09c.63-3.09-.15-6.3-.93-9.32a109.91,109.91,0,0,0-5.5-17.58,68,68,0,0,1-3-7.12c-2.06-6.78-.62-14.16-2.18-21.09-.5-2.21-1.31-4.5-.75-6.71.87-3.41,4.72-5.43,5.57-8.84,3-12.15,3.59-24.75,5.32-37.15a49.08,49.08,0,0,0,.62-7.16c0-2.51-.45-5-.63-7.5-.71-10,2.49-20,1.67-30a37.65,37.65,0,0,0-5.91-17.3c-5.78-8.93-1.75-21.56-1.14-32.18a23.71,23.71,0,0,1,2.47-10.22,17,17,0,0,0,1.46-5.82,6.13,6.13,0,0,0-.44-3.68,6.22,6.22,0,0,0-2.15-1.93c-1.83-1.2-.28-2.06-1.3-4a17,17,0,0,1-1.12-3.34,7.1,7.1,0,0,0-1.57-3.09,3,3,0,0,0-3.22-.78c-.75,0-1-1-1-1.74a24.74,24.74,0,0,0-2.46-7.83,4.26,4.26,0,0,0-1.9-2.43,4.4,4.4,0,0,0-2.59,0,8.39,8.39,0,0,0,1.18,2.56A22.13,22.13,0,0,1,222,230.9c-.79.23.79,0,0,0a5.49,5.49,0,0,1,1,3.37H200.89a1.66,1.66,0,0,1-.79-.14,1.9,1.9,0,0,1-.63-.94,13.59,13.59,0,0,0-2.05-3.05l-7.78-9.6a2,2,0,0,0-.67-.6,1.67,1.67,0,0,0-1,0A17.64,17.64,0,0,0,181.39,222.65Z"/><path id="Path_36" data-name="Path 36" class="cls-6" d="M209.34,352.76a7.68,7.68,0,0,1,3.83,1,3.88,3.88,0,0,1,1.9,3.32c-.09,1.49-1.23,2.67-2,3.94a10.4,10.4,0,0,0-1.22,2.48,1,1,0,0,0-.06.64c.1.3.42.45.69.58a5.9,5.9,0,0,1,3.47,5.16c-.07,3.07-3.07,5.55-2.9,8.65q.12,1,.33,1.92a14.71,14.71,0,0,1-1.06,7.78c-1,2.47-2.25,4.79-3.27,7.23-2.76,6.65-3.36,14-3.15,21.24.17,4.91-1.57,9.58-3.14,14.25a205.92,205.92,0,0,0,.7-28.32c-.11-2.56-.43-5-.31-7.55.19-4.09,2.47-7.8,3.05-11.8a59.39,59.39,0,0,0,.17-6.93c.11-4.72,1.39-9.38,1.47-14.11C207.91,358.89,207.6,355.45,209.34,352.76Z"/><path id="Path_37" data-name="Path 37" class="cls-7" d="M176.52,224.33a21.81,21.81,0,0,0-4.36,2.88,18.4,18.4,0,0,0-3.44,4.72,59.85,59.85,0,0,0-2.92,6.1c-1.11,2.7-2,5.7-1.27,8.52.69,2.56,2.65,4.55,4,6.82a57.43,57.43,0,0,1,3.19,7.44c1.38,3.32,3.28,6.42,4.65,9.76s2.19,7.07,1.33,10.54c-.26,1-1.92,1.82-1.92,2.87,0,1.73,2.5,3.61,4.17,4.11,1.91.59,4-.29,5.56-1.57,2.87-2.28,4.61-5.68,5.9-9.11a93,93,0,0,0,4.19-17.16c.72-4.26,1.4-8.53,1.78-12.82a32.44,32.44,0,0,0-.56-11.58,19.64,19.64,0,0,0-5.37-8.94c-2-2-5.4-4.6-8.37-4.68A13.88,13.88,0,0,0,176.52,224.33Z"/><path id="Path_38" data-name="Path 38" class="cls-11" d="M198.88,319.14a3.74,3.74,0,0,1-1.75,2.62,10.61,10.61,0,0,1-3,1.23c-2.11.61-4.35,1.18-6.48.63a12.9,12.9,0,0,1-4.54-2.58L159.29,302.8a31.72,31.72,0,0,1-5.24-4.65,32.08,32.08,0,0,1-2.49-3.53,17.27,17.27,0,0,1-2.31-4.6,8.22,8.22,0,0,1-.28-2.21,4.09,4.09,0,0,1,.5-2c.57-1,1.8-1.15,2.8-1.42a29.65,29.65,0,0,1,10.36-.79,1.4,1.4,0,0,1,1.4,1c.53,1,1,2,1.46,3a21.37,21.37,0,0,0,2.8,4.8,41.35,41.35,0,0,0,3.5,3.38c2.52,2.35,4.58,5.19,7.26,7.36,3.11,2.51,6.89,4,10.42,5.86s7,4.24,8.81,7.82a4.48,4.48,0,0,1,.59,2.4Z"/><path id="Path_39" data-name="Path 39" class="cls-6" d="M226.45,192a19.51,19.51,0,1,1-.55-4.56A20,20,0,0,1,226.45,192Z"/><path id="Path_40" data-name="Path 40" class="cls-11" d="M226.45,191.16a19.5,19.5,0,1,1-.55-4.56A20.1,20.1,0,0,1,226.45,191.16Z"/><path id="Path_41" data-name="Path 41" class="cls-6" d="M165.49,287.48a4.56,4.56,0,0,1-3.33.14c-4.37-1-9.2-1.68-13.19.2a4.06,4.06,0,0,1,.5-2c.57-1,1.8-1.16,2.81-1.43a29.39,29.39,0,0,1,10.36-.78,1.42,1.42,0,0,1,1.4,1C164.56,285.48,165,286.48,165.49,287.48Z"/><path id="Path_42" data-name="Path 42" class="cls-7" d="M157.27,261c-1,3.15-1.76,6.38-3.65,9.05a6.74,6.74,0,0,0-1.39,2.42,7.57,7.57,0,0,1-.32,1.95c-.27.54-.83.89-1.06,1.44-.34.79.1,1.8-.35,2.54a4,4,0,0,1-.74.79,5.5,5.5,0,0,0-1.37,4,13.49,13.49,0,0,1-.36,4.34c4.16-2.48,9.44-1.74,14.16-.69,1.31.29,2.94.51,3.79-.54s.36-2.44.48-3.7c.16-1.65,1.29-3,2-4.52a53.14,53.14,0,0,0,1.66-5.34c1.25-3.7,3.93-6.73,5.65-10.23a9.76,9.76,0,0,0,1.12-3.88,11.65,11.65,0,0,0-1.34-5,69.56,69.56,0,0,0-5.82-10.39c-1-1.47-2.72-4.19-4.27-1.84a44.06,44.06,0,0,0-3,6.38,119.18,119.18,0,0,0-5.2,13.24Z"/><path id="Path_43" data-name="Path 43" class="cls-7" d="M228.24,230.47a15.93,15.93,0,0,1-12.73-5,2,2,0,0,1-.56-.92,1.81,1.81,0,0,1,.36-1.29c.94-1.46,2.57-2.42,3.33-4s.5-3.37.56-5.09c.13-3.07,1.34-6.11,1.44-9.14a9.4,9.4,0,0,0-.17-2.31,14.26,14.26,0,0,1-.66-3.49c.1-2.3,2.18-4.1,2.52-6.37.45-2.89-2-5.41-4.36-7.08a26,26,0,0,0-5.95-3.07,18.84,18.84,0,0,0-4-1,15.7,15.7,0,0,0-7.53.84,12.59,12.59,0,0,0-2.8,1.5,3.8,3.8,0,0,0-1.25,1.3,4.3,4.3,0,0,0-.33,1.88c0,3.21.32,6.63-1.22,9.43-.78,1.5-2.12,2.73-2.77,4.31a7.12,7.12,0,0,0-.5,2.07,20.64,20.64,0,0,0-.12,2.22c-.05,4.15,0,8.52,2.11,12.11a32.23,32.23,0,0,1,2,3.39,3.87,3.87,0,0,1-.2,3.77,4.34,4.34,0,0,1-1.57,1.18,12.58,12.58,0,0,1-10.06.36,12.74,12.74,0,0,0,3-14.22,8.16,8.16,0,0,1-1.08-3.14,7.81,7.81,0,0,1,.78-2.88,15.69,15.69,0,0,0,.48-9.22c-.48-1.87-1.31-3.68-1.46-5.61a16.77,16.77,0,0,1,.19-4.36,14.17,14.17,0,0,1,9.7-11.16c.4-.13.78-.26,1.22-.37a26.46,26.46,0,0,1,5.82-.62c4.36-.14,8.79-.26,13,.88a17.21,17.21,0,0,1,6.73,3.46,12,12,0,0,1,3.25,4.3,15.28,15.28,0,0,1,.93,3c.18.84.31,1.69.44,2.54,1,6.05,1.9,12.21.89,18.25-.4,2.36-1.1,4.72-1.41,7.13C225.49,219.6,226.87,225.11,228.24,230.47Z"/><circle id="Ellipse_7" data-name="Ellipse 7" class="cls-13" cx="200.3" cy="236.78" r="1.46"/><circle id="Ellipse_8" data-name="Ellipse 8" class="cls-13" cx="224.98" cy="236.09" r="1.46"/><path id="Path_44" data-name="Path 44" class="cls-6" d="M200.3,162.85l-3.15-5.94a5.14,5.14,0,0,1,.66-.66,2.43,2.43,0,0,1,1.51-.36Z"/><path id="Path_45" data-name="Path 45" class="cls-6" d="M209,155.61l-3.56,5.27-2-5.78a6.43,6.43,0,0,1,2.74-.52A9.27,9.27,0,0,1,209,155.61Z"/><g id="Group_2" data-name="Group 2" class="cls-9"><path id="Path_46" data-name="Path 46" d="M195.44,223a4.26,4.26,0,0,1-1.57,1.18,12.62,12.62,0,0,1-8.94.75,12.61,12.61,0,0,1-1.12,1.19,12.58,12.58,0,0,0,10.06-.37,4.15,4.15,0,0,0,1.57-1.18,3.36,3.36,0,0,0,.5-2.72A2.83,2.83,0,0,1,195.44,223Z"/><path id="Path_47" data-name="Path 47" d="M186.91,196.66a16.73,16.73,0,0,1,.45,3.15,15.62,15.62,0,0,0-.45-4.72,34.58,34.58,0,0,1-1.47-5.61,4.58,4.58,0,0,0,0-.74,17.79,17.79,0,0,0,0,2.31C185.59,193,186.43,194.79,186.91,196.66Z"/><path id="Path_48" data-name="Path 48" d="M227.62,207a34.94,34.94,0,0,0,.42-6.3,33.79,33.79,0,0,1-.42,4.72c-.4,2.36-1.1,4.72-1.42,7.13a25.28,25.28,0,0,0-.18,3.89,22.64,22.64,0,0,1,.18-2.32C226.52,211.67,227.22,209.33,227.62,207Z"/><path id="Path_49" data-name="Path 49" d="M186.75,210.32a13.18,13.18,0,0,1-1-2.43,3.22,3.22,0,0,0-.09.87,8.16,8.16,0,0,0,1.08,3.14,11.77,11.77,0,0,1,1,4.17A12.07,12.07,0,0,0,186.75,210.32Z"/><path id="Path_50" data-name="Path 50" d="M220.47,202.69a9.67,9.67,0,0,1,.15,1.08v-.35a9.44,9.44,0,0,0-.18-2.31c-.17-.82-.45-1.64-.59-2.47a3.43,3.43,0,0,0-.07.56,14.79,14.79,0,0,0,.69,3.49Z"/><path id="Path_51" data-name="Path 51" d="M215.51,223.84a4.47,4.47,0,0,1-.34-.4,1.64,1.64,0,0,0-.22,1.06,2,2,0,0,0,.56.92,15.93,15.93,0,0,0,12.73,5c-.14-.52-.27-1-.39-1.57A15.88,15.88,0,0,1,215.51,223.84Z"/><path id="Path_52" data-name="Path 52" d="M222.32,191.37a.14.14,0,0,1,0-.09c.44-2.89-1.95-5.41-4.37-7.08a26.14,26.14,0,0,0-5.94-3.07,19.13,19.13,0,0,0-4-1,15.68,15.68,0,0,0-7.53.84,12.16,12.16,0,0,0-2.8,1.5,3.62,3.62,0,0,0-1.25,1.3,4,4,0,0,0-.33,1.88v1.57a4.05,4.05,0,0,1,.33-1.88,3.7,3.7,0,0,1,1.25-1.3,11.76,11.76,0,0,1,2.8-1.49,15.56,15.56,0,0,1,7.53-.85,19.78,19.78,0,0,1,4,1,25.78,25.78,0,0,1,5.94,3.08C220,187.13,221.93,189.08,222.32,191.37Z"/><path id="Path_53" data-name="Path 53" d="M194.9,195.14c-.79,1.5-2.12,2.72-2.78,4.31a7.66,7.66,0,0,0-.5,2.06c-.07.74-.11,1.48-.11,2.22v1.57c0-.74,0-1.48.11-2.22a7.66,7.66,0,0,1,.5-2.06c.66-1.57,2-2.81,2.78-4.31,1.27-2.36,1.24-5.07,1.22-7.77a13.14,13.14,0,0,1-1.22,6.2Z"/></g><path id="Path_54" data-name="Path 54" class="cls-6" d="M226.28,186.19a2.1,2.1,0,0,1-.38.41,3.17,3.17,0,0,1-.92.55c-2.29,1-2.19-2.24-3.39-3.35a4.06,4.06,0,0,0-2.66-.78q-3.45-.18-6.91-.31c-3.84-.14-7.68-.21-11.52-.13-1.84,0-3.68.11-5.51.23a15,15,0,0,0-6.21,1.43,6.54,6.54,0,0,0-1.66,1.3c-.43.47-.89,1.07-1.48,1.18a14.14,14.14,0,0,1,9.7-11.16,19.46,19.46,0,0,1,26.74,3.34,12.17,12.17,0,0,1,3.25,4.3,14.89,14.89,0,0,1,1,3Z"/><path id="Path_55" data-name="Path 55" class="cls-14" d="M225,185.58c-2.29,1-2.19-2.24-3.39-3.35a4.06,4.06,0,0,0-2.66-.79,210.11,210.11,0,0,0-23.94-.2c-2.84.19-6,.62-7.86,2.72-.49.54-1,1.23-1.73,1.2-.25-1.57-.42-3.21-.54-4.82a5.26,5.26,0,0,1,.1-1.81c.2-.67.64-1.25.87-1.91a7.48,7.48,0,0,0,.24-2.58,18.64,18.64,0,0,1,9.17-15.85,8.78,8.78,0,0,0,1.91-1.29,5.79,5.79,0,0,1,.65-.66,2.55,2.55,0,0,1,1.52-.37h1.12a10.14,10.14,0,0,0,2.95-.78,6.43,6.43,0,0,1,2.74-.52,9.11,9.11,0,0,1,2.85,1,7.52,7.52,0,0,0,1.33.48c.71.16,1.45.16,2.17.3a10.22,10.22,0,0,1,3.25,1.45,15.52,15.52,0,0,1,3.28,2.36,14.66,14.66,0,0,1,2.53,4.12,29.71,29.71,0,0,1,2.36,6.54c.63,3.26.32,6.78,1.83,9.74C226.65,182.44,227.49,184.5,225,185.58Z"/><path id="Path_56" data-name="Path 56" class="cls-6" d="M185.12,183.11s16.3-14.83,40.58-2.53C225.7,180.58,198.29,174.34,185.12,183.11Z"/><path id="Path_57" data-name="Path 57" class="cls-15" d="M7.46,258.9c-2.21-3.63-5.55-7-5-11.08,6.1.7,11.89-.78,17.48-3.37a144.8,144.8,0,0,0,16-9.24c2.06-1.3,4.11-2.57,6.15-3.75,3.24-1.86,6.46-3.94,9.76-5.75,4.71-2.6,9.53-4.72,14.83-5.13a25.18,25.18,0,0,1,2.88-.07c6.53.12,13.3,1.88,19-1l.35-.19c3.26-1.78,5.62-4.82,8.42-7.28a36.69,36.69,0,0,1,6.52-4.53c4.24-2.36,8.83-4.25,13.16-6.47a20.81,20.81,0,0,0,3.15-2l.74-.59.16-.14.54-.45.33-.3.35-.32.27-.25.43-.41,0-.06.68-.67.28-.28.48-.5.28-.28c.48-.5,1-1,1.45-1.49s1.14-1.14,1.73-1.69h0l.57-.5.17-.14.45-.38.21-.18.45-.34.22-.18.68-.48a5.38,5.38,0,0,1,.66-.38l-1.47-3.56,4.23-1.75L192.5,325.26,188.26,327l-33.38-81-.23.24a67.13,67.13,0,0,1-27.6,16.42H127c-5.81,1.75-12.31,3-17.2,6.25a16.41,16.41,0,0,0-4.45,4.26c-1.15,1.63-2,3.5-3.14,5.07-.23.29-.48.57-.74.84a27.42,27.42,0,0,1-4.71,3.75l-.75.51a153.51,153.51,0,0,1-15.81,9.74,62.42,62.42,0,0,1-9.82,4.09c-2.46.79-5,1.36-7.47,2.14a28.87,28.87,0,0,0-4.8,1.94c-4.17,2.17-7.37,5.59-10.4,9.23-2.65,3.19-5.17,6.57-8.08,9.48-1.82,1.81-4.6,3.53-6.8,2.47l-.45-.26a2.58,2.58,0,0,0,.19-.37c1.74-3.64-.4-8.14-3.28-11.05-.3-.31-.6-.61-.92-.89s-.88-.79-1.33-1.18c-2.46-2.12-5.08-4.09-6.78-6.81a22,22,0,0,1-2.61-7.4c-.79-3.7-1.32-7.52-3.33-10.68-1.32-2.08-3.29-3.86-4.72-5.86a9,9,0,0,1-1.73-4c-.32-2.56.87-5.06,1.31-7.6a9.4,9.4,0,0,0,.17-2.11,11.2,11.2,0,0,0-1.87-5.27Z"/><rect id="Rectangle_1" data-name="Rectangle 1" class="cls-16" x="157.91" y="180.02" width="4.51" height="150.59" transform="translate(-85.21 80.3) rotate(-22.4)"/><path id="Path_58" data-name="Path 58" class="cls-17" d="M15.71,283.29c2,3.11,2.5,6.85,3.26,10.5a22.06,22.06,0,0,0,2.57,7.28c1.68,2.68,4.26,4.61,6.67,6.69.44.39.88.79,1.31,1.16s.61.58.9.87c2.83,2.87,4.93,7.3,3.22,10.88a2.31,2.31,0,0,1-.18.35,3.7,3.7,0,0,0,.43.25c2.17,1.06,4.9-.63,6.7-2.41,2.86-2.87,5.34-6.18,7.94-9.32,3-3.59,6.13-7,10.22-9.09a29.1,29.1,0,0,1,4.72-1.9c2.42-.78,4.92-1.34,7.34-2.1a60.39,60.39,0,0,0,9.66-4A150.49,150.49,0,0,0,96,282.85l.74-.5a26.53,26.53,0,0,0,4.64-3.68,9.52,9.52,0,0,0,.72-.83c1.22-1.57,2-3.37,3.15-5a16.4,16.4,0,0,1,4.37-4.18c4.82-3.2,11.2-4.43,16.92-6.15h.06a66.05,66.05,0,0,0,27.14-16.15,4.4,4.4,0,0,0,1.36-2,4.6,4.6,0,0,0-.93-3.18c-.67-1.15-1.32-2.3-2-3.46a155.74,155.74,0,0,1-7.75-16.3c-.5-1.23-1-2.45-1.44-3.68q-1.78-4.73-3.26-9.57c-.32-1.07-.63-2.15-.93-3.23-.06-.2-.12-.42-.17-.66-1.31-5.25-3.06-17.52-8.44-13.85a31.36,31.36,0,0,0-4.44,3.86c-1,1.06-2.07,2.16-3.15,3.21a32.1,32.1,0,0,1-2.77,2.43,19.83,19.83,0,0,1-3.15,2c-4.27,2.19-8.78,4-12.94,6.37a36.4,36.4,0,0,0-6.42,4.45c-2.75,2.42-5.07,5.41-8.28,7.16l-.34.19c-5.65,2.87-12.29,1.15-18.72,1-.94,0-1.89,0-2.83.07-5.21.4-10,2.49-14.59,5-3.24,1.79-6.4,3.82-9.59,5.65-2,1.16-4,2.41-6.05,3.69-5.15,3.24-10.36,6.64-15.73,9.09s-11.19,4-17.2,3.31c-.51,4.05,2.77,7.32,5,10.9A10.77,10.77,0,0,1,10.85,264a9,9,0,0,1-.15,2.07c-.44,2.51-1.57,5-1.29,7.49a8.67,8.67,0,0,0,1.69,4C12.47,279.49,14.4,281.25,15.71,283.29Z"/><path id="Path_59" data-name="Path 59" class="cls-11" d="M175.61,299.68a69,69,0,0,0,13.87,9.21c7,3.2,2.36,14.68,2.36,14.68a12.67,12.67,0,0,1-12.59-5.51C174.07,310.86,175.61,299.68,175.61,299.68Z"/><path id="Path_76" data-name="Path 76" class="cls-4" d="M175.27,586.49s17.62-.55,22.93-4.33,27.1-8.3,28.43-2.23,26.48,30.16,6.58,30.33-46.22-3.1-51.52-6.34S175.27,586.49,175.27,586.49Z"/><path id="Path_77" data-name="Path 77" class="cls-18" d="M233.57,608.14c-19.9.17-46.23-3.1-51.53-6.29-4-2.46-5.65-11.28-6.18-15.35h-.59s1.12,14.21,6.42,17.44,31.63,6.49,51.52,6.33c5.75,0,7.73-2.09,7.62-5.12C240,607,237.84,608.11,233.57,608.14Z"/><path id="Path_78" data-name="Path 78" class="cls-4" d="M605,542.29s-20.76-4.15-26.28-9.69-30.44-15.21-33.21-8.3-37.35,30.44-13.83,34.61,55.33,5.5,62.25,2.77S605,542.29,605,542.29Z"/><path id="Path_79" data-name="Path 79" class="cls-18" d="M531.63,556.3c23.53,4.14,55.34,5.5,62.26,2.76,5.26-2.11,8.93-12.23,10.38-16.94l.69.15s-4.15,16.59-11.07,19.36-38.73,1.38-62.26-2.77c-6.78-1.2-8.73-4-8-7.56C524.22,553.64,526.59,555.42,531.63,556.3Z"/></g><path class="cls-2" d="M328.41,234.7a58,58,0,0,0-4.2-4.37c-2.88-2.47-6.18-6.84-16.72-3.62a23.42,23.42,0,0,0-2.41.92c-.93.39-3.81.4-6.76-1.94-4.69-3.72-6.52-6.53-12.94-6.62-7.47-.1-8.65,9.21-14.46,11.6-3.69,1.51-13.44,3-15.46,3.7Z"/><path class="cls-19" d="M470.91,126.21a51.25,51.25,0,0,1,3.68-3.83c2.52-2.17,5.41-6,14.66-3.17a22.14,22.14,0,0,1,2.1.8c.82.35,3.34.36,5.93-1.7,4.11-3.26,5.72-5.72,11.34-5.8,6.55-.09,7.58,8.08,12.67,10.17,3.24,1.33,11.79,2.65,13.56,3.24Z"/><path class="cls-2" d="M584.71,170a87.18,87.18,0,0,1,6.47-6.73c4.43-3.81,9.5-10.54,25.74-5.58,1.26.39,2.48.9,3.7,1.41,1.43.61,5.86.62,10.4-3,7.22-5.73,10-10,19.93-10.19,11.5-.15,13.31,14.19,22.25,17.86,5.69,2.33,20.7,4.65,23.8,5.69Z"/><path class="cls-2" d="M251.18,89.56a87.71,87.71,0,0,1,6.47-6.72c4.43-3.81,9.5-10.54,25.74-5.58,1.26.39,2.48.9,3.7,1.41,1.43.61,5.86.62,10.4-3,7.22-5.73,10-10,19.93-10.19,11.5-.15,13.31,14.18,22.25,17.85,5.69,2.34,20.7,4.66,23.8,5.7Z"/></svg>