<svg xmlns="http://www.w3.org/2000/svg" xmlns:xlink="http://www.w3.org/1999/xlink" viewBox="0 0 249 282.06"><defs><style>.cls-1{fill:#f9677c;}.cls-2{isolation:isolate;}.cls-3{fill:#e8f3f9;}.cls-4{fill:#ffc5c5;}.cls-5{fill:#07bb79;}.cls-6{fill:#158457;}.cls-7{fill:#0da366;}.cls-8{clip-path:url(#clip-path);}.cls-9{opacity:0.6;}.cls-15,.cls-9{mix-blend-mode:overlay;}.cls-10{fill:#ffbbb9;}.cls-11{fill:#fff;}.cls-12{fill:#151560;}.cls-13{fill:#f5707e;}.cls-14{fill:#151549;}.cls-16,.cls-18{fill:#b7c5ce;}.cls-17{fill:#2f30cd;}.cls-18{opacity:0.3;}</style><clipPath id="clip-path" transform="translate(-7.37 -8.44)"><path class="cls-1" d="M172.08,136.09c-.22-.36-.45-.71-.69-1a1.66,1.66,0,0,0-.22-.32l-.08-.09c-4.73-5.57-8.86-11.79-14.58-16.42-2.48-2-6.58-5.64-9.91-5.14-9.23,1.39-6.7,3.8-8.91,6.31-3,3.34-6.71,4.09-10.81,4.26-10.63.47-7.82-5.38-12.39-3-9.9,5.06-19.76,10.19-29.64,15.29-1.36.7-2.86,1.58-3.18,3.07-1.07,5,7.73,22.46,9.16,27.2,2.77,9.25,9.93,6.48,4.14,43.22-.11.67,1.66,1.35,2.08,1.89,5.66,7.22,15.09,1.06,23-.49,5.91-1.17,13.71,1.7,19-1.85,5.94-4,7.75-11.64,9.36-18.16a86.15,86.15,0,0,1,8-21.63c2.62-4.72,7.05-4.59,8.42-9.91.31-1.19.69,6.5,1.85-3.23.42-3.5-1.92-5.79-3.23-9.71,1.16-1,4-3.66,5-4.84a11.19,11.19,0,0,0,2.38-2.32l.69-.52A1.89,1.89,0,0,0,172.08,136.09ZM121.9,204.64l.36-.15a.6.6,0,0,0,.08.08Zm8.66.35a.5.5,0,0,0-.13,0l.17-.08A.49.49,0,0,1,130.56,205Z"/></clipPath></defs><title>501</title><g class="cls-2"><g id="Layer_2" data-name="Layer 2"><path class="cls-3" d="M205,244.15a50.47,50.47,0,0,0-11.34-2.48,5.81,5.81,0,0,0-5.62-2q-5.47,1.19-11,2.24c-1.87.2-3.73.44-5.6.71-6.08.55-12.17,1-18.27,1.42a6.79,6.79,0,0,0-2.34-.19l-12.1,1c-18.37,1.55-36.91,1.14-55.37.51-4.88-.16-37.65-3.18-30.3,7.62,2,3,5.6,4.72,9,5.79,7.52,2.39,15.92,3.07,23.73,3.9,13.82,1.46,27.72,1.94,41.6,2.18,16.47.29,35.66-2.49,51.81-6.12C183.28,257.8,218.24,248.79,205,244.15Z" transform="translate(-7.37 -8.44)"/><path class="cls-4" d="M188.67,94a8.5,8.5,0,0,0-4.85-3.52c-4.2-1-1.48,5-1.29,7.1.91,10.42,1.18,21-.76,31.28-.74,3.94-2.26,10.21-7,10.93-2.29.34-8.5-9.07-11-9.43-1.22-.18-6.15,5.78-6.12,6.92a1.91,1.91,0,0,0-.85,2.3,2,2,0,0,0-.31,1.12,2.06,2.06,0,0,0-2.08,1.77,1.88,1.88,0,0,0-1.12,3.15l.89.81a1.77,1.77,0,0,0-.22,2.44,1.92,1.92,0,0,0,.66,2.37c2.19,1.56-2.74,6.76-.44,8.16-.38,1.47,8.76-1.21,10-1.87l.17-.1c1.63.91,5.46,1.57,5,.19.27-.32-.26-.1,0-.46.5-.69-.68,0,0-.92a27.48,27.48,0,0,0,.28-2.8,2.13,2.13,0,0,0,1.13,1.67,1.76,1.76,0,0,0,2.19,1.29l.69-.17a2,2,0,0,0,1.46-.49c2.84.33,5.32,2.5,8.32,1.43a8.43,8.43,0,0,0,4.38-4.24,2,2,0,0,0,1.05-.76,31,31,0,0,0,2.87-5h0c-.6,1.43,3.75,5,3.66,5.75,1.25-10.15,2.71-20.36,2.09-30.62C196.83,113.17,194.28,101.49,188.67,94Zm-5.76,59.24c-1.33,1.06-2.64.27-4-.25a15.88,15.88,0,0,0-3.27-1c.13-.29.27-.58.4-.88l.95-1a1.86,1.86,0,0,0,3.57.06l.93-3.43a2.56,2.56,0,0,0,1.81.86,2.9,2.9,0,0,0,.91-.14,2,2,0,0,0,3.21-1.28,1.85,1.85,0,0,0,.57.06c-.3.62-.62,1.22-1,1.82a2.07,2.07,0,0,0-1.64,1.26A9.41,9.41,0,0,1,182.91,153.24Z" transform="translate(-7.37 -8.44)"/><path class="cls-5" d="M81.21,215.09c3.2,2.74,7.49,3.95,9.92.68a9.89,9.89,0,0,0,1.56-6c-.21-11.91-3.23-24.27-6.89-36a148.25,148.25,0,0,0-15.45-34.6,311.68,311.68,0,0,0-22.41-32.21c-2-2.53-6.41-8.58-10.68-14.8a3.67,3.67,0,0,0-6.4.66c-4.6,11.06-4.9,24.77-2.06,37.9q.69,3.19,1.58,6.35C34.3,151,41,164.3,49.12,176.47c8.58,12.88,18.65,26.26,29.8,36.59C79.67,213.75,80.43,214.43,81.21,215.09Z" transform="translate(-7.37 -8.44)"/><path class="cls-6" d="M116.46,247.3A380.86,380.86,0,0,1,76.2,193.75c-11-17.43-21.24-35.56-29.09-54.63a321.75,321.75,0,0,1-11.27-33c-.08-.28-.53-.16-.44.12,2.92,10.13,6.17,20.17,10.06,30a266,266,0,0,0,11.76,25.5,447.75,447.75,0,0,0,35.34,56.92,351.7,351.7,0,0,0,23.58,29c.2.22.52-.11.32-.33Z" transform="translate(-7.37 -8.44)"/><path class="cls-7" d="M96.89,135.55A144.42,144.42,0,0,0,85.53,112c-2.46-4.11-4.56-9.67-8.66-12.45-7.56-5.11-8.54,23.77-8.83,27a111.37,111.37,0,0,0,1.46,29.84c2.87,16.28,8.66,37.8,19.57,50.68,4.16,4.92,11.11,9.42,13.34.8,2-7.85,1.79-17.22,1.8-25.28,0-3.09-.08-6.19-.25-9.28C103.28,160.6,101.35,147.46,96.89,135.55Zm-14-7.31v.06h0Z" transform="translate(-7.37 -8.44)"/><path class="cls-6" d="M76.89,113.06a223.79,223.79,0,0,0,6.26,57.3c4.46,18.34,11.46,35.8,19.95,52.63,4.77,9.44,9.92,18.69,15.12,27.9.14.26.54,0,.4-.23-9.16-16.24-18.2-32.62-25.21-49.92A221.57,221.57,0,0,1,79,145.39a223.94,223.94,0,0,1-1.68-32.33c0-.29-.46-.29-.46,0Z" transform="translate(-7.37 -8.44)"/><path class="cls-7" d="M94.88,218.17C88.31,209.06,79.29,200.9,70.46,194a84.42,84.42,0,0,0-27.87-14.92c-1.54-.46-3.1-.86-4.66-1.2-9.31-2.05-19.37-1.67-28.11,1.95a4.05,4.05,0,0,0-1,6.86c3.76,3.09,7.22,6.08,8.74,7.57a186.66,186.66,0,0,0,21.94,18.11A89.48,89.48,0,0,0,64.1,224.62c8.6,2.85,17.73,5.16,26.84,5.09a8.19,8.19,0,0,0,3.14-.59c4.32-1.83,4.06-6.07,2.09-9.08C95.75,219.41,95.32,218.78,94.88,218.17Z" transform="translate(-7.37 -8.44)"/><path class="cls-6" d="M116.92,248.56a231.62,231.62,0,0,0-36-32.53C68.82,207.1,56,198.77,42.32,192.54a197,197,0,0,0-23.78-8.78c-.28-.09-.41.36-.12.45a178.57,178.57,0,0,1,39.63,17.14,267.79,267.79,0,0,1,39.19,28.38,213.26,213.26,0,0,1,19.35,19.15c.2.23.52-.1.33-.32Z" transform="translate(-7.37 -8.44)"/><path class="cls-6" d="M56.53,130.15a2.32,2.32,0,0,0-2.45-1.76,2.51,2.51,0,0,0-1.49.64c-.18.15-.75.63,0,0a3.16,3.16,0,0,0-.85.86,3,3,0,0,0,3.06,4.47,3.6,3.6,0,0,0,1.93-5.82c-1.74-2.31-4.68-1.62-5.25,1.21-.48,2.34,1,5.3,3.7,5,2.44-.26,3.09-3.19,2.77-5.22s-2.19-3.86-4.38-3a3.42,3.42,0,0,0-1.42,5c1.39,2.19,4.48,1.5,5.6-.57a3.49,3.49,0,0,0-2.67-5.13,4,4,0,0,0-4.58,4c0,2.46,2.26,5,4.89,4.37,2.27-.57,3-3.36,2.37-5.37A3.35,3.35,0,0,0,52,127.55a3.93,3.93,0,1,0,6.26,4.56,3.94,3.94,0,0,0-2.83-5.41c-2.29-.39-4,1.42-4.55,3.51a5.78,5.78,0,0,0,2.1,6,3.51,3.51,0,0,0,5.51-2.42c.25-2.33-.75-5.37-3-6.37A3.68,3.68,0,0,0,50.23,130c-.41,2.32.65,5.33,3.15,5.92a4.48,4.48,0,0,0,5.09-3.1c.69-2.49-1.06-4.92-3.33-5.79a3.54,3.54,0,0,0-4.84,2.78,4.79,4.79,0,0,0,1.86,5,4.25,4.25,0,0,0,5.69-1.32,4.51,4.51,0,0,0-.15-5.78,4.76,4.76,0,0,0-5.68-.6c-4.49,2.53-1.76,8.77,3,8.5s5.44-7.25,1.41-9.22a4,4,0,0,0-5.7,2.45,6,6,0,0,0,2.8,6c2.11,1.35,5.39,1.09,6-1.78.51-2.37-1.62-5.1-3.67-6.07a3.93,3.93,0,0,0-5.49,3c-.5,2.38,1.22,5.25,3.25,6.44,2.38,1.4,5.39-1.7,3.12-3.67-1.79-1.55-4.42,1-2.62,2.61l.11-2,1.43-.19c-.67-.09-1.45-1.34-1.61-1.92a1.13,1.13,0,0,1,0-.77c.14-.33.09-.19.19-.2.92,0,1.11,1.61,1.65,1.95l.33-.27a1.5,1.5,0,0,1-.51-.15,4.2,4.2,0,0,1-.81-.65c-.16-.19-.86-1.25-.6-1.5s.66.14.82.32c.45.49.53,1.69-.22,1.92s-1.88-.57-1.43-1.29c.28-.46,1.4-.77,1.67-.19s-.65,1.45-.94,1.31c-.69-.35-.28-1.42.23-1.64l-1.42.19c.68.09,1.83.4,1.91,1.27,0,.3-.21.77-.62.75s-.38-1-.44-1.44-.2-.21,0-.12c.4.2,0-.18.47.29a2.42,2.42,0,0,1,.41,1.07,6.21,6.21,0,0,1,.13.73c-.12.45,0,.59.21.41s.24-.09,0-.08a2.17,2.17,0,0,1-.24-.29,2.81,2.81,0,0,1-.35-.9,2,2,0,0,1,.24-1.47c.09-.09.18-.43.24,0,0,.15-.41-.19-.34,0-.06-.18.18-.43.16-.51-.19-.69-.49.09-.42.37a.68.68,0,0,1-.08.24c-.1.18,0,.15.34-.11,0-.12-.31-.36-.35-.54a.75.75,0,0,1,.09-.51c-.06.14.53-.25.24-.09.17-.1-.72-.45.28-.17.57.15.5.63.46.38.06.44-1.13.33-1.08.25a8.47,8.47,0,0,1,.12.84c0,.18-.2.64-.15.75.82.2,1.13.08,1-.36a1,1,0,0,1-.06-.49c.14-.59-.3-.54-1.32.14l.13.24c.26,1.18.65,1.46,1.18.86q1.28-1.32-2.15-.71c.58,2.31,4.14,1.33,3.57-1Z" transform="translate(-7.37 -8.44)"/><path class="cls-6" d="M45.94,165.72a2.05,2.05,0,0,0,1.52,2,2.29,2.29,0,0,0,2.17-.59A2.19,2.19,0,0,0,50,164.5a3,3,0,0,0-1.33-1.19,1.91,1.91,0,0,0-1.65-.1,1.86,1.86,0,0,0-1.07,1.2,3.16,3.16,0,0,0,2.15,3.79,2.48,2.48,0,0,0,3.2-3.07,2.66,2.66,0,0,0-1.5-1.77,2.44,2.44,0,0,0-2.49.32,2.74,2.74,0,0,0-1,2.11A2.62,2.62,0,0,0,47.45,168a1.84,1.84,0,0,0,2.24-.29,2.9,2.9,0,0,0,.71-1.65,2.44,2.44,0,0,0-.15-1A2.85,2.85,0,0,0,48,163.13a2.09,2.09,0,0,0-2,.72,2.43,2.43,0,0,0-.37,2,2.74,2.74,0,0,0,2,2,1.85,1.85,0,1,0,1-3.56c-.31-.06.37.23.11.06l.23.17c.18.25.23.31.16.19s.13.47.06.15l0,.31c-.06.34-.07.42,0,.23l-1.29,1.29s-.5,0-.26,0a.89.89,0,0,1-.48-.11c-.16-.08-.2-.09-.12-.05s-.34-.28-.18-.15.15.28-.11-.15c.13.22-.09-.22-.08-.23s0,.16,0,.16l0-.34c0,.14,0,.1,0-.09a1.22,1.22,0,0,1,.34-.71l2.24-.29a1.59,1.59,0,0,1,.47.46c.13.33.16.43.12.29s0-.05,0,.14c0,.34,0,.16,0,.07s-.08.48,0,.28-.25.43-.09.21c0,0-.33.35-.16.21,0,0-.41.27-.21.17a1.36,1.36,0,0,1-.84.16,1.58,1.58,0,0,1-.67-.32c.11.11-.26-.42-.14-.18,0,0-.17-.47-.11-.24s0-.28,0-.28c0,.24.05-.28.05-.28s0,.09,0-.09a.68.68,0,0,1,.18-.29c.2-.26.07-.09,0,0l.82-.47c-.32.1.48,0,.15,0s.41.08.2,0,.41.23.16.07.34.31.09.07.21.32.1.14,0,.17,0,.17a.56.56,0,0,1,0-.12c0-.15,0-.06,0,.28,0-.32-.11.47,0,.14l-2.72,1.11.27.13q.18.12,0,0a.77.77,0,0,1-.28-.31,1.6,1.6,0,0,1,.57-2l.32-.15c.93-.23,1.6.29,2,1.58a1.87,1.87,0,0,0-1.85-1.85,1.9,1.9,0,0,0-1.85,1.85Z" transform="translate(-7.37 -8.44)"/><path class="cls-6" d="M32.92,130.15a3,3,0,0,0,.32,3.58c1.11,1.22,2.95.49,3.7-.72a2.75,2.75,0,0,0-.42-3.54,2.4,2.4,0,0,0-3.37.84c-1,1.73-.08,4.7,2.29,4.38,1.3-.17,2-1.64,2.05-2.84a3.68,3.68,0,0,0-1.08-2.69,2.87,2.87,0,0,0-1.82-.85,2.38,2.38,0,0,0-2,1.34,3.12,3.12,0,0,0,.56,3.71,1.85,1.85,0,0,0,2.62-2.61c-.22-.2,0,.11.08.18s.06.14,0,0,0-.08,0,.18-.1.33,0,.11a.94.94,0,0,1-.41.49l-1.42.19-.22-.09c.14.08.14.08,0,0s-.12-.09,0,0,.06.06,0,0c-.27-.21.12.06,0,.12s-.13-.44,0,0c0,.25-.07-.37,0-.13s0,.14,0-.06c0,.23,0,0,.07-.11-.19.35.28-.27,0,0l1.8-.48c-.29-.05.21.13.29.19s.31.34.28.29a.68.68,0,0,1,.1.5c-.08.32,0,.07,0,0s-.22.4-.06.15a1.24,1.24,0,0,1-.41.41.88.88,0,0,1-.44.12c-.19,0-.21,0-.06,0l-1.6-.91c0-.09-.1-.59-.1-.42s0,.08,0-.06a.53.53,0,0,1,.11-.34c-.1.21,0,0,.06-.08s.55-.27.28-.22l1.8.47a.84.84,0,0,1,.19.55c0,.11-.24.55,0,.26a1.85,1.85,0,0,0-.66-2.53,1.89,1.89,0,0,0-2.53.66Z" transform="translate(-7.37 -8.44)"/><path class="cls-6" d="M48.26,209c1.77-2.6-.38-6.19-3.38-6.27A1.87,1.87,0,0,0,43,204.54a5.43,5.43,0,0,0,2.2,4.2c1.3,1,3.48,1.56,4.82.32a3.36,3.36,0,0,0,.11-4.38,3.74,3.74,0,0,0-4.36-1.46,3.46,3.46,0,0,0-2.19,4.1,3.31,3.31,0,0,0,3.74,2.23,3.12,3.12,0,0,0,2.34-3.73c-.32-1.76-1.73-2.76-3.28-3.43a1.93,1.93,0,0,0-2.24.29,4.19,4.19,0,0,0,.12,5.85,3.85,3.85,0,0,0,6.07-1.05,3.67,3.67,0,0,0-3.14-5.38,3.52,3.52,0,0,0-3.34,5,3.58,3.58,0,0,0,6.13.58A3.72,3.72,0,0,0,47.72,202a3.85,3.85,0,0,0-4.3,4.81,4.06,4.06,0,0,0,5.79,2.22,4.23,4.23,0,0,0,.89-6.38,4.07,4.07,0,0,0-6.25.37c-1.27,2-.48,5,1.93,5.66s5.08-1.47,4.46-4c-.56-2.28-3.69-3.48-5.5-1.82-2.06,1.91-1.06,5.38,1.23,6.61a4.12,4.12,0,0,0,6-3.12,3.83,3.83,0,0,0-4.87-4c-2.64.88-3.31,4.82-.86,6.32s5.71-.6,5.14-3.39-4.26-3.7-6.29-1.93a2.93,2.93,0,0,0-.7,3.79,2.58,2.58,0,0,0,3.95.45c1.75-1.62-.87-4.23-2.61-2.61l-.15.13.82-.47s1.19,1.86,1.38,1.52c0,0,0-.1,0-.12l.08-.45c0-.27.1-.08.18-.17-.26.29-.16-.24.16.11a1,1,0,0,1,.19.31s-.06,0-.06,0c0-.17-.19.13-.14,0-.07.14.27,0,0,.25s-.52.17-.76-.2a1.46,1.46,0,0,1-.13-.47c-.1,0-.34.4-.52.3s-.19-.52-.08-.67.32.19.23.22-.08-.25,0-.25c.36,0,.91.49.4.79-.16.09-.37-.06-.47-.19.19.26,0,.12.21-.05-.26.25,0-.56.18,0,0-.07-.14.12-.18.15l.05,0c-.06,0,0-.14,0-.14s-.09.23-.21.28-.12.08-.17-.14-.08-.38,0-.45l-2.24.29a7.53,7.53,0,0,1,1.11.53,3.1,3.1,0,0,0,.38.3c.2.05-.12,0,.06,0s.47-.75.91-.43c.22.17.12.67.11.65,0-.21-.1.23.08.18,0,0,.81-.7.78-.8s-.17,0-.19-.06c-.12-.22-.63-.4-.8-.66a1.5,1.5,0,0,1-.25-.79l-1.85,1.85c.32,0,.33.49.19.71-1.35,2,1.86,3.82,3.19,1.86Z" transform="translate(-7.37 -8.44)"/><path class="cls-6" d="M40.49,183.46a2,2,0,0,0-1.76-.1,2,2,0,0,0-1.07,1.1,2.09,2.09,0,0,0,.49,2.34,2.37,2.37,0,0,0,3.45-.27,2.13,2.13,0,0,0,.38-2,2.28,2.28,0,0,0-1.52-1.5,2.31,2.31,0,0,0-2.91,1.53,1.85,1.85,0,1,0,3.56,1v0l-.18.44a.16.16,0,0,1,0-.07l-.29.37.08-.08-.38.29.07,0-.44.19a.43.43,0,0,1,.16,0l-.49.07h.12l-.49-.07.16,0-.44-.18a.3.3,0,0,1,.11.06l-.38-.29.09.08-.29-.38,0,.07-.18-.44a.24.24,0,0,1,0,.08l-.07-.49a.22.22,0,0,1,0,.08l.06-.49a.19.19,0,0,1,0,.08l.19-.44a.33.33,0,0,1-.06.1l.29-.37-.06.06.37-.29-.1.06.44-.18-.17,0,.49-.06h-.17l.49.07-.12,0,.45.19-.07,0,.37.29-.06-.06.29.38a.3.3,0,0,1,0-.08l.19.45a.17.17,0,0,1,0-.1l.07.49v-.05l-.06.49v-.05l-.19.44L41,186l-.29.38,0,0-.82.47h0l-.49.07h0l-.93-.26,0,0a2,2,0,0,0,1.42.18,1.93,1.93,0,0,0,1.11-.85,1.89,1.89,0,0,0-.67-2.53Z" transform="translate(-7.37 -8.44)"/><path class="cls-6" d="M83.07,124.46c-1.36,2.11.49,6.31,3.33,4.83a2.9,2.9,0,0,0-.52-5.26,1.84,1.84,0,0,0-1.8.48,4.14,4.14,0,0,0,.18,5.84A2.73,2.73,0,0,0,89,128a3.72,3.72,0,0,0-5.2-3.28,3.43,3.43,0,0,0-1.08,5.6c1.71,1.59,4.76,1.19,5.44-1.25a3.41,3.41,0,0,0-3.29-4.42,3.56,3.56,0,0,0-2.8,5.32,3.58,3.58,0,1,0,4.82-5,3.24,3.24,0,0,0-4.77,2.1,3.15,3.15,0,0,0,3.65,4,3.25,3.25,0,0,0,1.68-5.43,3.52,3.52,0,0,0-5.6,1.06,3.76,3.76,0,1,0,7,2.17,3.93,3.93,0,0,0-4.06-4.24,4,4,0,0,0-3.11,6.07,4.1,4.1,0,0,0,6.74.34c1.76-2.4-.2-6.23-3.33-5.56-2.81.61-3.17,4.18-1,5.75A1.85,1.85,0,0,0,86,128.11c.38.27.51.57.22.88a.56.56,0,0,1-.67.12c.14.13.14.06,0-.2,0,0-.13.2-.32.14a2.29,2.29,0,0,1-.27-.14c-.27-.17-.15-.19-.1-.26s.46-.35.21-.32c.14,0,.26.62.25.21,0,.25-.56-.27-.16.14-.08-.08,0-.18,0-.29,0,.06-.91-.42-.31-.82.24-.15.52.16.74.3s-.17.43.13.13c-.28.28-.48.15-.82.11-.12,0,.12,0,0,.15,0,0,0-.3.12-.23.32.21-.25-.66.16.12.18.35-.38.29-.57.07s.38-.71.67-.47-.06.45-.06.35,0,0,0,0l.08.11c.08.21.2.09.37-.36l.93-.26c.26,0,.09.24,0-.16,0-.12,0-.2,0-.28l-1.8.48c-.67-.2-1.12-1.47-.1-1.66l1.42.19c-.12-.07,0,.25.05.2,1.29-2-1.91-3.87-3.19-1.87Z" transform="translate(-7.37 -8.44)"/><path class="cls-6" d="M71.84,142.45a1.85,1.85,0,0,0,0-3.69,1.85,1.85,0,0,0,0,3.69Z" transform="translate(-7.37 -8.44)"/><path class="cls-6" d="M75.74,162.2l-.44.15a2,2,0,0,0-1.11.85,1.85,1.85,0,0,0,.67,2.53,1.86,1.86,0,0,0,1.42.19l.44-.15a2,2,0,0,0,1.11-.85,1.86,1.86,0,0,0-.67-2.53,1.9,1.9,0,0,0-1.42-.19Z" transform="translate(-7.37 -8.44)"/><path class="cls-6" d="M60.41,153.08l.15.44a1.93,1.93,0,0,0,.85,1.11,1.85,1.85,0,0,0,2.71-2.09L64,152.1a1.92,1.92,0,0,0-.85-1.1,1.88,1.88,0,0,0-1.43-.19,1.84,1.84,0,0,0-1.1.85,1.82,1.82,0,0,0-.19,1.42Z" transform="translate(-7.37 -8.44)"/><path class="cls-5" d="M256.27,223.61a12.5,12.5,0,0,0-.17-3.09c-1-5.68-6.27-9.32-11.34-11.19-9.36-3.44-20.16-4.21-29.94-5.94l-31-5.49c-8.14-1.44-16.31-2.88-24.5-3.18a68.49,68.49,0,0,0-12.49.57c-1.24.18-9,2-4.41,5.35,1.27.92,2.85.57,4.28.35A20.73,20.73,0,0,1,158,202.46c-8.54,3.86-13,14.38-16.81,24.1a5.39,5.39,0,0,0-.48,2,3.22,3.22,0,0,0,3,3,6.75,6.75,0,0,0,3.92-1.66c-1.15,4.05-2.73,8.6-6.24,9.74-1.52.5-3.22.26-4.66,1s-2.39,3.17-1.16,4.44c-1.19-.65-2.56.85-2.38,2.36a3.71,3.71,0,0,0,2.7,3,8,8,0,0,0,3.83-.23c17-3.83,34.72-6.69,52.19-9,4.32-.57,9.32-1.72,13.63-1.31-4,5.09-9.62,9.19-13.78,14.37-1.53,1.9-2.41,4.91-1,7.14,1.56,2.44,3.86,1.53,6,2.41a1.84,1.84,0,0,0,1.15,0l2-.53c.46-.11.91-.24,1.36-.38,12.87-4.18,24.31-11.28,35.7-18.41C245,239.63,255.53,234.12,256.27,223.61ZM153,218a2.78,2.78,0,0,0-.66,2.51l-2.9,2.07-1.57,1.1q1.5-2.7,3.19-5.21,1.72-1.59,3.33-3.32a1.93,1.93,0,0,0,1,.16C154.66,216.2,153.85,217.1,153,218Z" transform="translate(-7.37 -8.44)"/><path class="cls-4" d="M100.87,152.78c-.7-2.85-2.88-5.32-3.8-8.12-.81-2.47-1.86-6.94-5.18-7.07a3.46,3.46,0,0,0-.85.09,2,2,0,0,0-3.21-1.27,166,166,0,0,0-31.75,36.07c-2,3.12-4.34,6.37-5.28,10-1,4-.27,8.15.78,12,2.37,8.7,5.31,17.27,8.31,25.76,2,5.63,4,11.22,6.14,16.81C68,242.22,70,253.38,76,254.73a31.25,31.25,0,0,0,10.26.09c2.17-.32,2.81-.94,2.48-1.7-.83-2-7.92-4.87-11.92-6.39.26-6.41-.71-12.84-1.7-19.15-1.1-7-1.48-14.2-2.94-21.1-.77-3.64-1.6-7.25-2.54-10.85-.48-1.87-1-3.73-1.54-5.58-.69-2.45,1.1-3.26,2.85-4.53A175.24,175.24,0,0,0,86.36,173a175.24,175.24,0,0,0,16.19-17A2,2,0,0,0,100.87,152.78ZM96.79,157c0-.1.09-.2.14-.3h.12Z" transform="translate(-7.37 -8.44)"/><path class="cls-1" d="M172.08,136.09c-.22-.36-.45-.71-.69-1a1.66,1.66,0,0,0-.22-.32l-.08-.09c-4.73-5.57-8.86-11.79-14.58-16.42-2.48-2-6.58-5.64-9.91-5.14-9.23,1.39-6.7,3.8-8.91,6.31-3,3.34-6.71,4.09-10.81,4.26-10.63.47-7.82-5.38-12.39-3-9.9,5.06-19.76,10.19-29.64,15.29-1.36.7-2.86,1.58-3.18,3.07-1.07,5,7.73,22.46,9.16,27.2,2.77,9.25,9.93,6.48,4.14,43.22-.11.67,1.66,1.35,2.08,1.89,5.66,7.22,15.09,1.06,23-.49,5.91-1.17,13.71,1.7,19-1.85,5.94-4,7.75-11.64,9.36-18.16a86.15,86.15,0,0,1,8-21.63c2.62-4.72,7.05-4.59,8.42-9.91.31-1.19.69,6.5,1.85-3.23.42-3.5-1.92-5.79-3.23-9.71,1.16-1,4-3.66,5-4.84a11.19,11.19,0,0,0,2.38-2.32l.69-.52A1.89,1.89,0,0,0,172.08,136.09ZM121.9,204.64l.36-.15a.6.6,0,0,0,.08.08Zm8.66.35a.5.5,0,0,0-.13,0l.17-.08A.49.49,0,0,1,130.56,205Z" transform="translate(-7.37 -8.44)"/><g class="cls-8"><g class="cls-9"><path class="cls-10" d="M104.92,123.3c1.5,1.14,2,4.6,2.2,6.31a39.41,39.41,0,0,1,.22,7.12,57.52,57.52,0,0,1-2.37,13.7,80.24,80.24,0,0,1-12.4,24.29c-.7,1,.9,1.89,1.6.93a79.55,79.55,0,0,0,13.41-27.78,56.77,56.77,0,0,0,1.64-14.68c-.08-3.47-.31-9.16-3.37-11.49-.95-.72-1.87.88-.93,1.6Z" transform="translate(-7.37 -8.44)"/></g><g class="cls-9"><path class="cls-10" d="M144.53,112.09c1.6,13.87,9,25.94,19.36,35.1.89.78,2.2-.52,1.31-1.31-9.95-8.8-17.28-20.42-18.82-33.79-.13-1.17-2-1.18-1.85,0Z" transform="translate(-7.37 -8.44)"/></g></g><path class="cls-11" d="M197.59,219.54c0-.83-21.53-1.07-25.44-1.14-1.3,0-2.66-.05-3.88,0a26.31,26.31,0,0,0-4.87.92c-.7.18.18.42,1.64.41h2.75a104.53,104.53,0,0,0-13.39,2c-.36.1-.6.19-.52.3s15.12-1,16.17-1.1C174.86,220.7,197.56,220.48,197.59,219.54Z" transform="translate(-7.37 -8.44)"/><path class="cls-4" d="M145.54,77c-2.72-8-7.5-15.09-17.33-13.58a20.32,20.32,0,0,0-13.68,8.77c-4.76,7.22-4.38,16.69-2.29,25.08a68.75,68.75,0,0,0,8.55,20.35,7.13,7.13,0,0,0,1.65,2.25c2.51,1.66,9.18.68,11.68-1.42,1.79-1.51.51-5.37,2.25-7,4-3.69,8.87-7,10.79-12.34,2.17-6.07,1-13.14-.7-19.17C146.18,79,145.88,78,145.54,77Z" transform="translate(-7.37 -8.44)"/><path class="cls-12" d="M208.62,159.92c-.78-6-2.3-12.52-7.48-16-12.74-8.71-26.12,2.58-34.47,12-10.28,11.56-17.27,26.32-29.61,36-5.19,4-11.67,6.08-18.15,6.82a57.64,57.64,0,0,1-10.09.2c-2.95-.18-6.33-.31-9.15-1.29-1.52-.54-2.11-1.8-3.76-.85a8.52,8.52,0,0,0-3.24,4.16c-2.52,6.29-4.35,13.72-4.18,20.48.16,6.41,1.11,13.12,4.48,18.7.34.54.68,1.08,1,1.6,7.9,11.65,23.39,12.48,36,10.33,15.16-2.59,26.06-10.25,34-23.53a177.53,177.53,0,0,0,10.56-21.49c4.21-9.85,9.24-19.27,12.17-29.62-.71,6.89.34,14.63,1.6,22.14,2.11,12.47,4.15,25.11,6.94,37.44.5,2.19,1,4.53,3.24,4.49,1.66,0,3.06-1.21,4.11-2.49,2.25-2.73.86-5.08,1.89-8.47,4.11-13.44,5.08-24,6.18-38.13.72-9.32-.69-19.2-1.67-28.69C208.91,162.41,208.78,161.18,208.62,159.92Z" transform="translate(-7.37 -8.44)"/><path class="cls-13" d="M166.52,156.8a6.37,6.37,0,0,0,0-1.9v0c-.12-2.34-3.6-2.83-4-.34-.05.33-.11.67-.17,1-1.49-.88-3.8,1.1-2.79,3.14.27.54-1.65,2.13-1.89,2.33a9.74,9.74,0,0,1-3.63,1.8,3.34,3.34,0,0,0-.38.15c-.66.1-1.32.18-1.94.24a2.18,2.18,0,0,0-1.88,2.7l-1.23.58a1.56,1.56,0,0,0-.47.22,59.75,59.75,0,0,1-7.79,2.8c-2.24.63-1.68,4.44.65,4.21l.45-.06c.31,1,.6,4.31,1.79,4.07C153.22,175.69,163.61,168.72,166.52,156.8Z" transform="translate(-7.37 -8.44)"/><path class="cls-14" d="M194.06,252.28q9.85-9,20.36-17.3a62.84,62.84,0,0,1,10-6.81A82.44,82.44,0,0,1,235,223.92c.83-.29.47-1.63-.37-1.34a93.34,93.34,0,0,0-10,3.94,56.54,56.54,0,0,0-9.8,6.4q-11.25,8.73-21.74,18.38c-.66.6.32,1.58,1,1Z" transform="translate(-7.37 -8.44)"/><path class="cls-1" d="M108.15,198.62c-1.91,11.17-6.94,28.66,3.83,37,5.43,4.2,12.77,3.58,18.77,1,6.95-3,11.75-8.36,15.25-14.92,4.35-8.12,8-16.67,11.94-25A302.53,302.53,0,0,1,172.25,170c3.78-6.26,9.42-16.62,18.38-14.74,5.88,1.23,7.35,8.93,8,13.92,1.08,9,1.06,18.26,1.36,27.31.35,10.47.52,20.95.07,31.42,0,.74,1.13.74,1.16,0,.77-18.19-.1-36.47-1.09-54.63-.28-5-.82-10.57-3.54-14.9-2.85-4.54-7.86-5.35-12.63-3.3-7.25,3.11-11.21,11.8-14.95,18.2-5,8.61-9.49,17.5-13.73,26.52-3.73,7.94-7.08,16.33-11.62,23.85-4.24,7-11,12.42-19.24,13.7a14.94,14.94,0,0,1-12.68-3.46c-3.13-2.93-4.43-7.13-4.86-11.29-.81-7.93,1.11-15.87,2.44-23.64.12-.73-1-1-1.12-.31Z" transform="translate(-7.37 -8.44)"/><path class="cls-14" d="M198.72,284.84a162.78,162.78,0,0,0-.54-19.5c-.28-4.12.52-11.36-4.18-13.66a5.42,5.42,0,0,0-3.21-.38c-4.89.78-9.73,5-9.84,9.89-.07,3.38,1.58,6.53,3.21,9.45,1.91,3.42,3.53,7,5.09,10.56,1.31,3,2.44,6.43,5.15,8.64C197.59,292.45,198.62,286.62,198.72,284.84Z" transform="translate(-7.37 -8.44)"/><path class="cls-14" d="M224.38,233.61a161.9,161.9,0,0,0-19.18-4.78c-4.1-.85-10.95-3.61-14.48.38a5.57,5.57,0,0,0-1.26,3c-.58,5,2.18,10.92,6.95,12.37,3.74,1.14,7.79-.38,11.53-1.11s7.33-1.32,11-1.86c3.09-.44,6.43-.5,9.13-2.44C231.5,236.8,226.09,234.19,224.38,233.61Z" transform="translate(-7.37 -8.44)"/><path class="cls-11" d="M117.54,202c0,1.9.09,3.87.22,5.73a22.7,22.7,0,0,0,1.16,6.11,19,19,0,0,0,3.41,5.48,14.38,14.38,0,0,1-1.89-4.49,23.48,23.48,0,0,1-.92-5.06c-.25-3.62-.13-7.25-.33-10.87a.27.27,0,0,0-.12-.2.28.28,0,0,0-.2,0c-.6,0-.81-.1-1,.46a5.49,5.49,0,0,0-.25,1.51C117.56,201,117.55,201.49,117.54,202Z" transform="translate(-7.37 -8.44)"/><path class="cls-11" d="M120,135.48l-.46.05a2.24,2.24,0,0,0-1.47.61,2.13,2.13,0,0,0-.61,1.47,2.08,2.08,0,0,0,.61,1.47,2,2,0,0,0,1.47.61l.46-.05a2.26,2.26,0,0,0,1.47-.61,2.08,2.08,0,0,0,0-2.94,2,2,0,0,0-1.47-.61Z" transform="translate(-7.37 -8.44)"/><path class="cls-11" d="M140.24,129.79l.45-.06a1.62,1.62,0,0,0,1.13-2,1.65,1.65,0,0,0-.74-1l-.39-.16a1.57,1.57,0,0,0-.86,0l-.45.06a1.69,1.69,0,0,0-1,.75,1.63,1.63,0,0,0-.16,1.24,1.65,1.65,0,0,0,.74,1l.39.16a1.57,1.57,0,0,0,.86,0Z" transform="translate(-7.37 -8.44)"/><path class="cls-11" d="M114.63,189.28v-.92a1.62,1.62,0,1,0-3.24,0v.92a1.62,1.62,0,0,0,3.24,0Z" transform="translate(-7.37 -8.44)"/><path class="cls-11" d="M91.29,144.22a1.62,1.62,0,0,0,0-3.23,1.62,1.62,0,0,0,0,3.23Z" transform="translate(-7.37 -8.44)"/><path class="cls-11" d="M156.8,154.62v-.46a1.28,1.28,0,0,0-1.27-1.27,1.29,1.29,0,0,0-1.27,1.27v.46a1.28,1.28,0,0,0,1.27,1.27,1.29,1.29,0,0,0,1.27-1.27Z" transform="translate(-7.37 -8.44)"/><path class="cls-11" d="M158.3,127.24a1.28,1.28,0,0,0,0-2.55,1.28,1.28,0,0,0,0,2.55Z" transform="translate(-7.37 -8.44)"/><path class="cls-11" d="M98.19,153.26l-.46-.46a1.27,1.27,0,1,0-1.79,1.79l.46.47a1.27,1.27,0,0,0,1.79-1.8Z" transform="translate(-7.37 -8.44)"/><path class="cls-11" d="M133.92,174v.46a.81.81,0,0,0,1.62,0V174a.81.81,0,0,0-1.62,0Z" transform="translate(-7.37 -8.44)"/><path class="cls-11" d="M112.55,149.42a.81.81,0,0,0,0-1.62.81.81,0,0,0,0,1.62Z" transform="translate(-7.37 -8.44)"/><path class="cls-11" d="M133.81,129.09a.81.81,0,0,0,0-1.62.81.81,0,0,0,0,1.62Z" transform="translate(-7.37 -8.44)"/><path class="cls-11" d="M136.93,149.07v-.46a.81.81,0,0,0-1.62,0v.46a.81.81,0,0,0,1.62,0Z" transform="translate(-7.37 -8.44)"/><path class="cls-11" d="M124,159.35l-.47-.46a1.15,1.15,0,1,0-1.63,1.63l.46.46a1.16,1.16,0,1,0,1.64-1.63Z" transform="translate(-7.37 -8.44)"/><path class="cls-11" d="M141.66,162.48c3,0,3-4.62,0-4.62s-3,4.62,0,4.62Z" transform="translate(-7.37 -8.44)"/><path class="cls-11" d="M131.5,192.06a1.39,1.39,0,0,0,0-2.78,1.39,1.39,0,0,0,0,2.78Z" transform="translate(-7.37 -8.44)"/><path class="cls-11" d="M148.14,175.42a1.39,1.39,0,0,0,0-2.77,1.39,1.39,0,0,0,0,2.77Z" transform="translate(-7.37 -8.44)"/><path class="cls-11" d="M150,137.46l-.46-.46a1.39,1.39,0,0,0-2,2l.46.46a1.39,1.39,0,0,0,2,0,1.41,1.41,0,0,0,0-2Z" transform="translate(-7.37 -8.44)"/><path class="cls-11" d="M100.18,176.23l-.46-.46a.81.81,0,0,0-1.15,1.14l.47.47a.81.81,0,0,0,1.14,0,.83.83,0,0,0,0-1.15Z" transform="translate(-7.37 -8.44)"/><path class="cls-11" d="M101.57,130.94l-.47-.46a.81.81,0,0,0-1.14,1.14l.46.46a.81.81,0,0,0,1.15-1.14Z" transform="translate(-7.37 -8.44)"/><path class="cls-11" d="M115.43,124.47,115,124a.81.81,0,0,0-1.15,1.14l.47.46a.81.81,0,0,0,1.14,0,.81.81,0,0,0,0-1.14Z" transform="translate(-7.37 -8.44)"/><g class="cls-15"><path class="cls-10" d="M105.63,167.57c3.6,4.27,7.5,8.41,13.24,9.43a18.36,18.36,0,0,0,16.32-5.43c1.25-1.28-.71-3.24-2-2a15.44,15.44,0,0,1-15,4.42c-4.6-1.24-7.71-4.92-10.65-8.42-1.15-1.37-3.11.6-2,2Z" transform="translate(-7.37 -8.44)"/></g><path class="cls-16" d="M180.9,81.46c.18,3,.46,6,.63,9.05.05.89,1.42.66,1.37-.23-.17-3-.45-6-.63-9-.05-.89-1.42-.65-1.37.23Z" transform="translate(-7.37 -8.44)"/><path class="cls-16" d="M186,68a6.74,6.74,0,0,0-7.13-2.32c-4.8,1.45-5.18,7-3.45,10.92,1.22,2.74,3.19,5.88,6.65,5.28a4.83,4.83,0,0,0,3.1-1.84,12.71,12.71,0,0,0,2-3.84A8.82,8.82,0,0,0,186,68Zm-2.46,10.13c-3.91,4.79-9.49-7-4.63-9.85C184,65.33,186.55,74.41,183.52,78.13Z" transform="translate(-7.37 -8.44)"/><path class="cls-3" d="M235.2,54.54a21.2,21.2,0,0,0-16.84-9.77c-7.36-.24-15.47,3.09-21.2,7.54a68.31,68.31,0,0,0-7.92,7.48c-.93,1-6.78,7.82-7.63,7.58a1.68,1.68,0,0,0-1.22.14c-4.5,2.21-3.77,7.46-1.39,11a8.7,8.7,0,0,0,5.36,3.94,13.34,13.34,0,0,1,4.2,1.26c1.25.75,8.64,4.67,9.83,5.5,6.9,4.81,17.68,4.81,25.29,1.7C237.66,85.22,243.68,67.17,235.2,54.54Z" transform="translate(-7.37 -8.44)"/><path class="cls-11" d="M235.52,67.08a.46.46,0,0,0-.88-.14c-3,6.71-6.82,12.73-13.31,16.47-.29.17-.63.44-.53.76a.51.51,0,0,0,.39.32c1.72.38,3.63-1.33,4.9-2.24a31.83,31.83,0,0,0,4.39-3.73c2.56-2.61,4.94-6,5.12-9.74A8.77,8.77,0,0,0,235.52,67.08Z" transform="translate(-7.37 -8.44)"/><path class="cls-4" d="M185.65,98.54c1.9.33-.35.59.7-.83.8-1.09,2.25-1.6,2.86-2.86a20.79,20.79,0,0,0,1.31-5.1,3.61,3.61,0,0,0-1.05-2.11c-.82-.83-.82-1.44-1.7-2.2S185,85,184,84.3c-.21-.13-1.32-.46-1.5,0-.05.15,0,.31,0,.47a36.94,36.94,0,0,0,.33,4.9c.08.46-.57,0-.84-.34-1.22-1.38-.21-3.85-1.29-5.25s-3.57,1.57-3.73,3.29c-.34,3.8.37,5.67,3,8.41A10.62,10.62,0,0,0,185.65,98.54Z" transform="translate(-7.37 -8.44)"/><path class="cls-3" d="M256.36,23.66a13,13,0,0,0-2-6.45,15.14,15.14,0,0,0-6.16-7.12,12,12,0,0,0-12.49.21,8.43,8.43,0,0,0-3.61,2.4,7.81,7.81,0,0,0-.58.71,9.7,9.7,0,0,0-4.2,5.75,9.54,9.54,0,0,0,.4,5.79c0,.24.1.47.16.7a14.22,14.22,0,0,0,.32,1.55,13.43,13.43,0,0,0,6.54,8,12.13,12.13,0,0,0,9,1.93C250.39,36.67,256.67,31.19,256.36,23.66Z" transform="translate(-7.37 -8.44)"/><path class="cls-11" d="M251.18,20.74a9.5,9.5,0,0,1-1.83,10.48.46.46,0,0,0,.65.66A9.66,9.66,0,0,0,252.77,21a.46.46,0,0,0-.89.24c.87,3.27,1.05,7.26-2.4,9.06L250,31a9.76,9.76,0,0,0,2.5-10.33.46.46,0,0,0-.89.24c.7,2.83,1.34,5.82-.3,8.44-.32.51.48,1,.8.47,1.55-2.38,2.31-5.38.39-7.76-.29-.36-.91,0-.77.45a8.36,8.36,0,0,1,.34,4.35c-.25,1.18-1,3.79-2.62,3.64-.59-.06-.59.86,0,.92,1.68.17,2.6-1.6,3.12-3a9.2,9.2,0,0,0,0-6.19l-.77.45c1.66,2.06.74,4.67-.54,6.64l.8.47c1.77-2.84,1.15-6.08.39-9.15l-.89.24a8.83,8.83,0,0,1-2.27,9.43.47.47,0,0,0,.56.73c3.82-2,3.81-6.43,2.83-10.1l-.89.24a8.76,8.76,0,0,1-2.53,10l.65.66a10.47,10.47,0,0,0,2-11.6c-.24-.55-1-.08-.8.46Z" transform="translate(-7.37 -8.44)"/><path class="cls-3" d="M210.05,20c-1.46-5.28-8.48-7-12.73-3.9-3.38,2.48-5.5,6.52-3.18,10.56a8.44,8.44,0,0,0,7.21,4.09c5.05,0,9.94-5.14,8.79-10.38Z" transform="translate(-7.37 -8.44)"/><path class="cls-11" d="M205.92,18.48a7.8,7.8,0,0,1-.64,6.66c-.3.53.45.93.8.47a6.33,6.33,0,0,0,.5-6.87l-.79.47a4.74,4.74,0,0,1-.07,5.75c-.32.42.38.95.72.56a5.67,5.67,0,0,0,.65-6.73.46.46,0,0,0-.8.47,4.9,4.9,0,0,1-.78,5.93c-.41.43.24,1.08.66.66a5.88,5.88,0,0,0,.92-7.06l-.8.47a4.71,4.71,0,0,1-.5,5.61l.72.56a5.6,5.6,0,0,0,.07-6.69.46.46,0,0,0-.79.47,5.41,5.41,0,0,1-.51,5.93l.8.47a8.75,8.75,0,0,0,.73-7.38c-.19-.56-1.08-.32-.89.25Z" transform="translate(-7.37 -8.44)"/><path class="cls-17" d="M150.08,66.87l-.1.06,0,0h0Z" transform="translate(-7.37 -8.44)"/><path class="cls-12" d="M144.55,62.12c-3.14-4.37-10.94-6.92-16.14-7.91-13.16-2.48-27.36,2.11-34.67,13.41-9,13.93.6,28.34,1.63,43.85.34,5.22-7.86,13.53-11.84,15.63-4.17,2.2-8,7.19-4.13,11.54,6.24,7,21,4.53,28,0,5.4-3.48,10.41-8.81,12-15.18,1.91-7.48-3.67-15.61-4.29-22.81a6.35,6.35,0,0,1,.55-3.31c-5.36-2.16-4.9-9.54.1-12.46a7,7,0,0,0,2.76-2.75c1.84-3.58,5.51-5.71,11.48-6.7,3.14-.52,6.42-.23,9.54-1a7.13,7.13,0,0,0,4-2.25C146.66,68.11,146.46,64.78,144.55,62.12Z" transform="translate(-7.37 -8.44)"/><path class="cls-4" d="M117.19,91.52c.23,2.61-.83,3.79-1.52,5.37a9.36,9.36,0,0,0,3.54.6,3.36,3.36,0,0,0,1.85-.51l1,.16c3,.38,4.56-2.35,2.51-3.44a2,2,0,0,0-.75-.73,4.37,4.37,0,0,0,.13-4,2.91,2.91,0,0,0,.42-1.82,2,2,0,0,0,0-.24c.87-.72,1.1-1.76-.22-2.48-.19-.11-.39-.2-.58-.29l0,0L123.2,84c-.24-.1-.49-.18-.74-.26a2.13,2.13,0,0,0-1.1-.51,10.62,10.62,0,0,0-3.6.34A21.05,21.05,0,0,0,117.19,91.52Z" transform="translate(-7.37 -8.44)"/><path class="cls-4" d="M115.15,96.89c.87-1.58,2.18-2.76,1.9-5.37a17.08,17.08,0,0,1,.71-7.93C109.29,85.51,107.67,94.47,115.15,96.89Z" transform="translate(-7.37 -8.44)"/><path class="cls-5" d="M119.35,95.35a3.4,3.4,0,0,0-4-3.17h0a3.17,3.17,0,0,0-1.78.88,3.36,3.36,0,0,0,.14,4.75,3.3,3.3,0,0,0,2.82.88h.07l.17,0a2.82,2.82,0,0,0,1-.37h0l.21-.14.2-.15,0,0a3.1,3.1,0,0,0,.62-.68,2.35,2.35,0,0,0,.26-.46A3.32,3.32,0,0,0,119.35,95.35Z" transform="translate(-7.37 -8.44)"/><path class="cls-18" d="M186,68a6.74,6.74,0,0,0-7.13-2.32c-4.8,1.45-5.18,7-3.45,10.92,1.22,2.74,3.19,5.88,6.65,5.28a4.83,4.83,0,0,0,3.1-1.84,12.71,12.71,0,0,0,2-3.84A8.82,8.82,0,0,0,186,68Zm-2.46,10.13c-3.91,4.79-9.49-7-4.63-9.85C184,65.33,186.55,74.41,183.52,78.13Z" transform="translate(-7.37 -8.44)"/><path class="cls-1" d="M133.56,53.23c.05-.62.06-1.25.06-1.85a5.42,5.42,0,0,0-.76-3,2.86,2.86,0,0,0-1.41-1c-2.12-.7-3,1.54-4.22,2.75a1.76,1.76,0,0,1-.83.55,2.18,2.18,0,0,1-1.49-.44,7.11,7.11,0,0,0-2.66-1,3.49,3.49,0,0,0-2.69.7A3.44,3.44,0,0,0,118.47,52a7,7,0,0,0,.06,2.37,12.49,12.49,0,0,0,1,3.45,2.85,2.85,0,0,0,1.37,1.54,2.45,2.45,0,0,0,1.76-.12,10.16,10.16,0,0,0,2.84-2,2.56,2.56,0,0,1,.64-.45,2.25,2.25,0,0,1,2,.38,5.17,5.17,0,0,0,1.88.93A2.54,2.54,0,0,0,132.33,57,7.12,7.12,0,0,0,133.56,53.23Z" transform="translate(-7.37 -8.44)"/></g></g></svg>