<svg id="Layer_2" data-name="Layer 2" xmlns="http://www.w3.org/2000/svg" viewBox="0 0 679 118.66"><defs><style>.cls-1{fill:#e8f3f9;}.cls-2{fill:#b7c5ce;}</style></defs><title>bottom-bg</title><path class="cls-1" d="M679,118.15H0V101.37c6.92,1.11,13.19,4.75,19,7.44,15.72,7.3,34.25,3.68,50.36-.23,12-2.91,24-5.13,36.09-7.54,11.2-2.23,22.2-5.5,33.52-7.05a145.77,145.77,0,0,1,37.62-.25c12.37,1.52,23.84,5.44,35.8,8.57a377,377,0,0,0,76.17,11.39q16.08.83,32.2.42c53.22-1.35,105.83-12.86,159.15-11.86,22.06.41,44,3.41,66.12,2.94,26.72-.57,52.14-6.44,78.09-10.23,17.82-2.6,37.36-4.11,54.9-2.39v14.33"/><path class="cls-1" d="M678.73,110.8c0,.07,0,.14,0,.22"/><path class="cls-1" d="M53.17,67.49a6,6,0,0,1,1.62-2.1l.76-.73a15.21,15.21,0,0,0,4.8-9.21,9.19,9.19,0,0,0-6-9.8,7.2,7.2,0,0,1-3.34-2c-1.79-2.12-1.53-5.29-.72-7.94,1.86-6,3.11-11.55,2.21-17.92-.82-5.75-4-14.19-10.07-16.28C36.06-.71,30.54,8.4,29.05,13.37,26.8,21,29.59,27.2,32.7,34c1.61,3.53,3.21,8,1.48,11.78-.81,1.8-2.5,2.51-3.68,4C27,54.19,30.72,59,33.2,62.88c1.22,1.88,3.51,4.46,3.65,6.81.19,3.39-.81,2.62-3.42,4.21A6.08,6.08,0,0,0,31,77.27C28.39,84.93,34.19,92,39.37,97c5.58,5.32,12.34-2.72,14.7-7.42a19.38,19.38,0,0,0,1.65-13.73C55,73.31,52.17,70.17,53.17,67.49Z"/><path class="cls-2" d="M39.43,10.71A266,266,0,0,1,40.66,118c-.12.63.85.9,1,.26A267.33,267.33,0,0,0,40.4,10.45c-.14-.63-1.11-.37-1,.26Z"/><path class="cls-1" d="M91.07,46.36c.13-.84.23-1.69.31-2.54a14.12,14.12,0,0,0-1-7.6c-3-5.92-9.47-3.59-12.84.44A24.07,24.07,0,0,0,72.23,55c.3,2.35.92,4.91-.31,6.94s-4.27,2.85-5.72,4.94c-2.56,3.7.93,9.52-1.88,13a15.67,15.67,0,0,1-3.14,2.43,14,14,0,0,0-4.81,7.6c-.9,3.21-1,6.82.68,9.73s5.28,4.8,8.44,3.71c2.57-.88,4.22-3.42,5.21-6s1.55-5.27,2.94-7.61c2.78-4.65,8.5-7.12,10.75-12,2-4.49.68-9.77,1.57-14.62.54-2.89,1.86-5.55,2.9-8.3A42.08,42.08,0,0,0,91.07,46.36Z"/><path class="cls-2" d="M84.07,37.93C81.84,69.21,68.5,100.69,41,117.72c-.54.34,0,1.2.51.86,27.81-17.22,41.3-49,43.56-80.65,0-.65-1-.64-1,0Z"/><path class="cls-1" d="M632.14,87.58c5.14-.77,9.3-5,12-9.09a12.22,12.22,0,0,0,2.1-7.49c-.62-9.71-7.19-4.52-10.2-10.35-2.23-4.31.24-7.35,2.64-10.23,2.21-2.65,4.07-5.93,3.73-9.36-.67-6.78-9.27-6.09-11.24-12.13-2.26-6.94,3.05-14.3.57-21.43C626.44-7.8,608.14,3,609.9,15.85a25,25,0,0,0,4.29,10.36c1.56,2.33,5.27,5,5.52,8s-5.23,3.41-6.88,5.31c-3.52,4.05-2.29,9,.66,12.83A58.59,58.59,0,0,0,618,57.47a1.69,1.69,0,0,1-1.14,2.88,6.2,6.2,0,0,0-.62.06,4.63,4.63,0,0,0-4.3,3.68C609.23,75,620.47,89.33,632.14,87.58ZM621.86,41.23h0Z"/><path class="cls-2" d="M619.83,10.63c10,34.44,10.23,72.14,4.69,107.39-.1.63.87.9,1,.27,4.38-27.93,4.89-56.81.45-84.76a189.4,189.4,0,0,0-5.15-23.17.5.5,0,0,0-1,.27Z"/></svg>